<svg xmlns="http://www.w3.org/2000/svg" viewBox="0 0 2144 2144"><defs><style>.a{fill:#fff;}.b{fill:#5c7782;opacity:0.25;isolation:isolate;}.c{fill:#008bce;}</style></defs><title>Artboard 1</title><rect class="a" x="1182.7" y="218.4" width="191.3" height="298.3"/><path class="a" d="M1771,565.8c0,24.8-20,44.9-38.8,44.9s-34.1-20.1-34.1-44.9,6.2-50,34.1-50C1755.6,515.7,1771,540.9,1771,565.8Z"/><path class="a" d="M1660,447.8l-142.4.4a2.14,2.14,0,0,1-2.1-2.2h0V435.2a18.78,18.78,0,0,1,18.9-18.7h125.3a2.2,2.2,0,0,1,2.2,2.1l.4,27a2.21,2.21,0,0,1-1.9,2.4C1660.2,447.8,1660.2,447.8,1660,447.8Z"/><path class="b" d="M1062.4,21.4C510.3,21.4,62.7,483.1,62.7,1052.6c0,519.8,354.8,947.3,839.2,1018.3,5.9.9,5.9.9,11.8,1.7l139.2,235,140.2-232.3c6.7-.7-6.7.8,0,0,494.5-61.9,869-495.6,869-1022.7C2062.1,483.1,1614.5,21.4,1062.4,21.4Zm0,2330L886.5,2075s34-213,22.6-215.3c-370.9-78.4-649.9-417.1-649.9-822.9,0-463.9,364.6-840,814.3-840s814.3,376.1,814.3,840c0,429-311.8,782.9-714.4,833.7-10,1.3,60.5,201,60.5,201Z"/><circle class="b" cx="1088.7" cy="1003.2" r="514.6"/><path class="a" d="M1650.4,448.3H1629a12,12,0,0,1-12-12V430a12,12,0,0,1,12-12h21.4a12,12,0,0,1,12,12v6.3A12,12,0,0,1,1650.4,448.3Z"/><rect class="a" x="1443.9" y="50.7" width="254.2" height="212.1"/><polygon class="a" points="1529.9 1885.7 1468.9 1868.7 1507.8 1746.9 1569.9 1770 1529.9 1885.7"/><path class="a" d="M1149.7,1946.9s-854.6,33.7-854.6,27.1L541.9,885.4a12,12,0,0,1,12-12L695.6,863c6.6,0,453,353.2,453,359.8l13.1,712.1A12,12,0,0,1,1149.7,1946.9Z"/><path class="c" d="M1282.9,1945.1c-16.7-128.5-36-795.1-36.6-795.1-13.7-88.1-71.6-93.6-71.6-93.6S884.7,956.3,878.2,955c-65.1-32.5-49.4-113.1-53.3-114.5,0,2.6-170.1,26.5-170.1,26.5,9.8,9.6,65.5,82.2,65.5,82.2l-48.9,84.9,112.9,681.6L655.2,1941.1l-131-225.4,107.4-682.2-48.9-83.7s68.5-75,72-82.9c0,0-170.1-23.9-173.3-26.5,0,0,6.5,102.7-68.9,119.6,2.6,0-271.8,92.2-271.8,92.2s-66.3,5.3-76.7,89.7c.7.7-11.2,682.4-22.3,802.2-11.2,121.7,83.5,185.2,205.7,187l40.9.6h830.4C1218.6,2131.8,1295.7,2044.2,1282.9,1945.1ZM979.6,1299.3a11.14,11.14,0,0,1,11.1-11.1h4a10.82,10.82,0,0,1,10.8,10.8h0v12.3a1.79,1.79,0,0,1-1.8,1.8H981.4a1.79,1.79,0,0,1-1.8-1.8Zm0,15.5h26.3v4.3H979.6Zm-23.9-37.6V1273c0-1.5-.2-2.7,2.7-2.7,3.2,0,2.7,1.3,2.7,2.7v4.2a8.62,8.62,0,0,1,5.9,8.2H949.7a8.74,8.74,0,0,1,6-8.2Zm-5.9,9.8h17.5v5.4H949.8Zm146.6,80.5h-208l.8-43.9,16.8.1v-39.3c0-3,5.4-4.9,10.4-5.8v-7.3c0-3.5-2.1-5,4.9-5s4.9,1.5,4.9,5v7.3c4.9.8,10.2,2.7,10.2,5.8v39.5l13.5.1v-30.2h17.5v30.4l12.2.1v-2.2l13.1-.3,13.1.3v2.4l61.9.5a28.64,28.64,0,0,1,28.8,28.3v14.2Z"/><path class="a" d="M967.3,429c0,27.4.3,66.2-14.6,101.2-9.5,22-46.9,33.7-47.4,61.4-.8,46-42.8,75.9-60.4,98.7-22.1,28.8-41.8,67.9-71.9,85.8-38.4,22.9-52.4,35.2-98.8,35.2-48.7,0-105.1-24.5-144.8-49.4s-59.6-45.3-84-88.2c-18.8-33.1-22.4-74.9-40.2-97.6-4.9-6.3,3.5-21.8-7.3-22.3-16.7-.8-40.4-22.9-44.6-28.6-38.1-52.4-16.8-96-21.3-131-2.9-22.1,60.5-3.7,62.2-39.5,4.9-101.8,161.5-145.4,261.7-145.4,85.5,0,212.4,30.7,242.1,110.6C924.5,391.6,967.3,354.6,967.3,429Z"/><path class="c" d="M393,566.9s45.7,116.2,45.7,117.4C554.3,852,677.8,824.8,678,824.8h0c159.6-1.3,242.8-249.7,241.9-253.6h0c28.4,0,42.8-36.1,40.3-36.4h0c51.5-208.6-27.1-172.3-29.8-170.4h0C951,262,902.2,159.9,903,159.1h0C839.3-13.6,520.1,38.4,561.8,41.2h0C411.3,76.6,373.4,231.7,362.8,260c-1.1,2.9-4.8,29.1-6.7,29.1-3.8,46.7,56,103.4-7.4,76.9-15.8-6.5-25.3,20.1-31.4,52.4C300.5,507.1,392.8,566.3,393,566.9Zm.6-105.5-.6-27.7c-.7-5.3-10-85.8,35.2-95.3h0c.1-2.1,19.7-25.3,111.2-15.6h0c.3-5.7,116.5,38.8,146.1,9.9h0c-4.8,1.1-83.4-8.9-77.8-39.1h0c6.2,4,99.4,33.1,128.7,27.3,1.9,0-50.7-27.3-37.1-44.9h0c2.4,6.2,109.2,68.3,132.6,56.5,5.8-1.9,64.4-23.4,78.1,41h0c-1.8,2.1-.1,57.2,0,60.3h0c1.4-3.4,29.6-75.1,44.9-42.8,5.8,0,17.6,152.1-38.9,158h0c-.6,1.6-100.6,267.9-251.7,255.6h0c-144.5-20.2-198-125.3-197.5-124.5-4.1-8.6-36.4-48.4-65.5-137.5h0c-4.9,1.9-54.2,9.8-69.2-92.1C331.9,450.4,340.6,293.2,393.6,461.4Z"/><rect class="c" x="1897.1" y="683" width="60" height="60"/><rect class="c" x="1717.1" y="683" width="60" height="60"/><rect class="a" x="1668.8" y="636" width="375.6" height="244.2"/><circle class="a" cx="2017.08" cy="862.38" r="100" transform="translate(-19 1678.87) rotate(-45)"/><path class="c" d="M1687.5,861.4l-.4-1.9V653.2h330v60h30v-150h-45v15.1a30,30,0,0,1-60,0V563.1h-180v15.1a30,30,0,0,1-59.9,0V563.1h-45v330h210v-30H1690C1688.8,863.1,1688.2,862.4,1687.5,861.4Z"/><path class="c" d="M2017.1,743.1a120,120,0,1,0,119.9,120,119.86,119.86,0,0,0-119.9-120Zm0,215a95,95,0,1,1,95-95h0A95.34,95.34,0,0,1,2017.1,958.1Z"/><rect class="c" x="1717.1" y="773.1" width="60" height="60"/><rect class="c" x="1807" y="683" width="60" height="60"/><rect class="c" x="1807" y="773.1" width="60" height="60"/><path class="c" d="M2056.1,803.1H1980a9.67,9.67,0,0,0-9.6,7l-14.7,41.3v59.3a6.66,6.66,0,0,0,6.2,7h7.8a6.66,6.66,0,0,0,7-6.2V898.4h82.9v12.3a6.66,6.66,0,0,0,6.2,7h7.7a6.66,6.66,0,0,0,7-6.2V851.4l-14.7-41.3A10.48,10.48,0,0,0,2056.1,803.1Zm-73,11.7h69.7l9.3,30h-88.4Zm-2.4,69.7a11,11,0,1,1,11-11A11.37,11.37,0,0,1,1980.7,884.5Zm74.7,0a11,11,0,1,1,11-11A11,11,0,0,1,2055.4,884.5Z"/><path class="c" d="M1732.2,593.1a14.81,14.81,0,0,0,14.9-14.9V544.6a15,15,0,0,0-29.9-.9V578a14.81,14.81,0,0,0,14.9,14.9C1732,593.1,1732,593.1,1732.2,593.1Z"/><path class="c" d="M1972,593.1a15.09,15.09,0,0,0,15.1-14.8V544.8a15,15,0,1,0-30-.2h0V578a15,15,0,0,0,14.9,15.1Z"/><path class="c" d="M2131.3,1429.9l-35.5-35.5a3.92,3.92,0,0,0-5,0l-120.1,120.1,2.2,38.2,38.2,2.2,120.2-120.1a3.32,3.32,0,0,0,.3-4.7C2131.5,1430.1,2131.4,1430,2131.3,1429.9Zm-37.7,21.8-19.6-19.6,20.1-20.1,19.6,19.6Z"/><path class="c" d="M2041.9,1407.1V1204.8a6.92,6.92,0,0,0-6.6-7.2H1872.9a5.37,5.37,0,0,1-3,1.5l-86.6,86.6c0,1.5-1.5,3-1.5,4.2v248.7c0,3,3,5.7,7.2,5.7h160.3l-1.5-43.4Zm-85.6,23.5H1818.8v-22.8h137.5Zm-137.5-48.1v-22.8H1937v22.8Zm143.4-96.3c-16.1-5.2-29-9.2-29-25.6,0-12.7,10.2-20.4,21.6-22.6v-15.1h14.6V1238c13.2,2.5,21.6,11.9,21.6,24.8h-13.7c0-7.7-3.7-14.1-15.1-14.1-9.9,0-15.1,5.7-15.1,11.6,0,8.4,7.7,9.9,19.4,13.7,19.6,6.2,26.3,13.4,26.3,27,0,11.6-8.4,20.4-23.1,22.3v14.9h-14.4v-15.1c-13.4-2.7-23.6-12.2-23.6-25.8h14.4c0,8.9,7.7,14.9,16.4,14.9,11.4,0,16.4-4.7,16.4-11.2C1978.7,1293.6,1975.9,1290.4,1962.2,1286.2Zm-83.8-64.1v72h-72Zm48.9,256.7H1818.8V1456h108.5Z"/><path class="c" d="M490.7,229.7a18.1,18.1,0,1,0-18.1-18.1h0A18.1,18.1,0,0,0,490.7,229.7Z"/><path class="c" d="M447.3,274.8H534a20.22,20.22,0,0,0,19.9-19.9V168.4A20.22,20.22,0,0,0,534,148.5H447.3a20.22,20.22,0,0,0-19.9,19.9V255A20.2,20.2,0,0,0,447.3,274.8Zm-7.8-73.2,13.9-.9a41.8,41.8,0,0,1,3.1-7.6l-9.2-10.4,14.3-14.3,10.4,9.2a39.07,39.07,0,0,1,7.6-3.1l.9-13.9h20.3l.9,13.9a41.8,41.8,0,0,1,7.6,3.1l10.3-9.2,14.3,14.3-9.2,10.4a39.07,39.07,0,0,1,3.1,7.6l13.9.9V222l-13.9.9a41.8,41.8,0,0,1-3.1,7.6l9.2,10.3-14.3,14.5-10.3-9.2a39.07,39.07,0,0,1-7.6,3.1l-.9,13.7H480.5l-.9-13.9a41.8,41.8,0,0,1-7.6-3.1l-10.4,9.2-14.3-14.5,9.2-10.4a39.07,39.07,0,0,1-3.1-7.6l-13.9-.7Z"/><polygon class="c" points="1623.6 349.3 1554.1 349 1539.1 416.3 1638.9 416.3 1623.6 349.3"/><path class="c" d="M1620.5,417l5.1,1.8H1648c11.9,0,20.5,15,7.3,27.5a2.27,2.27,0,0,1-1.6.6H1530.2a14.08,14.08,0,0,1-14.1-14.1,13.33,13.33,0,0,1,.3-2.8,14.48,14.48,0,0,1,14.3-11.3h22.4l4.5-1.8v-.7h-26.3a16.56,16.56,0,0,0-16.6,16.6v14a2.37,2.37,0,0,0,2.4,2.4h144.3a2.37,2.37,0,0,0,2.4-2.4h0V433.4a17.09,17.09,0,0,0-17.1-17.1h-25.9Z"/><path class="c" d="M1427.7,343h342.8a25.18,25.18,0,0,0,25.1-25.1V298H1427.8v45Z"/><path class="c" d="M1762,21.6H1336.5a33.78,33.78,0,0,0-33.7,33.7V182.8h114.6a10.73,10.73,0,0,1,10.4,10.4v88.3h367.8V55.3A33.82,33.82,0,0,0,1762,21.6ZM1467.9,77.5a4.27,4.27,0,0,1,4.3-4.3H1531a4.12,4.12,0,0,1,4.3,3.9v59.2a4.12,4.12,0,0,1-3.9,4.3h-59.2a4.12,4.12,0,0,1-4.3-3.9V77.5Zm77.4,162.8a6.69,6.69,0,0,1-6.5,6.5h-73.6a6.69,6.69,0,0,1-6.5-6.5V166.7a6.69,6.69,0,0,1,6.5-6.5h73.6a6.69,6.69,0,0,1,6.5,6.5Zm84.3-30.1h-24.2v24.2H1592V210.2h-24.2V196.8H1592V172.6h13.4v24.2h24.2Zm12-66.6a6.36,6.36,0,0,1-6.2,6.5h-73.9a6.69,6.69,0,0,1-6.5-6.5V70a6.69,6.69,0,0,1,6.5-6.5h73.6a6.69,6.69,0,0,1,6.5,6.5Z"/><path class="c" d="M1243.6,244.4h70.9a5,5,0,0,0,5.2-4.8v-.4a5.44,5.44,0,0,0-5.2-5.2h-70.9a5.29,5.29,0,0,0-5.2,5.2A5.16,5.16,0,0,0,1243.6,244.4Z"/><path class="a" d="M1366.3,561.1H1192a12,12,0,0,1-12-12V230.4a12,12,0,0,1,12-12h174.3a12,12,0,0,1,12,12V549.2A12,12,0,0,1,1366.3,561.1Z"/><path class="c" d="M1373.7,209.7a35.12,35.12,0,0,0-11.7-4.3,15,15,0,0,0-4.3-.4c-1.3,0-3-.4-4.3-.4H1204.6a19.64,19.64,0,0,0-4.3.4c-1.3,0-3,.4-4.2.4h-.3a35.41,35.41,0,0,0-11.6,4.3,42.44,42.44,0,0,0-22.4,37.7V527.2a44.32,44.32,0,0,0,44.3,44.3h145.2a44.26,44.26,0,0,0,44.3-44.3v-280A42.52,42.52,0,0,0,1373.7,209.7ZM1276.5,560a15.62,15.62,0,0,1-15.6-15.6,10.87,10.87,0,0,1,.1-1.8,15.71,15.71,0,0,1,17.1-13.8,15.5,15.5,0,0,1,14.1,15.6A15.71,15.71,0,0,1,1276.5,560Zm83.8-40.6H1199.5a12.44,12.44,0,0,1-12.5-12.5h0v-272a11.62,11.62,0,0,1,6.5-10.4l.3-.1a14.28,14.28,0,0,1,4.2-.9h162a16.67,16.67,0,0,1,4.2.9c.1,0,.1,0,.3.1a11.58,11.58,0,0,1,6.5,10.4V508.6l.4-5.5C1371.1,509.3,1366.4,519.4,1360.3,519.4Z"/><path class="c" d="M1249.1,336.3a42.43,42.43,0,0,0,0,59.6l29.9,34.2,29.9-34.2a42.07,42.07,0,0,0,0-59.6A42.49,42.49,0,0,0,1249.1,336.3ZM1279,380a14.55,14.55,0,1,1,.3,0Z"/><polygon class="a" points="1789.2 1819.6 1648.9 1755.2 1606.9 1772 1569.9 1770 1529.9 1898.4 1557 1961 1789.2 1819.6"/><path class="c" d="M1934.5,1887.5l-56.5-98.4a16.44,16.44,0,0,0-22.4-6l-58.3,33.5s42.5,75.9,62.8,110.8c-15.4,23.8-62.7,71.6-191.3,119.7,0-1.2-41.8,17.2-33.5-12.2,3.5-2.4,76.8-47.8,76.8-47.8l-9.2-14.1-85.9,56.5s-39.6,11.4-25.5-15.7c12.1-6.3,100.8-60.7,100.8-60.7l-8.9-10.6-95.3,57.7s-31.2,2.4-15.1-25.7c3.5-2.4,91.6-50.2,91.6-50.2l-7.8-12.2-85.4,47.5s-22-4-8.1-21.8c8.2-3.7,51.5-27.8,51.5-27.8l-5.2-10.1-59.1,32.9s-20,31.8,11.4,34.7c-1.2,0-27.1,45.7,14.9,47.3,0,0-11.2,39.4,43.7,31.4,1.2-3.5,3.2,46.9,72.2,9.2.7-2.2,123.8-44.4,179.8-113.7h0v0l56.1-32.3a16.12,16.12,0,0,0,5.9-21.9Zm-65.3,31.4-53.6-93.3,50.9-29.3,53.6,93.3Z"/><path class="c" d="M1640,1766.3c22.9,11.8,115.9,38.2,117.1,40.5,18,22.5-15.3,21.2-15.3,21.2l-61.3-16.9-10.4,20.4c-10.6,55.3-95.3,24.7-95.3,24.7v21.2s34.1,5.9,37.7,5.9c60,7.1,80.5-50.6,80.5-50.6s50.1,13.5,61.3,11.8c53.5-18.8,14.7-50.6,14.7-50.6s-75.3-23.5-91.8-32.9c-29.4-17.6-51.8-10.6-50.6-10.6-15.9,15-35.6,13.3-45.6,11.5l-65.7-22a13.94,13.94,0,0,0-17.7,8.8h0l-37.4,111.6a13.94,13.94,0,0,0,8.8,17.7h0l65.7,22a.19.19,0,0,0,.3-.1h0l40.5-121C1602.5,1791.8,1638.8,1767.5,1640,1766.3Zm-111.1,109.2c0,.1-.2.2-.3.2h0l-55.2-18.5c-.1,0-.2-.2-.2-.3h0l34-101.5c0-.1.2-.2.3-.2h0l55.2,18.5c.1,0,.2.2.2.3h0Z"/></svg>