<svg xmlns="http://www.w3.org/2000/svg" viewBox="0 0 2144 2144"><defs><style>.a{fill:#e6e6e6;}.b{fill:#fff;}.c{fill:#008bce;}</style></defs><title>automat-dispatch</title><path class="a" d="M1571.43,7.71H75.48c-37.27,0-67.77,30.5-67.77,187.4V1886.85a80.44,80.44,0,0,0,80.42,80.44l1820.3.42a59.48,59.48,0,0,0,59.5-59.47V523.84C1967.93,186.14,1789.5,7.71,1571.43,7.71Z"/><path class="b" d="M426.81,622s60.57,252,264.48,269.4c0,.56,138.51,39.89,265.05-260.13.55,0,80.89-59.46,40.63-172.09-4-11.22-16.14-1.29-22.45-14,1.3.27-32.47-29.69-32.47-29.69s-68.37-149.64-273.95-121c-1.67,0-260.5,58.16-288,197.78C380.14,492.86,362.61,613.92,426.81,622Z"/><path class="b" d="M952.06,1777c0,.11,34.28-210.37,224.11-249.53,30.23-3.55,76.83-1.94,107.06-1.48l-71.31-318.37L857,987.59l.42-127.87s-34.13,286.12-167.16,281.52c-146.34-5-180.21-281.52-180.21-281.52l5,109L137.7,1171.64,82.56,1772.69l293.71,3.63C389.09,1777,952.06,1777.15,952.06,1777Z"/><circle class="b" cx="1978.26" cy="2044.07" r="53.53"/><circle class="b" cx="1264.13" cy="2043.3" r="53.53"/><path class="c" d="M308.71,625.24C362.7,745,460.76,750.57,460.76,750.57s8.53,6.22,8.53,7.52C586.37,927.77,711.42,900.21,711.42,900.21c161.89-1.3,246.12-254,244.73-256.6,29,0,40.08-34.6,40.73-36.83,52.6-213.18-28.85-173.66-30.15-172.37,21.06-103.9-29-207.89-27.65-207.89-64.57-175.06-388.33-122-344.92-119.31C441.65,142.93,404,311.49,393.32,340.25c-1.12,3.06-1.67,4.64-1.67,4.64s-3.9,13.17-5.94,13.17c-52,14.48-65.13,88.23-65.13,88.23s-9.18,6.59-11.78,3.9C215.29,550.19,311.31,627.84,308.71,625.24ZM423.19,504.73s-11.78-86.83,35.53-96.66c0-2,19.67-25.7,112.44-15.77,0-5.94,118.46,39.52,148.06,9.92,0,1.95-84.89-7.88-79-39.52,5.94,3.9,100.66,33.59,130.25,27.56,2,0-51.3-27.56-37.48-45.37,2,5.85,110.58,69.12,134.24,57.24,5.84-1.95,65.12-23.75,79,41.47-2,2,0,61.23,0,61.23s29.59-77,45.36-43.42c3.25,3.9,17.81,154-39.52,159.84,0,0-101.31,271.08-254.65,258.55,0-1.94-105.48,23.38-199.83-126.07-1.48-.84-2.13-1.58-1.39-2.23.46.74,1,1.49,1.39,2.23,12.52,7,92.12,19.39,114.94,1.67,3.9-1.95,79.13,25,95.83-15.31-.83-.83,9.19-35.62-21.06-45.55-23.56-7.7-74.49,9.65-76.81,19.48-4.17,17.35-2,47.41-124.4,17.82-1.95,0-25.52-27.09-54.92-117.27-4.83,1.95-42.31-1.11-45.74-90C387.66,528.48,381.81,388.4,423.19,504.73ZM328.47,613.55c5.29,7.61,47.41-38.4,5.29-159.47,2.6,2.6,7.88-67.07,46-77.65-1.3-1.3,8.44,0,8.44,0l6,57.89S359.36,444.53,369.29,579c0,0,6.59,42.12,53.9,59.19,0,3.9,36.27,81.55,24.95,90.82.1.09-124.87-44.16-119.67-115.5Z"/><path class="c" d="M1292.33,1571.67c-14.69-88-78.09-454.38-78.09-454.38S920.81,976.38,914.22,975c-65.77-32.85-50-114.48-53.9-115.87-43.14,251.44-281.87,230.11-347.42-.1,0,0,5.12,97.42-69.77,121.07,2.6,0-319.94,174.34-319.94,174.34,1.3,1.29-44.46,620.93-43.16,621.58,0-2.74,245.93-.72,245.93-.72s-17.81-17.1-16.42-67.19c0-2.6-28-365.89-28-365.89s-5.43-62.07,98.71-59.18H909.69a51.19,51.19,0,0,1,51.19,51.19l-10,443.55h19.48C998.37,1725.83,1073.8,1594.35,1292.33,1571.67Z"/><rect class="c" x="380.92" y="1792.4" width="540.85" height="30.24" rx="15.12" ry="15.12"/><circle class="c" cx="641.17" cy="1457.48" r="42.98"/><path class="c" d="M892,1302.83l-531.09.61s-59.41-5.43-55.34,67.88L337.6,1737.6s.84,38.87,61,38.13l524.06.74L942,1353.22A49,49,0,0,0,892,1302.83ZM641.17,1667.16s-89.68-176.07-89.68-212a89.68,89.68,0,0,1,179.36,0C730.85,1490.5,641.17,1667.16,641.17,1667.16Z"/><path class="b" d="M1135.71,2028.22l-22.94-28.51v-61.82l4.46-214.75,11.47-26.32,16.57-23.31c6.69-4.78,189.11-43.41,189.11-43.41l510.6,13.38c-9.14,13.07,103.35,7.52,179.06,112l34,46.78,39.64,180c0,6.31,21.64,38.06,15.33,38.06l-99.79-52.86-71.21-5.26-40.15,20.55-39.52,44.85-67.08,1.33H1761l-25.63,1.3-308.43,1.91-31.23-8.77-44-41.1-44.45-19.59-52.09,6.69-52.1,47.16-67.39,11.62"/><path class="c" d="M1293.72,1976.32a75.64,75.64,0,1,0,75.64,75.64A75.65,75.65,0,0,0,1293.72,1976.32Zm-.33,113.46a37.82,37.82,0,1,1,37.82-37.82A37.82,37.82,0,0,1,1293.39,2089.78Z"/><path class="c" d="M1967.92,1976.32a75.64,75.64,0,1,0,75.64,75.64A75.65,75.65,0,0,0,1967.92,1976.32Zm-.33,113.46a37.82,37.82,0,1,1,37.82-37.82A37.82,37.82,0,0,1,1967.59,2089.78Z"/><path class="c" d="M1049.54,1719.12l-17.37,277.43a37.11,37.11,0,0,0,37,39.57h18.39l-21-317C1066.35,1715.34,1049.79,1715.34,1049.54,1719.12Z"/><path class="c" d="M1440.74,2056.15H1824.6a0,0,0,0,1,0,0v14.42a7.56,7.56,0,0,1-7.56,7.56H1449.47a9.5,9.5,0,0,1-9.5-9.5v-11.72a.77.77,0,0,1,.77-.77Z"/><path class="c" d="M1564.56,1371.76a32.59,32.59,0,1,1,57,21.53l10.09,8.91a46,46,0,1,0-69.94-1l10.25-8.71A32.46,32.46,0,0,1,1564.56,1371.76Z"/><path class="c" d="M1527.73,1371.4a69.06,69.06,0,1,1,120.83,45.7l15.17,13.39a88.79,88.79,0,1,0-134.58-1.63l15-12.76A68.73,68.73,0,0,1,1527.73,1371.4Z"/><path class="c" d="M1494.22,1371.81a104.59,104.59,0,1,1,182.32,70l14.31,12.64a125,125,0,1,0-189.27-2.16l16.48-14A104.16,104.16,0,0,1,1494.22,1371.81Z"/><path class="c" d="M1460.65,1371.89a140.4,140.4,0,1,1,244,94.73l19.22,17a167.76,167.76,0,1,0-254-4.42l22.14-18.8A139.79,139.79,0,0,1,1460.65,1371.89Z"/><path class="c" d="M2117.61,1994s-12.39-3.77-13.84-6.72c-19.28-39.18,8.23-345.79-340.19-359.66l-77.68-3.2-71.72-18-16.31-219.91a14.76,14.76,0,1,0-4.13,0l-25.94,218.81-76.26,19.09H1242.37A140.38,140.38,0,0,0,1102,1764.81v234.1a36.63,36.63,0,0,0,36.63,36.63h40.63a36.69,36.69,0,0,0,32-18.79,93.16,93.16,0,0,1,152.57-14.44,94.66,94.66,0,0,0,72.48,33.23h417.24a36.71,36.71,0,0,0,32-18.79,93.18,93.18,0,0,1,162.57,0c6.5,11.58,30.84,11.39,31.28,11.37l41.39-3.93Zm-690.16-174.57a10.25,10.25,0,0,1-10.21,10.21H1147.18a10.25,10.25,0,0,1-10.21-10.21v-84c0-40.89,26.77-74.35,97.71-74.35h182.56a10.24,10.24,0,0,1,10.21,10.2Zm368.55-.29a12,12,0,0,1-12,12H1469.5a12,12,0,0,1-12-12V1674.58a12,12,0,0,1,12-12H1784a12,12,0,0,1,12,12Zm35.42,10.5V1662.58h18.91c162.81,32,200,167.07,200,167.07Z"/></svg>