<svg id="7fc3a5fd-5807-4345-98b9-891d922e7d4d" data-name="Layer 2 copy" xmlns="http://www.w3.org/2000/svg" viewBox="0 0 2048 2144"><title>backEndSupport</title><path d="M967.61,141C511.75,141,142.2,522.21,142.2,992.45c0,429.19,292.91,782.15,692.89,840.82,4.88.71,4.86.76,9.76,1.38l115,194,115.71-191.82c5.6-.58-5.57.7,0,0,408.28-51.1,717.49-409.23,717.49-844.39C1793,522.21,1423.47,141,967.61,141Zm-8.35,1912.14L850.38,1843.53S837.87,1670,828.18,1668c-314.54-66.53-551.11-353.67-551.11-697.8,0-393.41,309.17-712.32,690.54-712.32s690.54,318.91,690.54,712.32c0,363.82-264.41,663.94-605.83,707-8.46,1.06,19.17,166.69,19.17,166.69Z" style="fill:#ffd105;opacity:0.25"/><path d="M1750.31,1196.58l-37.82-29.11-99.26-4.64v85.55c3.94-.52,23.47-.73,49-.77L1665,1345h105.17l45.13-96.65Z" style="fill:#fff"/><path d="M1802.33,1287a52,52,0,1,0,52,52A52.1,52.1,0,0,0,1802.33,1287Zm0,67.58A15.57,15.57,0,1,1,1817.9,1339,15.71,15.71,0,0,1,1802.33,1354.58Z" style="fill:#008bce"/><path d="M2007.43,1296.2v-25.48a25.39,25.39,0,0,0-19.11-24.77l-186-26.19-66.63-48.12c-20.53-16.63-90.4-19.91-116.94-19.91H1344.84a29.91,29.91,0,0,0-20.16,7.78l-59.33,59.57s-41.87-5.33-43.29,8.12l-35.7,69c-4.95.35-8.84,4.24-8.49,8.84v31.49a8.38,8.38,0,0,0,8.49,8.5h73.56a39.56,39.56,0,0,1-.71-6.37,65.16,65.16,0,0,1,65.11-65.11c36.09,0,65.46,29.37,65.46,65.11a39.53,39.53,0,0,1-.7,6.37h348.49a39.53,39.53,0,0,1-.7-6.37,65.24,65.24,0,0,1,65.46-65.11c36.09,0,65.46,29.37,65.46,65.11a38.46,38.46,0,0,1-.71,6.37h138.58a8.39,8.39,0,0,0,8.49-8.5v-33.61A6.71,6.71,0,0,0,2007.43,1296.2Zm-522.73-76.44H1301.4l38.49-42.46a15.24,15.24,0,0,1,9.91-3.89h134.9Zm27.25,0v-46.35h104.33c21.94,0,93.34,0,114.57,21.23l31.49,25.12Z" style="fill:#008bce"/><path d="M1324.68,1287a52,52,0,1,0,52,52A52.09,52.09,0,0,0,1324.68,1287Zm-.36,67.58a15.57,15.57,0,1,1,15.57-15.57A15.71,15.71,0,0,1,1324.32,1354.58Z" style="fill:#008bce"/><rect x="454.26" y="1473.11" width="514.26" height="434.12" style="fill:#fff"/><path d="M479.06,872.64s35.22,89.71,35.22,90.71c89.3,129.43,184.62,108.47,184.76,108.44h0C822.23,1070.79,886.48,879,885.8,876c0,0,0,0,0,0,22,0,33-27.89,31.08-28.11,0,0,0,0,0,0,39.73-161.14-20.91-133.06-23-131.56,0,0,0,0,0,0,8.94-44.21,1-88.42-7.52-118.88-.87-3.08,103.86,10.27,103,7.48C983.47,586,872.47,558,872.73,557.7c0,0,0,0,0,0,326.38-230.81-285-107.64-248.68-112.09,0,0-550.56-70.49-168.32,190.07,2,1.38-3.71,22.44-5.22,22.44-2.87,36.09,43.29,79.87-5.72,59.41C432.66,712.44,425.21,733,420.53,758,407.68,826.48,478.91,872.21,479.06,872.64Zm.47-81.37s-.41-21.39-.42-21.42c-.51-4.05-7.82-66.29,27.13-73.59h0c.08-1.6,15.25-19.55,85.83-12l0,0c.3-4.38,90,29.95,112.81,7.7a0,0,0,0,0,0,0c-3.7.92-64.39-6.86-60.08-30.2l0,0c4.76,3.08,76.83,25.58,99.38,21.07,1.51,0-39.09-21.05-28.64-34.61a0,0,0,0,1,0,0c1.89,4.71,84.37,52.66,102.4,43.64,4.52-1.51,49.7-18.07,60.25,31.62v0c-1.45,1.56-.08,44.12,0,46.57,0,0,0,0,0,0,1-2.68,22.84-58,34.6-33,4.52,0,13.55,117.46-30.11,122h0c-.47,1.26-77.67,206.8-194.29,197.3h0C576.92,1040.66,535.61,959.45,536,960c-3.15-6.57-28.09-37.41-50.57-106.24,0,0,0,0,0,0-3.77,1.46-41.87,7.61-53.44-71.09C431.94,782.68,438.61,661.36,479.53,791.27Z" style="fill:#008bce"/><path d="M1166.14,1936.77c-12.85-99.24-27.74-613.91-28.31-613.91-10.54-68-55.23-72.3-55.23-72.3s-223.91-77.31-228.93-78.31c-50.21-25.11-38.16-87.36-41.17-88.36,0,2-131.3,20.42-131.3,20.42,7.58,7.39,50.61,63.44,50.61,63.44l-37.72,65.54L781.28,1844,681.61,2018,580.4,1844l82.91-611-37.76-64.65s52.85-57.91,55.65-64c0,0-131.29-18.39-133.78-20.42,0,0,5,79.32-53.22,92.37,2,0-209.85,71.29-209.85,71.29s-51.21,4-59.25,69.28c.38.38-100.35,221.19-149.32,403.53L47.16,1846.13c-7.79,60.1,160.8,90,160.8,90-11.66,86.91,64.48,143,158.78,144.36l31.57.46h641.07C1116.49,2081,1176,2013.24,1166.14,1936.77Zm-144-446H861.6l.58-33.94,13,.09V1426.6c0-2.31,4.12-3.79,8-4.44v-5.65c0-2.69-1.58-3.85,3.78-3.85s3.8,1.16,3.8,3.85v5.67c3.81.66,7.88,2.13,7.88,4.42v30.52l101.4.7a22,22,0,0,1,22.17,22Z" style="fill:#008bce"/><g id="5bc97e83-ecc0-4620-8207-40b05aa2288f" data-name="clip board"><rect x="212.28" y="1558.95" width="315.29" height="409.05" rx="12" ry="12" transform="translate(-636.6 268.95) rotate(-22.11)" style="fill:#fff"/><path d="M410.53,1715A59.68,59.68,0,1,0,310.31,1776h0a59.82,59.82,0,0,0,13.43,11.09l72.47,59.79,15.33-92.8a59.67,59.67,0,0,0,2.8-16.94h0A59.41,59.41,0,0,0,410.53,1715Zm-48.21,41.43a24.87,24.87,0,1,1,14.56-32A24.87,24.87,0,0,1,362.32,1756.46Z" style="fill:#008bce;opacity:0.45"/></g><path d="M455.26,637.77s363.51-80.32,430.29-75.87l-7-4.26,19.15-16.88L421.86,614Z" style="fill:#fff"/></svg>