<?xml version="1.0" encoding="utf-8"?>
<!-- Generator: Adobe Illustrator 22.1.0, SVG Export Plug-In . SVG Version: 6.00 Build 0)  -->
<svg version="1.1" id="Layer_1" xmlns="http://www.w3.org/2000/svg" xmlns:xlink="http://www.w3.org/1999/xlink" x="0px" y="0px"
	 viewBox="0 0 2144 2144" style="enable-background:new 0 0 2144 2144;" xml:space="preserve">
<style type="text/css">
	.st0{fill:#FFFFFF;}
	.st1{fill:#E6E6E6;}
	.st2{fill:#008BCE;}
</style>
<title>cloud-servers</title>
<path class="st0" d="M79.2,5h1987.6c36.6,0,66.2,29.6,66.2,66.2v1998.6c0,36.6-29.6,66.2-66.2,66.2H79.2
	c-36.6,0-66.2-29.6-66.2-66.2V71.2C13,34.6,42.6,5,79.2,5z"/>
<path class="st1" d="M2012.6,2035.8H294c-130.7,0-236.6-105.9-236.6-236.6V150.9c0-4.3,3.5-7.7,7.7-7.7l1721.5-2.7
	c146.8-0.3,266,118.7,266,265.5v1589.7C2052.6,2017.9,2034.7,2035.8,2012.6,2035.8z"/>
<rect x="139.2" y="1780.3" class="st0" width="1060.6" height="325.2"/>
<path class="st2" d="M105.1,1740v395h1130.6v-395H105.1z M1167.6,2066.9H182.2v-258.9h985.3V2066.9z"/>
<circle class="st2" cx="320.7" cy="1937.5" r="70.4"/>
<rect x="784.7" y="1892.8" class="st2" width="42.4" height="42.4"/>
<rect x="842.2" y="1892.8" class="st2" width="42.4" height="42.4"/>
<rect x="901.2" y="1892.8" class="st2" width="42.4" height="42.4"/>
<rect x="961.7" y="1892.8" class="st2" width="42.4" height="42.4"/>
<rect x="1022.3" y="1892.8" class="st2" width="42.4" height="42.4"/>
<rect x="784.7" y="1951.9" class="st2" width="42.4" height="42.4"/>
<rect x="842.2" y="1951.9" class="st2" width="42.4" height="42.4"/>
<rect x="901.2" y="1951.9" class="st2" width="42.4" height="42.4"/>
<rect x="961.7" y="1951.9" class="st2" width="42.4" height="42.4"/>
<rect x="1022.3" y="1951.9" class="st2" width="42.4" height="42.4"/>
<rect x="139.2" y="1349" class="st0" width="1060.6" height="325.2"/>
<path class="st2" d="M105.1,1310.1v395h1130.6v-395H105.1z M1167.6,1637H182.2v-258.8h985.3L1167.6,1637z"/>
<circle class="st2" cx="320.7" cy="1507.6" r="70.4"/>
<rect x="784.7" y="1463" class="st2" width="42.4" height="42.4"/>
<rect x="842.2" y="1463" class="st2" width="42.4" height="42.4"/>
<rect x="901.2" y="1463" class="st2" width="42.4" height="42.4"/>
<rect x="961.7" y="1463" class="st2" width="42.4" height="42.4"/>
<rect x="1022.3" y="1463" class="st2" width="42.4" height="42.4"/>
<rect x="784.7" y="1522" class="st2" width="42.4" height="42.4"/>
<rect x="842.2" y="1522" class="st2" width="42.4" height="42.4"/>
<rect x="901.2" y="1522" class="st2" width="42.4" height="42.4"/>
<rect x="961.7" y="1522" class="st2" width="42.4" height="42.4"/>
<rect x="1022.3" y="1522" class="st2" width="42.4" height="42.4"/>
<path class="st0" d="M1200,694.8c0,80.9,0.3,113.6-76.8,126.8c-9,1.5-127.3,25.2-136.8,25.2c-90.4,0-113.7-61.7-113.7-152
	c0.1-90.4,73.4-163.6,163.7-163.5C1126.8,531.3,1199.9,604.5,1200,694.8L1200,694.8z"/>
<path class="st0" d="M1797.7,464.3c0,186.8-151.5,338.3-338.3,338.3s-315.2-152.9-338.3-338.3C1089.5,211.2,1272.6,126,1459.4,126
	c67.9,0,98,77.1,151,111.5C1703.1,297.9,1797.7,345.4,1797.7,464.3z"/>
<path class="st2" d="M1365.2,532.7c-44.6,0-80.8,36.1-80.9,80.8c0,44.6,36.1,80.8,80.8,80.9c44.6,0,80.8-36.1,80.9-80.8c0,0,0,0,0,0
	C1446,568.9,1409.8,532.7,1365.2,532.7z M1365.2,656.6c-23.8,0-43.1-19.3-43.1-43.1s19.3-43.1,43.1-43.1s43.1,19.3,43.1,43.1
	c0,0,0,0,0,0C1408.3,637.3,1389,656.6,1365.2,656.6C1365.2,656.6,1365.2,656.6,1365.2,656.6L1365.2,656.6z"/>
<path class="st2" d="M1605.6,357.4c-44.6,0-80.8,36.2-80.8,80.8s36.2,80.8,80.8,80.8s80.8-36.2,80.8-80.8c0,0,0,0,0,0
	C1686.4,393.6,1650.2,357.4,1605.6,357.4L1605.6,357.4z M1605.6,481.3c-23.8,0-43.1-19.3-43.1-43.1s19.3-43.1,43.1-43.1
	c23.8,0,43.1,19.3,43.1,43.1l0,0C1648.7,462,1629.4,481.3,1605.6,481.3z"/>
<path class="st2" d="M1337.7,237.3c-44.6,0-80.8,36.2-80.8,80.8s36.2,80.8,80.8,80.8s80.8-36.2,80.8-80.8c0,0,0,0,0,0
	C1418.5,273.4,1382.3,237.3,1337.7,237.3z M1337.7,361.2c-23.8,0-43.1-19.3-43.1-43.1s19.3-43.1,43.1-43.1
	c23.8,0,43.1,19.3,43.1,43.1l0,0C1380.8,341.9,1361.5,361.2,1337.7,361.2z"/>
<path class="st2" d="M1925.2,398c-1.8,0-3.7,0.1-5.5,0.1c26.4-91.7-26.6-187.4-118.3-213.7c-54.6-15.7-113.5-3.5-157.4,32.6
	C1578.2,91,1446.3,5,1294.3,5C1076.6,5,900,181.5,900,399.3c0,0.6,0,1.2,0,1.9c-12-2.1-24.1-3.1-36.3-3.2c-118.2,0-214,95.8-214,214
	c0,71.9,36,138.9,96,178.5c20.7,47.5,67.5,78.1,119.3,78.2c27,0,74.2-8.2,122.7-22.2V736h-40.8l108.4-187.8L1163.6,736h-40.8v85.1
	h20.9c10.9,22.8,84.2,40.3,173,40.3c85,0,155.8-16.1,171.2-37.5l-59,133.3l-54.7-28.4l-8.1,238.9l225.8-128.4l-55.8-33.7l92.4-146
	c26.2,6,53.1,9,80,8.9c69.2,0,130.4-18.8,168.2-47.6h2.4c30.3,6.7,61.7,6.7,92,0h0.3V821c95.9-21.2,167.7-106.7,167.7-209
	C2139.2,493.9,2043.4,398,1925.2,398z M1200.4,296.4h23.1c3-16.1,9.5-31.4,18.9-44.8l-19.8-19.8l30.5-30.5l20.2,20.2
	c13.4-9,28.6-15,44.5-17.8v-23.4h43.1v24c15.8,3.2,30.7,9.7,43.8,19l16-16l30.5,30.5l-16.5,16.5c7.8,11.7,13.3,24.8,16.3,38.6h26
	v43.1h-24.6c-2.6,16.7-8.8,32.6-18.1,46.6l16.9,16.9l-30.5,30.5l-16.5-16.5c-13,9.1-27.8,15.5-43.3,18.6v23.7h-43.1v-23.1
	c-17.7-3.1-34.4-10.2-48.9-20.9l-15.8,15.8l-30.5-30.4l16.8-16.8c-7.9-12.4-13.3-26.2-16-40.6h-23.1L1200.4,296.4z M1504.5,631.3
	H1480c-2.6,16.7-8.8,32.6-18.1,46.6l16.9,16.9l-30.5,30.5l-16.5-16.5c-13,9.1-27.8,15.5-43.3,18.6V751h-43.1v-23.1
	c-17.7-3.1-34.4-10.2-48.9-20.8l-15.8,15.8l-30.5-30.5l16.8-16.8c-7.9-12.4-13.3-26.2-16-40.6h-23v-43.1h23.1
	c3-16.1,9.5-31.4,18.9-44.8l-19.8-19.8l30.5-30.5l20.2,20.2c13.4-9,28.6-15,44.5-17.8v-23.4h43.1v24c15.8,3.2,30.7,9.7,43.8,19
	l16-16l30.5,30.5l-16.5,16.5c7.8,11.7,13.3,24.8,16.3,38.5h26V631.3z M1744.9,456.1h-24.6c-2.6,16.7-8.8,32.6-18.1,46.6l16.9,16.9
	l-30.5,30.5l-16.5-16.5c-13,9.1-27.8,15.5-43.3,18.6v23.7h-43.1v-23.1c-17.7-3.1-34.4-10.2-48.9-20.8l-15.8,15.8l-30.5-30.5
	l16.8-16.8c-7.9-12.4-13.3-26.2-16-40.6h-23.1v-43.1h23.1c3.1-16.1,9.5-31.4,18.9-44.8l-19.8-19.8l30.5-30.5l20.2,20.2
	c13.4-9,28.6-15,44.5-17.8v-23.4h43.1v24c15.8,3.2,30.7,9.7,43.9,19l16-16l30.5,30.5l-16.5,16.5c7.8,11.8,13.3,24.8,16.3,38.6h26
	L1744.9,456.1z"/>
</svg>
