<svg xmlns="http://www.w3.org/2000/svg" viewBox="0 0 2144 2144"><defs><style>.a{fill:#ccc;}.b{fill:#fff;}.c{fill:#29abe2;}</style></defs><title>ccloud-servers</title><path class="a" d="M2095,2126H192.92A163.92,163.92,0,0,1,29,1962.08V28l1732.32-3.35C1945.5,24.29,2095,173.5,2095,357.68Z"/><path class="b" d="M1550,490.5c0,177.56-143.94,321.5-321.5,321.5S929,666.69,907,490.5C877,250,1050.94,169,1228.5,169c64.58,0,93.12,73.23,143.5,106C1460.14,332.34,1550,377.52,1550,490.5Z"/><path class="b" d="M982,709.5c0,76.86.28,107.94-73,120.5-8.6,1.47-121,24-130,24-85.88,0-108-58.62-108-144.5a155.5,155.5,0,0,1,311,0Z"/><rect class="b" x="739" y="1441" width="900" height="276"/><rect class="b" x="739" y="1807" width="900" height="276"/><path class="c" d="M710,1408v335.23h959.45V1408Zm901.65,277.43H775.5V1465.8h836.15Z"/><circle class="c" cx="893.03" cy="1575.61" r="59.72"/><rect class="c" x="1286.7" y="1537.72" width="35.96" height="35.96"/><rect class="c" x="1335.5" y="1537.72" width="35.96" height="35.96"/><rect class="c" x="1385.6" y="1537.72" width="35.96" height="35.96"/><rect class="c" x="1436.97" y="1537.72" width="35.96" height="35.96"/><rect class="c" x="1488.35" y="1537.72" width="35.96" height="35.96"/><rect class="c" x="1286.7" y="1587.82" width="35.96" height="35.96"/><rect class="c" x="1335.5" y="1587.82" width="35.96" height="35.96"/><rect class="c" x="1385.6" y="1587.82" width="35.96" height="35.96"/><rect class="c" x="1436.97" y="1587.82" width="35.96" height="35.96"/><rect class="c" x="1488.35" y="1587.82" width="35.96" height="35.96"/><path class="c" d="M710,1772.77V2108h959.45V1772.77Zm901.65,277.43H775.5V1830.57h836.15Z"/><circle class="c" cx="893.03" cy="1940.39" r="59.72"/><rect class="c" x="1286.7" y="1902.5" width="35.96" height="35.96"/><rect class="c" x="1335.5" y="1902.5" width="35.96" height="35.96"/><rect class="c" x="1385.6" y="1902.5" width="35.96" height="35.96"/><rect class="c" x="1436.97" y="1902.5" width="35.96" height="35.96"/><rect class="c" x="1488.35" y="1902.5" width="35.96" height="35.96"/><rect class="c" x="1286.7" y="1952.59" width="35.96" height="35.96"/><rect class="c" x="1335.5" y="1952.59" width="35.96" height="35.96"/><rect class="c" x="1385.6" y="1952.59" width="35.96" height="35.96"/><rect class="c" x="1436.97" y="1952.59" width="35.96" height="35.96"/><rect class="c" x="1488.35" y="1952.59" width="35.96" height="35.96"/><path class="c" d="M1139,555.46a76.81,76.81,0,1,0,76.8,76.81A76.8,76.8,0,0,0,1139,555.46Zm0,117.77a41,41,0,1,1,41-41A41,41,0,0,1,1139,673.23Z"/><path class="c" d="M1367.39,388.92a76.81,76.81,0,1,0,76.81,76.81A76.81,76.81,0,0,0,1367.39,388.92Zm0,117.77a41,41,0,1,1,41-41A41,41,0,0,1,1367.39,506.69Z"/><path class="c" d="M1112.83,274.73a76.8,76.8,0,1,0,76.8,76.8A76.8,76.8,0,0,0,1112.83,274.73Zm0,117.76a41,41,0,1,1,41-41A41,41,0,0,1,1112.83,392.49Z"/><path class="c" d="M1671.16,427.52c-1.75,0-3.47.09-5.21.13A164.15,164.15,0,0,0,1404,255.5C1341.41,135.75,1216.07,54,1071.62,54,864.67,54,696.91,221.76,696.91,428.71c0,.6,0,1.19,0,1.79a204.41,204.41,0,0,0-34.52-3C550.07,427.52,459,518.59,459,630.93a203.16,203.16,0,0,0,91.22,169.65A123.72,123.72,0,0,0,663.6,874.79c25.62,0,70.49-7.79,116.58-21.13v-105H741.4l103-178.43,103,178.43H908.65v80.89h348.24v222.89l-68.77-.3L1320.59,1284l134.53-230.63-65.76-.3V866.33a337.49,337.49,0,0,0,76,8.46c65.74,0,123.94-17.82,159.84-45.2h2.25a203,203,0,0,0,87.41,0h.31v-.07c91.17-20.12,159.4-101.36,159.4-198.59C1874.57,518.59,1783.5,427.52,1671.16,427.52Zm-666.82-55.65H982.4v-41h22a109.9,109.9,0,0,1,18-42.6l-18.85-18.85,29-29,19.17,19.17a109.78,109.78,0,0,1,42.27-16.89V220.54h41v22.83a109.56,109.56,0,0,1,41.68,18l15.22-15.22,29,29L1205,290.86a109.74,109.74,0,0,1,15.54,36.63h24.67v41h-23.33a109.66,109.66,0,0,1-17.22,44.26l16,16-29,29L1176.05,442a109.91,109.91,0,0,1-41.18,17.69v22.54h-41v-22a109.83,109.83,0,0,1-46.45-19.82l-15,15-29-29,16-16A109.58,109.58,0,0,1,1004.34,371.87Zm267.07,277.32h-23.33a109.71,109.71,0,0,1-17.22,44.27l16,16-29,29-15.72-15.72A109.75,109.75,0,0,1,1161,740.43V763h-41V741a109.69,109.69,0,0,1-46.45-19.81l-15,15-29-29,16-16a109.56,109.56,0,0,1-15.17-38.62h-21.94v-41h22a109.85,109.85,0,0,1,18-42.59l-18.85-18.85,29-29,19.17,19.17a109.77,109.77,0,0,1,42.27-16.88V501.27h41V524.1a109.87,109.87,0,0,1,41.68,18l15.22-15.22,29,29-15.7,15.7a109.88,109.88,0,0,1,15.54,36.64h24.67Zm228.4-166.54h-23.34a109.78,109.78,0,0,1-17.21,44.27l16,16-29,29-15.72-15.72a109.78,109.78,0,0,1-41.17,17.69v22.55h-41v-22A109.93,109.93,0,0,1,1302,554.66l-15,15-29-29,16-16a109.77,109.77,0,0,1-15.17-38.61H1237v-41h22a109.75,109.75,0,0,1,18-42.6l-18.85-18.85,29-29,19.17,19.17A109.67,109.67,0,0,1,1348.48,357V334.74h41v22.82a109.89,109.89,0,0,1,41.67,18l15.22-15.21,29,29-15.71,15.7a109.67,109.67,0,0,1,15.54,36.64h24.68Z"/></svg>