<?xml version="1.0" encoding="utf-8"?>
<!-- Generator: Adobe Illustrator 22.1.0, SVG Export Plug-In . SVG Version: 6.00 Build 0)  -->
<svg version="1.1" id="a764e9a9-f587-41bf-9ad8-9c92838344c3"
	 xmlns="http://www.w3.org/2000/svg" xmlns:xlink="http://www.w3.org/1999/xlink" x="0px" y="0px" viewBox="0 0 2144 2144"
	 style="enable-background:new 0 0 2144 2144;" xml:space="preserve">
<style type="text/css">
	.st0{fill:#FFFFFF;}
	.st1{opacity:0.25;fill:#5C7782;enable-background:new    ;}
	.st2{fill:#008BCE;}
</style>
<title>consulting</title>
<rect x="1182.7" y="218.4" class="st0" width="191.3" height="298.3"/>
<path class="st0" d="M1771,565.8c0,24.8-20,44.9-38.8,44.9s-34.1-20.1-34.1-44.9s6.2-50,34.1-50C1755.6,515.7,1771,540.9,1771,565.8
	z"/>
<path class="st0" d="M1660,447.8l-142.4,0.4c-1.2,0-2.1-1-2.1-2.2l0,0v-10.8c0-10.4,8.5-18.7,18.9-18.7h125.3c1.2,0,2.1,0.9,2.2,2.1
	l0.4,27c0.1,1.2-0.7,2.2-1.9,2.4C1660.2,447.8,1660.2,447.8,1660,447.8z"/>
<g id="circles">
	<path class="st1" d="M1062.4,21.4c-552.1,0-999.7,461.7-999.7,1031.2c0,519.8,354.8,947.3,839.2,1018.3c5.9,0.9,5.9,0.9,11.8,1.7
		l139.2,235l140.2-232.3c6.7-0.7-6.7,0.8,0,0c494.5-61.9,869-495.6,869-1022.7C2062.1,483.1,1614.5,21.4,1062.4,21.4z
		 M1062.4,2351.4L886.5,2075c0,0,34-213,22.6-215.3c-370.9-78.4-649.9-417.1-649.9-822.9c0-463.9,364.6-840,814.3-840
		s814.3,376.1,814.3,840c0,429-311.8,782.9-714.4,833.7c-10,1.3,60.5,201,60.5,201L1062.4,2351.4z"/>
	<circle class="st1" cx="1088.7" cy="1003.2" r="514.6"/>
</g>
<path class="st0" d="M1650.4,448.3H1629c-6.6,0-12-5.4-12-12V430c0-6.6,5.4-12,12-12h21.4c6.6,0,12,5.4,12,12v6.3
	C1662.4,442.9,1657,448.3,1650.4,448.3z"/>
<rect x="1443.9" y="50.7" class="st0" width="254.2" height="212.1"/>
<polygon class="st0" points="1529.9,1885.7 1468.9,1868.7 1507.8,1746.9 1569.9,1770 "/>
<path class="st0" d="M1149.7,1946.9c0,0-854.6,33.7-854.6,27.1L541.9,885.4c0-6.6,5.4-12,12-12L695.6,863c6.6,0,453,353.2,453,359.8
	l13.1,712.1C1161.7,1941.5,1156.3,1946.9,1149.7,1946.9z"/>
<g>
	<path class="st2" d="M1282.9,1945.1c-16.7-128.5-36-795.1-36.6-795.1c-13.7-88.1-71.6-93.6-71.6-93.6S884.7,956.3,878.2,955
		c-65.1-32.5-49.4-113.1-53.3-114.5c0,2.6-170.1,26.5-170.1,26.5c9.8,9.6,65.5,82.2,65.5,82.2l-48.9,84.9l112.9,681.6l-129.1,225.4
		l-131-225.4l107.4-682.2l-48.9-83.7c0,0,68.5-75,72-82.9c0,0-170.1-23.9-173.3-26.5c0,0,6.5,102.7-68.9,119.6
		c2.6,0-271.8,92.2-271.8,92.2s-66.3,5.3-76.7,89.7c0.7,0.7-11.2,682.4-22.3,802.2c-11.2,121.7,83.5,185.2,205.7,187l40.9,0.6h830.4
		C1218.6,2131.8,1295.7,2044.2,1282.9,1945.1z M979.6,1299.3c0-6,4.9-11.1,11.1-11.1l0,0h4c5.9,0,10.8,4.8,10.8,10.8l0,0v12.3
		c0,1-0.8,1.8-1.8,1.8h-22.3c-1,0-1.8-0.8-1.8-1.8V1299.3z M979.6,1314.8h26.3v4.3h-26.3V1314.8z M955.7,1277.2v-4.2
		c0-1.5-0.2-2.7,2.7-2.7c3.2,0,2.7,1.3,2.7,2.7v4.2c3.5,1.1,5.9,4.5,5.9,8.2h-17.3C949.8,1281.6,952.2,1278.3,955.7,1277.2
		L955.7,1277.2z M949.8,1287h17.5v5.4h-17.5V1287z M1096.4,1367.5h-208l0.8-43.9l16.8,0.1v-39.3c0-3,5.4-4.9,10.4-5.8v-7.3
		c0-3.5-2.1-5,4.9-5s4.9,1.5,4.9,5v7.3c4.9,0.8,10.2,2.7,10.2,5.8v39.5l13.5,0.1v-30.2h17.5v30.4l12.2,0.1v-2.2l13.1-0.3l13.1,0.3
		v2.4l61.9,0.5c15.8-0.1,28.6,12.6,28.8,28.3c0,0.1,0,0.1,0,0.2v14H1096.4z"/>
	<g>
		<path id="face-bkgd" class="st0" d="M967.3,429c0,27.4,0.3,66.2-14.6,101.2c-9.5,22-46.9,33.7-47.4,61.4
			c-0.8,46-42.8,75.9-60.4,98.7c-22.1,28.8-41.8,67.9-71.9,85.8c-38.4,22.9-52.4,35.2-98.8,35.2c-48.7,0-105.1-24.5-144.8-49.4
			c-39.7-25-59.6-45.3-84-88.2c-18.8-33.1-22.4-74.9-40.2-97.6c-4.9-6.3,3.5-21.8-7.3-22.3c-16.7-0.8-40.4-22.9-44.6-28.6
			c-38.1-52.4-16.8-96-21.3-131c-2.9-22.1,60.5-3.7,62.2-39.5c4.9-101.8,161.5-145.4,261.7-145.4c85.5,0,212.4,30.7,242.1,110.6
			C924.5,391.6,967.3,354.6,967.3,429z"/>
		<path class="st2" d="M393,566.9c0,0,45.7,116.2,45.7,117.4C554.3,852,677.8,824.8,678,824.8l0,0
			c159.6-1.3,242.8-249.7,241.9-253.6l0,0c28.4,0,42.8-36.1,40.3-36.4l0,0c51.5-208.6-27.1-172.3-29.8-170.4l0,0
			C951,262,902.2,159.9,903,159.1l0,0C839.3-13.6,520.1,38.4,561.8,41.2l0,0C411.3,76.6,373.4,231.7,362.8,260
			c-1.1,2.9-4.8,29.1-6.7,29.1c-3.8,46.7,56,103.4-7.4,76.9c-15.8-6.5-25.3,20.1-31.4,52.4C300.5,507.1,392.8,566.3,393,566.9z
			 M393.6,461.4l-0.6-27.7c-0.7-5.3-10-85.8,35.2-95.3l0,0c0.1-2.1,19.7-25.3,111.2-15.6l0,0c0.3-5.7,116.5,38.8,146.1,9.9l0,0
			c-4.8,1.1-83.4-8.9-77.8-39.1l0,0c6.2,4,99.4,33.1,128.7,27.3c1.9,0-50.7-27.3-37.1-44.9l0,0c2.4,6.2,109.2,68.3,132.6,56.5
			c5.8-1.9,64.4-23.4,78.1,41l0,0c-1.8,2.1-0.1,57.2,0,60.3l0,0c1.4-3.4,29.6-75.1,44.9-42.8c5.8,0,17.6,152.1-38.9,158l0,0
			c-0.6,1.6-100.6,267.9-251.7,255.6l0,0c-144.5-20.2-198-125.3-197.5-124.5c-4.1-8.6-36.4-48.4-65.5-137.5l0,0
			c-4.9,1.9-54.2,9.8-69.2-92.1C331.9,450.4,340.6,293.2,393.6,461.4z"/>
	</g>
</g>
<rect x="1897.1" y="683" class="st2" width="60" height="60"/>
<rect x="1717.1" y="683" class="st2" width="60" height="60"/>
<rect x="1668.8" y="636" class="st0" width="375.6" height="244.2"/>
<ellipse transform="matrix(0.7071 -0.7071 0.7071 0.7071 -19.0032 1678.8728)" class="st0" cx="2017.1" cy="862.4" rx="100" ry="100"/>
<path class="st2" d="M1687.5,861.4l-0.4-1.9V653.2h330v60h30v-150h-45v15.1c0,16.6-13.4,30-30,30s-30-13.4-30-30c0,0,0,0,0-0.1
	v-15.1h-180v15.1c-0.4,16.6-14.1,29.7-30.6,29.3c-16.1-0.4-28.9-13.2-29.3-29.3v-15.1h-45v330h210v-30H1690
	C1688.8,863.1,1688.2,862.4,1687.5,861.4z"/>
<path class="st2" d="M2017.1,743.1c-66.3,0-119.9,53.7-119.9,119.9s53.7,120,119.9,120c66.3,0,119.9-53.7,119.9-119.9
	S2083.4,743.2,2017.1,743.1C2017.2,743.1,2017.2,743.1,2017.1,743.1z M2017.1,958.1c-52.4,0-95-42.6-95-95s42.6-95,95-95
	s95,42.6,95,95l0,0C2111.9,915.5,2069.5,957.9,2017.1,958.1z"/>
<rect x="1717.1" y="773.1" class="st2" width="60" height="60"/>
<rect x="1807" y="683" class="st2" width="60" height="60"/>
<rect x="1807" y="773.1" class="st2" width="60" height="60"/>
<path class="st2" d="M2056.1,803.1H1980c-4.4-0.1-8.4,2.7-9.6,7l-14.7,41.3v59.3c-0.3,3.6,2.6,6.7,6.2,7c0.3,0,0.5,0,0.8,0h7
	c3.6,0.3,6.7-2.6,7-6.2c0-0.3,0-0.5,0-0.8v-12.3h82.9v12.3c-0.3,3.6,2.6,6.7,6.2,7c0.3,0,0.5,0,0.8,0h6.9c3.6,0.3,6.7-2.6,7-6.2
	c0-0.3,0-0.5,0-0.8v-59.3l-14.7-41.3C2064.4,806,2060.5,803.2,2056.1,803.1z M1983.1,814.8h69.7l9.3,30h-88.4L1983.1,814.8z
	 M1980.7,884.5c-6.1,0-11-4.9-11-11s4.9-11,11-11s11,4.9,11,11C1991.6,879.4,1986.8,884.2,1980.7,884.5z M2055.4,884.5
	c-6.1,0-11-4.9-11-11s4.9-11,11-11s11,4.9,11,11S2061.5,884.4,2055.4,884.5z"/>
<path class="st2" d="M1732.2,593.1c8.3,0,14.9-6.6,14.9-14.9V578v-33.4c0.3-8.3-6.2-15.2-14.5-15.4c-8.3-0.3-15.2,6.2-15.4,14.5
	c0,0.3,0,0.6,0,0.9V578c0,8.3,6.6,14.9,14.9,14.9C1732,593.1,1732,593.1,1732.2,593.1z"/>
<path class="st2" d="M1972,593.1c8.3,0,14.9-6.6,15.1-14.8v-0.1v-33.4c0-8.3-6.7-15.1-14.9-15.1c-8.3,0-15.1,6.7-15.1,14.9l0,0V578
	C1957.1,586.3,1963.7,593.1,1972,593.1L1972,593.1z"/>
<path class="st2" d="M2131.3,1429.9l-35.5-35.5c-1.4-1.2-3.5-1.2-5,0l-120.1,120.1l2.2,38.2l38.2,2.2l120.2-120.1
	c1.4-1.2,1.5-3.3,0.3-4.7C2131.5,1430.1,2131.4,1430,2131.3,1429.9z M2093.6,1451.7l-19.6-19.6l20.1-20.1l19.6,19.6L2093.6,1451.7z"
	/>
<path class="st2" d="M2041.9,1407.1v-202.3c0.2-3.8-2.8-7-6.6-7.2c-0.2,0-0.4,0-0.6,0h-161.8c-0.8,0.8-1.8,1.3-3,1.5l-86.6,86.6
	c0,1.5-1.5,3-1.5,4.2v248.7c0,3,3,5.7,7.2,5.7h160.3l-1.5-43.4L2041.9,1407.1z M1956.3,1430.6h-137.5v-22.8h137.5V1430.6z
	 M1818.8,1382.5v-22.8H1937v22.8H1818.8z M1962.2,1286.2c-16.1-5.2-29-9.2-29-25.6c0-12.7,10.2-20.4,21.6-22.6v-15.1h14.6v15.1
	c13.2,2.5,21.6,11.9,21.6,24.8h-13.7c0-7.7-3.7-14.1-15.1-14.1c-9.9,0-15.1,5.7-15.1,11.6c0,8.4,7.7,9.9,19.4,13.7
	c19.6,6.2,26.3,13.4,26.3,27c0,11.6-8.4,20.4-23.1,22.3v14.9h-14.4v-15.1c-13.4-2.7-23.6-12.2-23.6-25.8h14.4
	c0,8.9,7.7,14.9,16.4,14.9c11.4,0,16.4-4.7,16.4-11.2C1978.7,1293.6,1975.9,1290.4,1962.2,1286.2z M1878.4,1222.1v72h-72
	L1878.4,1222.1z M1927.3,1478.8h-108.5V1456h108.5V1478.8z"/>
<path class="st2" d="M490.7,229.7c10,0,18.1-8.1,18.1-18.1s-8-18.1-18.1-18.1s-18.1,8-18.1,18.1l0,0
	C472.5,221.5,480.7,229.7,490.7,229.7z"/>
<path class="st2" d="M447.3,274.8H534c10.9-0.1,19.7-9,19.9-19.9v-86.5c-0.1-10.9-9-19.7-19.9-19.9h-86.7
	c-10.9,0.1-19.7,9-19.9,19.9V255C427.5,265.8,436.4,274.6,447.3,274.8z M439.5,201.6l13.9-0.9c0.8-2.6,1.8-5.2,3.1-7.6l-9.2-10.4
	l14.3-14.3l10.4,9.2c2.4-1.3,4.9-2.3,7.6-3.1l0.9-13.9h20.3l0.9,13.9c2.6,0.8,5.2,1.8,7.6,3.1l10.3-9.2l14.3,14.3l-9.2,10.4
	c1.3,2.4,2.3,4.9,3.1,7.6l13.9,0.9V222l-13.9,0.9c-0.8,2.6-1.8,5.2-3.1,7.6l9.2,10.3l-14.3,14.5l-10.3-9.2c-2.4,1.3-4.9,2.3-7.6,3.1
	l-0.9,13.7h-20.3l-0.9-13.9c-2.6-0.8-5.2-1.8-7.6-3.1l-10.4,9.2l-14.3-14.5l9.2-10.4c-1.3-2.4-2.3-4.9-3.1-7.6l-13.9-0.7
	L439.5,201.6z"/>
<polygon class="st2" points="1623.6,349.3 1554.1,349 1539.1,416.3 1638.9,416.3 "/>
<path class="st2" d="M1620.5,417l5.1,1.8h22.4c11.9,0,20.5,15,7.3,27.5c-0.4,0.4-1,0.6-1.6,0.6h-123.5c-7.7,0-14.1-6.2-14.1-14.1
	c0-0.9,0.1-1.9,0.3-2.8c1.5-6.7,7.4-11.3,14.3-11.3h22.4l4.5-1.8v-0.7h-26.3c-9.2,0-16.6,7.4-16.6,16.6v14c0,1.3,1,2.4,2.4,2.4l0,0
	h144.3c1.3,0,2.4-1,2.4-2.4l0,0v-13.4c0-9.5-7.7-17.1-17.1-17.1h-25.9L1620.5,417z"/>
<path class="st2" d="M1427.7,343h342.8c13.8,0,25.1-11.3,25.1-25.1V298h-367.8v45H1427.7z"/>
<path class="st2" d="M1762,21.6h-425.5c-18.6,0-33.7,15.2-33.7,33.7v127.5h114.6c5.6,0.1,10.3,4.8,10.4,10.4v88.3h367.8V55.3
	C1795.6,36.8,1780.5,21.7,1762,21.6z M1467.9,77.5c0-2.4,1.9-4.3,4.3-4.3h58.8c2.2-0.1,4.2,1.6,4.3,3.9c0,0.1,0,0.3,0,0.4v58.8
	c0.1,2.2-1.6,4.2-3.9,4.3c-0.1,0-0.3,0-0.4,0h-58.8c-2.2,0.1-4.2-1.6-4.3-3.9c0-0.1,0-0.3,0-0.4V77.5L1467.9,77.5z M1545.3,240.3
	c-0.1,3.6-3,6.4-6.5,6.5h-73.6c-3.6-0.1-6.4-3-6.5-6.5v-73.6c0.1-3.6,3-6.4,6.5-6.5h73.6c3.6,0.1,6.4,3,6.5,6.5V240.3z
	 M1629.6,210.2h-24.2v24.2H1592v-24.2h-24.2v-13.4h24.2v-24.2h13.4v24.2h24.2V210.2z M1641.6,143.6c0,3.6-2.7,6.4-6.2,6.5
	c-0.1,0-0.1,0-0.3,0h-73.6c-3.6-0.1-6.4-3-6.5-6.5V70c0.1-3.6,3-6.4,6.5-6.5h73.6c3.6,0.1,6.4,3,6.5,6.5V143.6z"/>
<path class="st2" d="M1243.6,244.4h70.9c2.8,0.1,5.1-2.1,5.2-4.8c0-0.1,0-0.3,0-0.4c-0.1-2.8-2.4-5.1-5.2-5.2h-70.9
	c-2.8,0-5.2,2.4-5.2,5.2S1240.6,244.4,1243.6,244.4z"/>
<path class="st0" d="M1366.3,561.1H1192c-6.6,0-12-5.4-12-12V230.4c0-6.6,5.4-12,12-12h174.3c6.6,0,12,5.4,12,12v318.8
	C1378.3,555.7,1372.9,561.1,1366.3,561.1z"/>
<path class="st2" d="M1373.7,209.7c-3.6-2.1-7.6-3.6-11.7-4.3c-1.3-0.4-2.8-0.4-4.3-0.4c-1.3,0-3-0.4-4.3-0.4h-148.8
	c-1.5,0-3,0.1-4.3,0.4c-1.3,0-3,0.4-4.2,0.4h-0.3c-4,0.7-8,2.2-11.6,4.3c-13.8,7.4-22.6,22-22.4,37.7v279.8
	c0,24.5,19.9,44.3,44.3,44.3h145.2c24.5,0,44.3-19.8,44.3-44.3v-280C1395.8,231.7,1387.3,217.3,1373.7,209.7z M1276.5,560
	c-8.6,0-15.6-7-15.6-15.6c0-0.6,0-1.2,0.1-1.8c1-8.5,8.6-14.6,17.1-13.8c8,0.7,14.1,7.4,14.1,15.6C1292.2,553,1285.1,560,1276.5,560
	z M1360.3,519.4h-160.8c-7,0-12.5-5.6-12.5-12.5l0,0v-272c0-4.5,2.5-8.3,6.5-10.4l0.3-0.1c1.3-0.4,2.7-0.9,4.2-0.9h162
	c1.3,0.1,2.8,0.4,4.2,0.9c0.1,0,0.1,0,0.3,0.1c4,1.9,6.4,5.9,6.5,10.4v273.7l0.4-5.5C1371.1,509.3,1366.4,519.4,1360.3,519.4z"/>
<path class="st2" d="M1249.1,336.3c-16.3,16.5-16.3,43.1,0,59.6l29.9,34.2l29.9-34.2c16.5-16.5,16.5-43.2,0-59.6
	S1265.6,319.9,1249.1,336.3z M1279,380c-8.2,0-14.7-6.5-14.7-14.7s6.5-14.7,14.7-14.7s14.7,6.5,14.7,14.7c0,8-6.4,14.6-14.4,14.7
	C1279.1,380,1279.1,380,1279,380z"/>
<polygon class="st0" points="1789.2,1819.6 1648.9,1755.2 1606.9,1772 1569.9,1770 1529.9,1898.4 1557,1961 "/>
<path class="st2" d="M1934.5,1887.5l-56.5-98.4c-4.5-7.8-14.5-10.5-22.4-6l-58.3,33.5c0,0,42.5,75.9,62.8,110.8
	c-15.4,23.8-62.7,71.6-191.3,119.7c0-1.2-41.8,17.2-33.5-12.2c3.5-2.4,76.8-47.8,76.8-47.8l-9.2-14.1l-85.9,56.5
	c0,0-39.6,11.4-25.5-15.7c12.1-6.3,100.8-60.7,100.8-60.7l-8.9-10.6l-95.3,57.7c0,0-31.2,2.4-15.1-25.7c3.5-2.4,91.6-50.2,91.6-50.2
	l-7.8-12.2l-85.4,47.5c0,0-22-4-8.1-21.8c8.2-3.7,51.5-27.8,51.5-27.8l-5.2-10.1l-59.1,32.9c0,0-20,31.8,11.4,34.7
	c-1.2,0-27.1,45.7,14.9,47.3c0,0-11.2,39.4,43.7,31.4c1.2-3.5,3.2,46.9,72.2,9.2c0.7-2.2,123.8-44.4,179.8-113.7l0,0v-0.1v0.1
	l56.1-32.3C1936.3,1904.7,1938.9,1895.1,1934.5,1887.5L1934.5,1887.5z M1869.2,1918.9l-53.6-93.3l50.9-29.3l53.6,93.3L1869.2,1918.9
	z"/>
<path class="st2" d="M1640,1766.3c22.9,11.8,115.9,38.2,117.1,40.5c18,22.5-15.3,21.2-15.3,21.2l-61.3-16.9l-10.4,20.4
	c-10.6,55.3-95.3,24.7-95.3,24.7v21.2c0,0,34.1,5.9,37.7,5.9c60,7.1,80.5-50.6,80.5-50.6s50.1,13.5,61.3,11.8
	c53.5-18.8,14.7-50.6,14.7-50.6s-75.3-23.5-91.8-32.9c-29.4-17.6-51.8-10.6-50.6-10.6c-15.9,15-35.6,13.3-45.6,11.5l-65.7-22
	c-7.3-2.5-15.3,1.5-17.7,8.8l0,0l-37.4,111.6c-2.5,7.3,1.5,15.3,8.8,17.7l0,0l65.7,22c0.1,0.1,0.3,0,0.3-0.1l0,0l40.5-121
	C1602.5,1791.8,1638.8,1767.5,1640,1766.3z M1528.9,1875.5c0,0.1-0.2,0.2-0.3,0.2l0,0l-55.2-18.5c-0.1,0-0.2-0.2-0.2-0.3l0,0
	l34-101.5c0-0.1,0.2-0.2,0.3-0.2l0,0l55.2,18.5c0.1,0,0.2,0.2,0.2,0.3l0,0L1528.9,1875.5z"/>
</svg>
