<?xml version="1.0" encoding="utf-8"?>
<!-- Generator: Adobe Illustrator 22.1.0, SVG Export Plug-In . SVG Version: 6.00 Build 0)  -->
<svg version="1.1" id="d402ea3c-7f25-4ff8-b05f-967c52d6ba12"
	 xmlns="http://www.w3.org/2000/svg" xmlns:xlink="http://www.w3.org/1999/xlink" x="0px" y="0px" viewBox="0 0 3536 2580"
	 style="enable-background:new 0 0 3536 2580;" xml:space="preserve">
<style type="text/css">
	.st0{opacity:0.25;fill:#BABCBE;enable-background:new    ;}
	.st1{fill:#FFFFFF;}
	.st2{fill:#008BCE;}
</style>
<path id="bkgd" class="st0" d="M255.6,141.6h3064.8c44.2,0,80,35.8,80,80v1975.1c0,44.2-35.8,80-80,80H255.6c-44.2,0-80-35.8-80-80
	V221.6C175.6,177.4,211.5,141.6,255.6,141.6z"/>
<g>
	<path class="st1" d="M2342.1,289.7H3025v459.7c0,79.4-64.3,143.7-143.7,143.7h-539.2V289.7z"/>
	<path class="st1" d="M2293.2,1072.5c0,0,9.4,67.8-120,64.8c-97.6-2.3-220.3-135.5-220.3-135.5l-19.4-566.1h371.9L2293.2,1072.5z"/>
	<path class="st2" d="M2579,615.4c-32.5,0-58.8,26.3-58.8,58.8c0,32.5,26.3,58.8,58.8,58.8c32.5,0,58.8-26.3,58.8-58.7
		C2637.8,641.7,2611.5,615.4,2579,615.4C2579,615.4,2579,615.4,2579,615.4z M2579,709.3c-19.4,0-35.1-15.7-35.1-35.1
		c0-19.4,15.7-35.1,35.1-35.1c19.4,0,35.1,15.7,35.1,35.1c0,0,0,0,0,0C2614.1,693.6,2598.4,709.3,2579,709.3z"/>
	<path class="st2" d="M2636.3,517c31.6,7.6,63.3-11.8,70.9-43.3s-11.8-63.3-43.3-70.9c-31.6-7.6-63.3,11.8-70.9,43.3c0,0,0,0,0,0
		C2585.4,477.6,2604.8,509.3,2636.3,517C2636.3,517,2636.3,517,2636.3,517z M2616,451.6c4.6-18.8,23.5-30.4,42.4-25.9
		c18.8,4.6,30.4,23.5,25.9,42.4s-23.5,30.4-42.4,25.9c0,0,0,0,0,0C2623.1,489.4,2611.5,470.4,2616,451.6L2616,451.6z"/>
	<path class="st2" d="M3210,551.9c-10.1-67.2-36.3-182.2-97-232.6c-69.2-57.4-137.3-35.2-212.8-24.1c-64.4-82.6-177.2-200-236.7-200
		c-35.3,0-68,12.6-95.5,34.4c-7.1,10.8-52.8,6.3-52.8,6.3c-91.5-93.3-160.7-105.1-244.6-111.7c-85.1-6.7-287.6,69.3-278.7,196.2
		c-104.7,3-118.5,60.8-151.9,97.3c-193.3-35.4-381.4,98.7-381.4,266.3c0,188.8,166.2,341.9,371.2,341.9c11,0,21.9-0.4,32.7-1.3
		c47.3,58.4,106.7,109.4,174.5,146.9V823h-97.9l191.4-331.5L2322,823h-97.8v310.1c65.5,8,131.9,2.8,195.3-15.4
		c38.4-10.9,74.6-21.3,108.6-31.2v231l-99.6-0.8l179.7,316.9l184.7-314l-101.3-0.8v-282.1c151.4-48.6,199.4-113.6,259.1-160.1
		c51.1,50.4,173.5,106.6,257.4,106.6c154,0,278.8-107.3,278.8-239.8C3486.8,614.8,3358.1,557.6,3210,551.9z M2529.9,449.8l6.7-27.5
		c0.7-3,3.7-4.8,6.8-4.1l27.2,6.5c4.5-9.2,10.6-17.6,17.9-24.9l-18-27c-1.7-2.6-1-6,1.5-7.8l27.9-18.6c2.6-1.7,6-1,7.8,1.6
		l19.6,29.3c8.9-2.6,18.2-3.7,27.5-3.5l5.9-24.4c0.7-3,3.8-4.8,6.8-4.1l28.6,6.9c3,0.7,4.8,3.8,4.1,6.8l-6,25
		c8.5,4.4,16.2,10.1,22.9,16.9l30.1-15.8c2.7-1.4,6.1-0.4,7.5,2.4l15.6,29.7c1.4,2.7,0.4,6.1-2.4,7.5l-28.2,14.8
		c2.9,10.2,4.1,20.8,3.4,31.3l27.8,6.7c3,0.7,4.8,3.8,4.1,6.8l-6.9,28.5c-0.7,3-3.7,4.8-6.8,4.1l-30-7.2
		c-3.9,6.8-8.6,13.1-14.1,18.7l16.6,24.9c1.7,2.6,1,6-1.6,7.8l-27.9,18.6c-2.6,1.7-6,1-7.8-1.5l-17.6-26.4c-8.5,2.6-17.4,4-26.3,4
		l-6.4,26.3c-0.7,3-3.7,4.8-6.7,4.1c0,0,0,0,0,0l-28.5-6.9c-3-0.7-4.8-3.7-4.1-6.8l6.2-25.7c-9.7-4.6-18.6-11-26.1-18.8l-30.5,16
		c-2.7,1.4-6.1,0.4-7.6-2.4l-15.6-29.7c-1.4-2.7-0.4-6.1,2.3-7.5l29-15.3c-2.4-8.5-3.5-17.3-3.3-26.1l-27.3-6.5
		C2531,456,2529.1,452.9,2529.9,449.8C2529.9,449.9,2529.9,449.9,2529.9,449.8L2529.9,449.8z M2704,701.1c0,3.1-2.5,5.6-5.6,5.6
		h-30.8c-2.2,7.5-5.3,14.7-9.3,21.4l21.9,20.2c2.2,2.1,2.4,5.6,0.3,7.9l-22.8,24.7c-2.1,2.3-5.6,2.4-7.9,0.3l-23.3-21.5
		c-7.7,4.6-16,8-24.7,10.1v27.1c0,3.1-2.5,5.6-5.6,5.6H2567c-3.1,0-5.6-2.5-5.6-5.6v-26.4c-10.6-2.2-20.6-6.3-29.7-12.1l-25.9,22.8
		c-2.3,2-5.8,1.8-7.9-0.5l-22.2-25.2c-2-2.3-1.8-5.8,0.5-7.9l24.7-21.7c-4.3-7.7-7.4-15.9-9.4-24.5h-28c-3.1,0-5.6-2.5-5.6-5.6
		v-28.4c0-3.1,2.5-5.6,5.6-5.6h28c2.2-10,6.1-19.6,11.6-28.3l-24-22.1c-2.2-2.1-2.4-5.6-0.3-7.9l22.8-24.7c2.1-2.2,5.6-2.4,7.9-0.3
		l25.9,23.9c8.1-4.6,16.8-7.9,25.9-9.8v-25.1c0-3.1,2.5-5.6,5.6-5.6h29.4c3.1,0,5.6,2.5,5.6,5.6v25.7c9.3,2.3,18.1,6,26.2,11
		l25.5-22.4c2.3-2,5.8-1.8,7.9,0.5l22.2,25.2c2,2.3,1.8,5.8-0.5,7.9l-24,21c5.2,9.2,8.8,19.2,10.6,29.6h28.6c3.1,0,5.6,2.5,5.6,5.6
		L2704,701.1z M2950.5,647.2l-31.7,0.2c-2.5,8.6-6.3,16.7-11.2,24.2l18.5,19.8c2.1,2.3,1.9,5.7-0.3,7.9l-21.5,20
		c-2.3,2.1-5.7,1.9-7.9-0.3l-18-19.3c-9.2,5.6-19.4,9.4-30,11.4l-3.4,34.3c-0.3,3.1-3.1,5.3-6.1,5l-33.4-3.3c-3.1-0.3-5.3-3-5-6.1
		l3.2-32.6c-8.4-2.7-16.3-6.6-23.6-11.6l-20.5,19.1c-2.3,2.1-5.7,1.9-7.9-0.3l-19.3-20.7c-2.1-2.3-1.9-5.7,0.3-7.9l20.5-19.1
		c-5.2-8.8-8.9-18.5-10.8-28.6l-32.5,0.2c-3.1,0-5.6-2.5-5.6-5.6l-0.2-33.6c0-3.1,2.5-5.6,5.6-5.6l35.2-0.2
		c2.8-8.9,6.9-17.3,12.3-24.9l-17.1-18.3c-2.1-2.3-1.9-5.7,0.3-7.9l21.5-20c2.3-2.1,5.7-1.9,7.9,0.3l17.5,18.8
		c8.3-4.7,17.3-8,26.7-9.8l3.4-33.8c0.3-3.1,3-5.3,6.1-5l33.4,3.3c3.1,0.3,5.3,3.1,5,6.1l-3.2,31.7c10.1,3.1,19.6,8,28,14.4
		l20.9-19.5c2.3-2.1,5.7-1.9,7.9,0.3l20,21.5c2.1,2.3,1.9,5.7-0.3,7.9l-22.5,21c3.6,7,6.2,14.4,7.9,22l29.9-0.2
		c3.1,0,5.6,2.5,5.6,5.6l0.2,33.6c0,3.1-2.5,5.6-5.6,5.7C2950.6,647.2,2950.5,647.2,2950.5,647.2L2950.5,647.2z"/>
	<path class="st2" d="M2787.4,572.1c-23.7,22.1-25,59.3-2.9,83.1c22.1,23.7,59.3,25,83.1,2.9c23.7-22.1,25-59.3,2.9-83
		C2848.3,551.3,2811.2,550,2787.4,572.1z M2851.4,640.8c-14.2,13.2-36.4,12.5-49.6-1.7c-13.2-14.2-12.5-36.4,1.7-49.6
		c14.2-13.2,36.4-12.5,49.6,1.7c0,0,0,0,0,0C2866.3,605.4,2865.6,627.5,2851.4,640.8L2851.4,640.8z"/>
</g>
<g>
	<rect x="280.3" y="1693.6" class="st1" width="447.2" height="685.8"/>
	<path class="st2" d="M1371,2276.6l-49.9-195.3h-174.9l-51.2,195.3L1044,2318c-4.7,24.6,5.6,32.7,29,32.7h336.3
		c0.7,0,23.8-11.8,16.6-32.7L1371,2276.6"/>
	<path class="st2" d="M840.5,1931.3h996.8v53.9c0,37.5-30.4,67.9-67.9,67.9H840.5V1931.3z"/>
	<path class="st2" d="M588.9,1762.4H422.2c-6.7,0-12.2,5.5-12.2,12.2c0,6.7,5.5,12.2,12.2,12.2h166.7c6.5,0.3,11.9-4.8,12.2-11.3
		c0-0.3,0-0.6,0-0.9C600.6,1768.1,595.4,1762.8,588.9,1762.4z"/>
	<path class="st2" d="M728.1,1657.7c-8.1-5.1-18.3-8.1-27.5-10.2c-3.3-0.9-6.7-1.2-10.2-1c-3,0-7.1-1-10.2-1H330.6
		c-3.4-0.2-6.8,0.2-10.2,1c-3.1,0-7.1,1-10.2,1c-9.7,1.7-19,5.1-27.5,10.2c-31.5,17.3-52.9,49.8-52.9,88.4v661.7
		c-0.2,55.4,44.4,100.4,99.8,100.6c0.3,0,0.6,0,0.8,0h348.7c55.4,0.3,100.4-44.4,100.7-99.8c0-0.3,0-0.6,0-0.9v-661.7
		C780,1709.4,760.2,1675.6,728.1,1657.7z M505.5,2477c-26.9,0-48.8-21.8-48.8-48.8l0,0c0-26.9,21.8-48.8,48.8-48.8
		s48.8,21.8,48.8,48.8C554.3,2455.2,532.5,2477,505.5,2477L505.5,2477z M703.7,2323.5c0.2,12.7-9.9,23.2-22.6,23.4
		c-0.3,0-0.5,0-0.8,0H330.6c-12.7,0.2-23.2-9.9-23.4-22.6c0-0.3,0-0.5,0-0.8v-577.4c0.1-9.6,5.6-18.2,14.2-22.4c2.9-1.2,6-1.8,9.2-2
		h348.7c3.1,0.2,6.2,0.9,9.1,2c8.6,4.1,14.2,12.8,14.2,22.4v577.4H703.7z"/>
	<path class="st2" d="M575.7,1955.6c-39.2-38.3-102-37.5-140.3,1.8c-37.6,38.5-37.6,100,0,138.5l70.1,80.3l70.1-80.3
		C614.3,2057.1,614.3,1994.3,575.7,1955.6z M505.5,2058.2c-19.1,0-34.6-15.5-34.6-34.6c0-19.1,15.5-34.6,34.6-34.6
		c19.1,0,34.6,15.5,34.6,34.6c0.2,18.9-15,34.4-34,34.6C505.9,2058.2,505.7,2058.2,505.5,2058.2z"/>
	<polygon class="st1" points="1837.3,1931.4 840.5,1933.5 840.5,1195.3 1837.3,1241.4 	"/>
	<path class="st2" d="M1746,1150H593.3c-50.4,0.1-91.3,40.9-91.4,91.4v345.5c0,0,22.2-0.1,113.9-1.3c0,0,108.9-7.6,166.4,33.7
		c57.5,41.3,55.9,119.3,57.4,208.9c0.9,25.8,0.9,25.8,0.9,25.8h996.8v-612.6C1837.2,1191,1796.4,1150.1,1746,1150z M1443.7,1520
		c0,17.4-14.1,31.5-31.5,31.5s-31.5-14.1-31.5-31.5c0-17.4,14.1-31.5,31.5-31.5C1429.6,1488.6,1443.6,1502.6,1443.7,1520z
		 M1282.5,1253H1428v205.7c-10.3-2.7-21.2-2.7-31.5,0v-98.9h-114V1253z M967,1437.2c-0.2-50.8,40.9-92.2,91.7-92.4
		c50.8-0.2,92.2,40.9,92.4,91.7c0.1,20.8-6.9,41.1-19.9,57.4l-72.2,90.7l-72.2-90.7C974,1477.8,967,1457.8,967,1437.2z M1059,1732.5
		c-17.4,0-31.5-14.1-31.5-31.5c0-17.4,14.1-31.5,31.5-31.5c17.4,0,31.5,14.1,31.5,31.5c0,0,0,0,0,0c0.1,17.3-14,31.4-31.3,31.5
		C1059.2,1732.5,1059.1,1732.5,1059,1732.5L1059,1732.5z M1398.5,1717.5h-278.2c2.7-10.3,2.7-21.2,0-31.5h278.2
		c16.3-0.4,29.1-13.9,28.7-30.2c-0.4-15.7-13-28.3-28.7-28.7H1223c-33.8,0-61.2-27.5-61.2-61.3c0-33.8,27.4-61.2,61.2-61.2h128
		c-2.7,10.3-2.7,21.2,0,31.5h-128c-16.3,0-29.4,13.2-29.4,29.4c0,16.3,13.2,29.4,29.4,29.4h175.6c33.8,0.6,60.8,28.5,60.2,62.3
		C1458.1,1690.3,1431.5,1716.9,1398.5,1717.5L1398.5,1717.5z"/>
	<path class="st2" d="M1080.3,1437.2c0-11.7-9.5-21.2-21.2-21.2s-21.2,9.5-21.2,21.2c0,11.7,9.5,21.2,21.2,21.2h0
		C1070.7,1458.3,1080.2,1448.8,1080.3,1437.2z"/>
</g>
</svg>
