<svg xmlns="http://www.w3.org/2000/svg" viewBox="0 0 2144 2144"><defs><style>.a{fill:#e6e6e6;}.b{fill:#fff;}.c{fill:#008bce;}</style></defs><title>driver-mobile-app-medical</title><path class="a" d="M184.07,0H1282.45a858.47,858.47,0,0,1,858.47,858.47V1956.84a184.07,184.07,0,0,1-184.07,184.07H184.07A184.07,184.07,0,0,1,0,1956.84V184.07A184.07,184.07,0,0,1,184.07,0Z"/><circle class="b" cx="1963.13" cy="1035" r="27"/><circle class="b" cx="1485.12" cy="1035" r="27.75"/><path class="c" d="M1963.13,981.75a52,52,0,1,0,52,52,52.1,52.1,0,0,0-52-52m0,67.58a15.57,15.57,0,1,1,15.57-15.56,15.7,15.7,0,0,1-15.57,15.56"/><path class="b" d="M2059,990V965c0-11.68-7.79-71.94-19.11-74.77L1958,875l-68-123-482.31-6a24.25,24.25,0,0,0-24,20.5c-9.22,58.78-35.23,223.74-35.23,223.74-5,.36-8.84,4.24-8.49,8.84v31.44a8.37,8.37,0,0,0,8.49,8.48H1422a38.22,38.22,0,0,1-.71-6.36,65.1,65.1,0,0,1,65.08-65c36.08,0,65.44,29.33,65.44,65a38.22,38.22,0,0,1-.71,6.36h348.38a39.29,39.29,0,0,1-.7-6.36c0-36,29.36-65,65.44-65s65.44,29.33,65.44,65a39.31,39.31,0,0,1-.71,6.36h28.53a8.38,8.38,0,0,0,8.49-8.48V996.67a6.71,6.71,0,0,0-6.72-6.72M1422.1,767"/><path class="c" d="M2059,990V965c0-11.68-7.79-71.94-19.11-74.77L1958,875l-68-123-482.31-6a24.25,24.25,0,0,0-24,20.5c-9.22,58.78-35.23,223.74-35.23,223.74-5,.36-8.84,4.24-8.49,8.84v31.44a8.37,8.37,0,0,0,8.49,8.48H1422a38.22,38.22,0,0,1-.71-6.36,65.1,65.1,0,0,1,65.08-65c36.08,0,65.44,29.33,65.44,65a38.22,38.22,0,0,1-.71,6.36h348.38a39.29,39.29,0,0,1-.7-6.36c0-36,29.36-65,65.44-65s65.44,29.33,65.44,65a39.31,39.31,0,0,1-.71,6.36h28.53a8.38,8.38,0,0,0,8.49-8.48V996.67a6.71,6.71,0,0,0-6.72-6.72M1552,883H1392l20.27-112.14a15.08,15.08,0,0,1,9.83-3.86l129.9,3Zm222,0V770l108,1,56.48,112Z"/><path class="c" d="M1485.47,981.75a52,52,0,1,0,52,52,52.09,52.09,0,0,0-52-52m-.35,67.58a15.57,15.57,0,1,1,15.57-15.56,15.7,15.7,0,0,1-15.57,15.56"/><rect class="b" x="933.62" y="1307.84" width="270.71" height="230.86"/><path class="b" d="M560.72,489.56s-44.6,56.87-42.19,85.41c-1.17,1.31-7-38.83-44.53-25.79-.6.92-31.64,138.43,57.42,161.87,0-1.17,50.39,230.87,250.79,237.9,1.17,1.17,148.83-9.38,215.63-219.15,2.34-1.17,55.08-36.33,52.73-113.67,0-1.17,8.21-107.82-46.87-51.57,1.17-1.17-14.06-90.23-14.06-90.23l-84.38-46.88Z"/><path class="c" d="M529.15,725.22s41.28,105.14,41.28,106.31C675.08,983.21,786.77,958.65,786.94,958.61h0c144.36-1.17,219.65-225.92,218.87-229.43a0,0,0,0,1,0,0c25.76,0,38.69-32.67,36.42-32.94l0,0c46.58-188.88-24.54-155.91-27-154.16,0,0,0,0,0,0,10.48-51.81,1.22-103.62-8.81-139.32-1-3.61,121.71,12,120.7,8.77-6.85-22.11-136.93-55-136.62-55.29v0C1373,85.64,656.47,230,699.08,224.77c0,0-645.21-82.61-197.26,222.74,2.37,1.61-4.35,26.3-6.11,26.3-3.37,42.29,50.72,93.6-6.72,69.62-14.22-5.94-22.95,18.12-28.44,47.4-15.05,80.3,68.43,133.89,68.6,134.39m.55-95.87s-.48-25.06-.49-25.09c-.6-4.75-9.17-77.69,31.78-86.24l0,0c.1-1.86,17.87-22.9,100.59-14.11l0,0c.34-5.13,105.46,35.1,132.2,9a0,0,0,0,0,0,0c-4.32,1.08-75.46-8-70.4-35.4l0,0c5.54,3.6,90,30,116.46,24.7,1.76,0-45.81-24.67-33.56-40.56h0c2.23,5.54,98.88,61.71,120,51.15,5.29-1.77,58.24-21.18,70.6,37v0c-1.7,1.86-.09,51.8,0,54.59h0c1.2-3.08,26.77-68,40.56-38.72,5.29,0,15.88,137.64-35.29,143h0c-.55,1.47-91,242.35-227.68,231.21h0C643.84,921.62,595.42,826.45,595.85,827.14c-3.69-7.7-32.92-43.84-59.26-124.5l0,0c-4.42,1.71-49.06,8.91-62.62-83.3,0,0,7.81-142.21,55.76,10"/><path class="b" d="M501.26,449.45s426-94.13,504.26-88.92l-8.18-5,22.44-19.78-557.66,85.8Z"/><rect class="b" x="1571" y="770" width="184.33" height="113"/><path class="b" d="M1334.34,1971.75c-15.06-116.3-32.51-719.44-33.18-719.44-12.35-79.73-64.72-84.73-64.72-84.73S974,1077,968.15,1075.8c-58.83-29.41-44.71-102.37-48.24-103.55,0,2.41-153.87,23.93-153.87,23.93,8.88,8.67-3.28,7.13,0,0,0,0-153.86-21.54-156.78-23.93,0,0,5.88,93-62.37,108.26,2.36,0-245.93,83.54-245.93,83.54s-60,4.71-69.42,81.2c.44.44-117.6,259.2-175,472.88L23,1865.52c-9.13,70.44,188.44,105.53,188.44,105.53-5.33,59.67-13.27,169.86-13.27,169.86,22.22,0,1061.69-.14,1061.69-.14C1350.22,2140.77,1346,2061.37,1334.34,1971.75Z"/><path class="c" d="M1334.34,1971.75c-15.06-116.3-32.51-719.44-33.18-719.44-12.35-79.73-64.72-84.73-64.72-84.73S974,1077,968.15,1075.8c-58.83-29.41-44.71-102.37-48.24-103.55,0,2.41-153.87,23.93-153.87,23.93,8.88,8.67,59.3,74.35,59.3,74.35l-44.2,76.81,73.58,704.89-88.2,86.82-93-86.82,71.57-705.29-44.25-75.76s61.94-67.87,65.22-75c0,0-153.86-21.54-156.78-23.93,0,0,5.88,93-62.37,108.26,2.36,0-245.93,83.54-245.93,83.54s-60,4.71-69.42,81.2c.44.44-117.6,259.2-175,472.88L23,1865.52c-9.13,70.44,188.44,105.53,188.44,105.53-5.33,59.67-13.27,169.86-13.27,169.86,22.22,0,1061.69-.14,1061.69-.14C1350.22,2140.77,1346,2061.37,1334.34,1971.75ZM604.27,1940,374.71,2061.79a16.09,16.09,0,0,1-21.69-6.73l-56.89-108-15.43,8c-5.86,3-15.95,7.35-23.08-9.65s2-20,7.87-23l13.87-7.2-5.29-10.05-26.63,13.82c-5.85,3-16.06,2.07-26.06-12.43-9.65-14,4-29,9.84-32.07l21-10.87L246,1851.74l-47.18,24.47c-5.86,3-23.65-2-28.44-9.69-8.6-13.9.73-28.84,6.59-31.88l47.15-24.46-6.22-11.82-29.34,15.21c-5.85,3-20.67,7-29.41-10.69-8.35-17,1-27.48,6.87-30.52l30-15.56-83-157.72a16.1,16.1,0,0,1,6.73-21.69l229.56-121.75a16.11,16.11,0,0,1,21.69,6.73l85,161.46.28-.17,9-5.81c8.93-4.64,28.34,6.82,31.78,12.58s7.89,26.28-1,30.91L478.35,1671,611,1918.35A16.1,16.1,0,0,1,604.27,1940Zm561.39-490.4H977l.69-39.85,15.72.11v-35.58c0-2.7,4.84-4.43,9.37-5.2v-7.23c0-2.92-1.71-4.17,4.09-4.18s4.12,1.26,4.12,4.18v6.77c4.53.79,9.37,2.54,9.37,5.26v35.87l119.25.83a26,26,0,0,1,26.07,26Z"/><path class="c" d="M464.17,1955.7a18.79,18.79,0,1,0,25.33,8A18.79,18.79,0,0,0,464.17,1955.7Z"/><path class="c" d="M366.11,1486a14.94,14.94,0,0,0-20.12-6.24L141.38,1588.35a14.93,14.93,0,0,0-6.24,20.12l199.67,378.6a15,15,0,0,0,20.13,6.25l204.6-108.61a14.94,14.94,0,0,0,6.24-20.12Zm57.44,167.18-89.44,46.4-11.79-22.73,89.44-46.4Zm-17.69-34.1-89.44,46.41-11.79-22.73,89.44-46.41Zm-31.4-60.53,12.43,24-89.44,46.4-12.44-24Zm-55.2-19.34,11,21.25-53.86,27.94-11-21.25Zm-154.17,80,86-44.64,59.2,114.09-86.06,44.65Zm102.34,184,189.76-98.44,12.05,23.22-189.76,98.45Zm23.08,44.48,189.75-98.45,12.05,23.23-189.76,98.44Zm34.35,66.21-12.31-23.71,189.76-98.45,12.3,23.72Z"/><path class="c" d="M1335.58,995.8l-1.36-4-242.9,82.85a7.36,7.36,0,0,0-4.59,9.35l-1.13-3.3a8.13,8.13,0,0,0,10.31,5.06l227.34-64.86A19.78,19.78,0,0,0,1335.58,995.8Z"/><path class="c" d="M1329.67,981.75H1224a19.7,19.7,0,0,1-19.69-19.69V775.92a23,23,0,0,1,23.58-23l133.76,3.4Z"/><polygon class="b" points="1329.67 860.33 1225.67 860.33 1225.67 773.67 1339.49 777.73 1329.67 860.33"/><rect class="b" x="1225.67" y="873.67" width="36.67" height="9.33" rx="4.67" ry="4.67"/><rect class="b" x="1716.33" y="909" width="34" height="10" rx="5" ry="5"/><rect class="b" x="1777.67" y="909" width="38.67" height="10" rx="5" ry="5"/></svg>