<?xml version="1.0" encoding="utf-8"?>
<!-- Generator: Adobe Illustrator 22.1.0, SVG Export Plug-In . SVG Version: 6.00 Build 0)  -->
<svg version="1.1" id="b6b40cad-5949-4cf3-a4b3-b103613fbbf4"
	 xmlns="http://www.w3.org/2000/svg" xmlns:xlink="http://www.w3.org/1999/xlink" x="0px" y="0px" viewBox="0 0 2144 2144"
	 style="enable-background:new 0 0 2144 2144;" xml:space="preserve">
<style type="text/css">
	.st0{opacity:0.25;fill:#BABCBE;enable-background:new    ;}
	.st1{opacity:0.3;fill:#BABCBE;enable-background:new    ;}
	.st2{fill:#FFFFFF;}
	.st3{fill:#008BCE;}
</style>
<title>DriverApp2</title>
<path id="big_circle" class="st0" d="M1072,8.1C499.5,8.1,35.4,486.8,35.4,1077.4c0,539,367.9,982.3,870.2,1055.9
	c6.1,0.9,302,4.5,302,4.5c7-0.7-7,0.9,0,0c512.7-64.2,901-513.9,901-1060.4C2108.6,486.8,1644.5,8.1,1072,8.1z M924.8,2103.7
	c0,0-15.7-175.3-27.9-178c-395-83.5-692.1-444.1-692.1-876.3c0-494.1,388.3-894.6,867.2-894.6s867.2,400.5,867.2,894.6
	c0,456.9-332.1,833.8-760.8,887.9c-10.6,1.3,24.1,149.8,24.1,149.8L924.8,2103.7z"/>
<circle id="small_circle" class="st1" cx="1072" cy="1083.9" r="705"/>
<g id="car">
	<path class="st2" d="M1787.8,745.4l-42.7-32.8l-428.2-5.2l-68.1,88.2c4.5-0.6-50.3,8.4-21.6,8.3l3.1,109.9h38l28.2,27.4h33.9
		l4.5-27.5l475.2-0.7l27.7,24.4l36.1-24.4h52.7l95.5-6.8l-161-102.3L1787.8,745.4z"/>
	<path class="st3" d="M1846.5,847.4c-32.4,0-58.7,26.3-58.7,58.7s26.3,58.7,58.7,58.7c32.4,0,58.7-26.3,58.7-58.7
		C1905.1,873.7,1878.9,847.5,1846.5,847.4z M1846.5,923.6c-9.7,0-17.6-7.9-17.6-17.6c0-9.7,7.9-17.6,17.6-17.6
		c9.7,0,17.6,7.9,17.6,17.6C1864,915.7,1856.2,923.6,1846.5,923.6z"/>
	<path class="st3" d="M2077.9,857.8V829c0.1-13.2-8.8-24.7-21.6-28l-209.9-29.6l-75.2-54.3c-23.2-18.8-102-22.5-132-22.5h-309.1
		c-8.4,0-16.5,3.1-22.7,8.8l-66.9,67.2c0,0-47.2-6-48.8,9.2l-40.3,77.9c-5.6,0.4-10,4.8-9.6,10v35.5c-0.1,5.2,4.1,9.5,9.3,9.6
		c0.1,0,0.2,0,0.3,0h83c-0.5-2.4-0.7-4.8-0.8-7.2c0-40.6,32.9-73.4,73.5-73.5c40.7,0,73.9,33.1,73.9,73.5c-0.1,2.4-0.3,4.8-0.8,7.2
		h393.2c-0.5-2.4-0.7-4.8-0.8-7.2c0.1-40.7,33.1-73.6,73.8-73.5c0,0,0.1,0,0.1,0c40.7,0,73.9,33.1,73.9,73.5
		c-0.1,2.4-0.3,4.8-0.8,7.2h156.4c5.2,0.1,9.5-4.1,9.6-9.4c0-0.1,0-0.2,0-0.2v-37.9C2085.5,861.2,2082.1,857.8,2077.9,857.8
		C2077.9,857.8,2077.9,857.8,2077.9,857.8z M1488.1,771.5h-206.8l43.4-47.9c3.1-2.8,7-4.3,11.2-4.4h152.2V771.5z M1518.8,771.5
		v-52.3h117.7c24.8,0,105.3,0,129.3,24l35.5,28.3H1518.8z"/>
	<path class="st3" d="M1307.5,847.4c-32.4,0-58.7,26.3-58.7,58.7s26.3,58.7,58.7,58.7c32.4,0,58.7-26.3,58.7-58.7
		C1366.1,873.7,1339.9,847.4,1307.5,847.4z M1307.1,923.6c-9.7,0-17.6-7.9-17.6-17.6c0-9.7,7.9-17.6,17.6-17.6
		c9.7,0,17.6,7.9,17.6,17.6v0C1324.6,915.7,1316.8,923.6,1307.1,923.6L1307.1,923.6z"/>
</g>
<g>
	<rect x="699.5" y="856.8" class="st2" width="160.8" height="509.7"/>
	<rect x="957.6" y="1184.1" class="st2" width="284.7" height="242.8"/>
	<rect x="502" y="1311.2" class="st2" width="633.7" height="756.8"/>
	<path class="st2" d="M565.8,323.9c0,0-46.9,59.8-44.4,89.8c-1.2,1.4-7.4-40.8-46.8-27.1c-0.6,1-33.3,145.6,60.4,170.2
		c0-1.2,53,242.8,263.7,250.2c1.2,1.2,156.5-9.9,226.7-230.4c2.5-1.2,57.9-38.2,55.5-119.5c0-1.2,8.6-113.4-49.3-54.2
		c1.2-1.2-14.8-94.9-14.8-94.9l-88.7-49.3L565.8,323.9z"/>
	<g>
		<path class="st3" d="M532.6,571.2c0,0,43.4,110.6,43.4,111.8c110,159.5,227.5,133.7,227.7,133.6l0,0
			c151.8-1.2,231-237.6,230.1-241.3l0,0c27.1,0,40.7-34.4,38.3-34.6l0,0c49-198.6-25.8-164-28.3-162.1l0,0
			c11-54.5,1.2-109-9.3-146.5c-1.1-3.8-17.1-48.6-16.8-49l0,0C1419.9-101.3,717.3,77.5,717.3,77.5S32.8-41.9,503.8,279.2
			c2.5,1.7-4.6,27.7-6.4,27.7c-3.5,44.5,53.3,98.4-7,73.2c-14.9-6.3-24.1,19.1-29.9,49.9C444.6,514.3,532.4,570.7,532.6,571.2z
			 M533.1,470.9c0,0-0.5-26.4-0.5-26.4c-0.6-5-9.6-81.7,33.4-90.7l0,0c0.1-1.6,168.7,30.8,386.8-81.4c14.7-7.6,22,55.2,43,66.2
			c15.6,8.2,20.9,29.6,28.6,48.7l0,0c-1.8,1.9-0.1,54.4,0,57.4l0,0c1.2-3.3,28.1-71.5,42.6-40.7c5.6,0,16.7,144.7-37.1,150.3l0,0
			c-0.6,1.6-95.7,254.8-239.4,243.1l0,0c-137.4-19.3-188.3-119.4-187.8-118.7c-3.9-8.1-34.6-46.1-62.3-130.9l0,0
			c-4.6,1.8-51.6,9.4-65.9-87.6C474.5,460.3,482.7,310.8,533.1,470.9z"/>
		<path class="st3" d="M1379.3,1882.6c-15.8-122.3-34.2-756.5-34.9-756.5c-13-83.8-68.1-89.1-68.1-89.1s-275.9-95.3-282.1-96.5
			c-61.9-30.9-47-107.7-50.7-108.9c0,2.5-161.8,25.2-161.8,25.2c9.3,9.1,62.4,78.2,62.4,78.2l-46.5,80.8L905,1768.2l-122.8,214.4
			l-124.7-214.4l102.2-753l-46.5-79.7c0,0,65.1-71.4,68.6-78.9c0,0-161.8-22.7-164.9-25.2c0,0,6.2,97.7-65.6,113.8
			c2.5,0-258.6,87.9-258.6,87.9s-63.1,4.9-73,85.4c0.5,0.5-123.7,272.6-184,497.3L0.3,1770.9c-9.6,74.1,198.2,110.9,198.2,110.9
			c-5.6,62.8-14,262.2-14,262.2c23.4,0,1116.5-0.1,1116.5-0.1C1396,2143.9,1391.4,1976.8,1379.3,1882.6z M1201.8,1332.9H1004
			l0.7-41.8l16,0.1v-37.4c0-2.8,5.1-4.7,9.9-5.5v-7c0-3.3-1.9-4.7,4.7-4.7c6.6,0,4.7,1.4,4.7,4.7v7c4.7,0.8,9.7,2.6,9.7,5.4v37.6
			l125,0.9c15-0.1,27.2,11.9,27.3,26.9c0,0.1,0,0.1,0,0.2L1201.8,1332.9z"/>
		<g id="e54a4c6b-aa40-449c-808c-e8c70044d284">
			<path class="st2" d="M136.9,1503.1L469.4,1368c7.6-3.1,16.2,0.6,19.3,8.1l178.6,439.6c3.1,7.6-0.6,16.2-8.1,19.3l-332.6,135.1
				c-7.6,3.1-16.2-0.6-19.3-8.1l-178.6-439.6C125.6,1514.8,129.3,1506.2,136.9,1503.1z"/>
			<path class="st3" d="M471.5,1596.8c-18.1-47.8-71.4-71.8-119.2-53.7s-71.8,71.4-53.7,119.2c4,10.7,10,20.5,17.7,29l0,0
				c6.1,6.7,11.6,12.3,19.6,18.4l113.4,91.4l25.2-142.3c2-9.7,2.7-18.8,2.9-27.7l0,0C477.7,1619.4,475.7,1607.7,471.5,1596.8z
				 M396.9,1661c-19.9,7.5-42.1-2.6-49.6-22.5c-7.5-19.9,2.6-42.1,22.5-49.6c19.9-7.5,42.1,2.6,49.6,22.5c0,0,0,0,0,0
				C426.9,1631.3,416.8,1653.5,396.9,1661C396.9,1661,396.9,1661,396.9,1661L396.9,1661z"/>
		</g>
	</g>
	<path class="st2" d="M503.2,281.8c0,0,448-99,530.3-93.5l-8.6-5.2l23.6-20.8l-586.4,90.3L503.2,281.8z"/>
</g>
</svg>
