<svg xmlns="http://www.w3.org/2000/svg" viewBox="0 0 2144 2144"><defs><style>.a{fill:#e6e6e6;}.b{fill:#fff;}.c{fill:#008bce;}</style></defs><title>fleet-management-medical</title><rect class="a" width="2130.92" height="2130.92" rx="166.77" ry="166.77"/><rect class="b" x="87.33" y="175.86" width="1981.64" height="1835.59"/><path class="c" d="M1730,175.86v95.35a13.42,13.42,0,0,1-13.38,13.38H1575a13.42,13.42,0,0,1-13.38-13.38V175.86H609.22v95.35a13.42,13.42,0,0,1-13.38,13.38H454.22a13.43,13.43,0,0,1-13.39-13.38V175.86H87.33V2011.45H2069V175.86Zm213.38,1693.41H224.11V334.21H1943.34Z"/><rect class="c" x="462.58" y="31.45" width="121.55" height="233.07" rx="12" ry="12"/><rect class="c" x="1587.78" y="31.45" width="121.55" height="233.07" rx="12" ry="12"/><path class="c" d="M786.17,489l-4.3-4.2a36.47,36.47,0,0,1-.54-51.42l25.73-26.28a70.27,70.27,0,0,0-83,77.84L443,772c-28.3-12.65-61.74-7.93-83.64,14.44C340.6,805.55,335,832.81,342,857.83l31.45-32.13a36.48,36.48,0,0,1,51.42-.54l11.22,11a36.46,36.46,0,0,1,.54,51.42l-28.14,28.74c22.62,3.23,45.89-3.58,62.51-20.55,17-17.35,23.21-41.4,19-64.4L772.31,543a70.27,70.27,0,0,0,90.43-80.23l-25.15,25.69A36.47,36.47,0,0,1,786.17,489Z"/><path class="c" d="M853.7,658,748.39,680.09l-33.5,102.26,71.8,80.14L892,840.38l33.5-102.25ZM830.29,808.33a49.14,49.14,0,1,1,38-58.19A49.14,49.14,0,0,1,830.29,808.33Z"/><path class="c" d="M633.75,810.83l-.5,2.55a1.79,1.79,0,0,0,1.41,2.09l-1.26-.25a7.75,7.75,0,0,1-5.4,9.54h0a3.46,3.46,0,1,1-1.33,6.8,3.46,3.46,0,1,1-1.33,6.8,3.47,3.47,0,0,1-1.33,6.81h0a3.46,3.46,0,1,1-1.32,6.8,3.46,3.46,0,0,1-1.33,6.8,3.47,3.47,0,0,1-1.33,6.81h0a3.46,3.46,0,0,1-1.33,6.8,3.46,3.46,0,1,1-1.33,6.8A3.46,3.46,0,1,1,616,886h0a3.47,3.47,0,0,1-1.33,6.81,3.46,3.46,0,1,1-1.33,6.8,3.46,3.46,0,1,1-1.33,6.8h0a3.47,3.47,0,0,1-1.32,6.81,3.46,3.46,0,0,1-1.33,6.8,3.46,3.46,0,0,1-1.33,6.8h0a3.41,3.41,0,0,0,.41,2.4l-35.83-7a7.15,7.15,0,0,0-8.37,5.63L553.8,981.48a7.14,7.14,0,0,0,5.63,8.36l122.45,23.92a7.16,7.16,0,0,0,8.37-5.63l10.48-53.64a7.16,7.16,0,0,0-5.63-8.37l-35.84-7a3.45,3.45,0,0,0,1.29-2.07h0a3.46,3.46,0,1,1,1.33-6.8,3.46,3.46,0,1,1,1.32-6.8,3.47,3.47,0,0,1,1.33-6.81h0a3.46,3.46,0,0,1,1.33-6.8,3.46,3.46,0,1,1,1.33-6.8,3.46,3.46,0,1,1,1.33-6.8h0a3.47,3.47,0,0,1,1.33-6.81,3.46,3.46,0,1,1,1.33-6.8,3.46,3.46,0,1,1,1.33-6.8h0a3.47,3.47,0,0,1,1.33-6.81,3.46,3.46,0,1,1,1.32-6.8,3.46,3.46,0,0,1,1.33-6.8h0a3.46,3.46,0,0,1,1.33-6.8,3.47,3.47,0,0,1,1.33-6.81,3.46,3.46,0,1,1,1.33-6.8h0a3.46,3.46,0,1,1,1.33-6.8,3.49,3.49,0,0,0-2.74-4.07l-1.26-.24a1.8,1.8,0,0,0,2.09-1.41l.5-2.55a1.8,1.8,0,0,0-1.41-2.09l-43.15-8.43A1.78,1.78,0,0,0,633.75,810.83Z"/><rect class="c" x="1472.71" y="499.96" width="324.34" height="84.84"/><rect class="c" x="1475.36" y="638.7" width="321.69" height="84.84"/><rect class="c" x="1242.05" y="777.45" width="555" height="84.84"/><rect class="c" x="1242.05" y="917.09" width="555" height="84.84"/><path class="c" d="M800.34,1386.94l-86.87,13.69c-3.87-21.65-28.62-31.71-38.68-32.48l-14,73.57q85.5,22.76,114.1,48,37.85,34,37.85,86.16,0,30.6-13.62,56.13c-9.09,17-40.81,111.16-198.06,88.94l-8.27,35.48-46.41,12.38,12.8-59C490,1679.09,468.37,1602.71,465,1584l83.7-10.14c.77,45.64,32.49,51.83,32.49,51.83L599,1527.49c-37.68-10.49-43.35-13.47-59.15-21.14s-29.48-20-41.06-36.9-17.38-37.55-17.38-61.87q0-49.93,34.87-83.47c23.25-22.36,68-51.11,140.73-39.5l7.74-34.81L706.51,1239l-13.93,51C768.39,1303.94,793.6,1357.15,800.34,1386.94Zm-165.77-28.08c-23.21-4.64-34.76,9.09-39.42,14.91a31.8,31.8,0,0,0-7,20.54,34,34,0,0,0,7.15,21.53q7.16,9.14,24.75,15.31Zm-13.92,276.92c43.31,8.51,80.44-3.09,86.22-45.33,5.43-39.62-49.29-47.32-67.66-53.68Z"/><rect class="c" x="1236.75" y="499.96" width="182.94" height="226.24"/><rect class="c" x="1263.71" y="1454.63" width="92.96" height="269.58"/><rect class="c" x="1378.36" y="1347.73" width="89.24" height="376.48"/><rect class="c" x="1494.24" y="1229.67" width="118.06" height="496.39"/><rect class="c" x="1638.33" y="1389.56" width="94.82" height="334.65"/><rect class="c" x="281.79" y="1092.93" width="705.55" height="28.82"/><polygon class="c" points="1065.76 1028.75 1072.87 434.78 1101.68 435.07 1094.58 1029.04 1065.76 1028.75"/><polygon class="c" points="1060.19 1777.03 1067.29 1183.07 1096.11 1183.36 1089 1777.32 1060.19 1777.03"/><rect class="c" x="1158.98" y="1092.93" width="705.55" height="28.82"/></svg>