<?xml version="1.0" encoding="utf-8"?>
<!-- Generator: Adobe Illustrator 22.1.0, SVG Export Plug-In . SVG Version: 6.00 Build 0)  -->
<svg version="1.1" id="Layer_1" xmlns="http://www.w3.org/2000/svg" xmlns:xlink="http://www.w3.org/1999/xlink" x="0px" y="0px"
	 viewBox="0 0 562 552" style="enable-background:new 0 0 562 552;" xml:space="preserve">
<style type="text/css">
	.st0{fill:#D1D0CE;}
	.st1{fill:#ACACAA;}
	.st2{fill:#666664;}
</style>
<g>
	<g>
		<path class="st0" d="M412.1,206.2c-3.4,0-6.3,2.9-6.3,6.3s2.9,6.3,6.3,6.3s6.3-2.9,6.3-6.3S415.5,206.2,412.1,206.2z"/>
		<path class="st0" d="M369.1,206.2c-3.4,0-6.3,2.9-6.3,6.3s2.9,6.3,6.3,6.3s6.3-2.9,6.3-6.3S372.5,206.2,369.1,206.2z"/>
		<polygon class="st0" points="410.6,178.7 370.6,178.7 365.1,195.9 416.1,195.9 		"/>
		<path class="st0" d="M286,106v160h56c17.7,0,32,14.3,32,32h120V106H286z M426.4,233.9c0,2.4-1.6,4-4,4h-4c-2.4,0-4-1.6-4-4v-7.1
			h-47.7v7.1c0,2.4-1.6,4-4,4h-4c-2.4,0-4-1.6-4-4v-34l8.3-23.8c0.8-2.4,2.8-4,5.6-4h43.7c2.4,0,4.8,1.6,5.6,4l8.3,23.8v34H426.4z"
			/>
	</g>
	<path class="st1" d="M485.1,27.2h-191c-22,0-39.8,17.8-39.8,39.8v59.1c-3.9-1.5-8.1-2.4-12.3-2.4c-19.2,0-34.7,15.6-34.7,34.7v1.3
		c0,41-20.5,78.9-54.7,101.4c-19.8,13-42.8,19.9-66.6,19.9V297h1.3l0,0c26.4-0.2,51.9-8,74-22.5c38.8-25.5,61.9-68.4,61.9-114.7
		v-1.3c0-10.3,8.5-18.8,18.8-18.8c7.8,0,14.8,4.9,17.6,12.1c6.8,18,8.7,37.5,5.3,56.3L252.7,274l89.5,0.4
		c13,0.1,23.6,10.7,23.6,23.7c0,13.1-10.6,23.7-23.7,23.7h-0.2h-15.9v15.9h15.9c13.1,0,23.9,10.7,23.9,23.9
		c0,13.1-10.7,23.9-23.9,23.9h-13.4v15.9h13.4c13.1,0,23.9,10.7,23.9,23.9s-10.7,23.9-23.9,23.9h-15.9V465h15.9h4
		c10.9,0,19.9,9,19.9,19.9c0,10.9-9,19.9-19.9,19.9H192.2c-14.6,0-29-5.1-40.4-14.1c-14.2-11.3-32.1-17.7-50.3-17.7H87.1v15.9h14.3
		c14.6,0,29,5.1,40.4,14.1c14.2,11.3,32.1,17.7,50.3,17.7h153.6c1.4,0,2.7-0.3,4-0.4v0.4h135.3c22,0,39.8-17.8,39.8-39.8V67
		C524.9,45,507.1,27.2,485.1,27.2z M294.1,43.2h191c13.1,0,23.9,10.7,23.9,23.9v8H270.2v-8C270.2,53.9,280.9,43.2,294.1,43.2z
		 M365.5,393.4c0.1-0.1,0.2-0.1,0.2-0.2v0.2h127.4v-15.9H378.2c2.2-4.9,3.4-10.2,3.4-15.9h111.4v-15.9H378.2
		c-2.8-6.4-7.3-11.7-12.7-15.9c0.1,0,0.1-0.1,0.2-0.2v0.1h127.4v-15.9H378.3c2.1-4.9,3.3-10.1,3.3-15.7c0-21.8-17.7-39.5-39.5-39.6
		l-70.3-0.3l8.7-47.2c3.9-21.8,1.8-44.2-6.1-64.9c-1.1-2.8-2.5-5.4-4.2-7.7V90.9H509v350.2H378.2c2.2-4.9,3.4-10.2,3.4-15.9h79.6
		v-15.9h-83C375.4,403,371,397.5,365.5,393.4z M485.1,504.8H375.5c3.1-4.7,5-10,5.7-15.9h48.2V473h-49.9
		c-2.3-6.4-6.3-11.8-11.3-15.9H509V481C509,494.1,498.2,504.8,485.1,504.8z"/>
	<path class="st0" d="M76.6,506H47.4c-9.6,0-17.4-7.8-17.4-17.4V283.4c0-9.6,7.8-17.4,17.4-17.4h29.2c9.6,0,17.4,7.8,17.4,17.4
		v205.2C94,498.2,86.2,506,76.6,506z"/>
	<rect x="478" y="410" class="st2" width="16" height="16"/>
</g>
</svg>
