<?xml version="1.0" encoding="utf-8"?>
<!-- Generator: Adobe Illustrator 22.1.0, SVG Export Plug-In . SVG Version: 6.00 Build 0)  -->
<svg version="1.1" id="Layer_1" xmlns="http://www.w3.org/2000/svg" xmlns:xlink="http://www.w3.org/1999/xlink" x="0px" y="0px"
	 viewBox="0 0 562 552" style="enable-background:new 0 0 562 552;" xml:space="preserve">
<style type="text/css">
	.st0{fill:#D1D0CE;}
	.st1{fill:#C0C0BE;}
</style>
<g>
	<g>
		<path class="st0" d="M529,428H385c-17.6,0-32-14.4-32-32s14.4-32,32-32h144V428z"/>
		<polygon class="st0" points="169,196 185,300 161,324 137,300 153,196 		"/>
	</g>
	<g>
		<path class="st1" d="M217,172h-10.8c16.3-13.2,26.8-33.4,26.8-56V87.6c9.5-5.6,16-15.8,16-27.6c0-17.6-14.4-32-32-32H105
			c-17.6,0-32,14.4-32,32c0,11.8,6.5,22,16,27.6V116c0,22.6,10.5,42.8,26.8,56H105c-39.7,0-72,32.3-72,72v80c0,26.5,21.5,48,48,48
			v152h160V372c26.5,0,48-21.5,48-48v-80C289,204.3,256.7,172,217,172z M125.7,188l14.8,14.8l-7.7,5.1l-8-19.9L125.7,188L125.7,188z
			 M148.3,188h25.4l-8,8h-9.4L148.3,188z M196.3,188h0.9l-8,19.9l-7.7-5.1L196.3,188z M105,44h112c8.8,0,16,7.2,16,16s-7.2,16-16,16
			H105c-8.8,0-16-7.2-16-16S96.2,44,105,44z M213,92c-6.1,9.8-16.9,16-28.9,16h-46c-12,0-22.8-6.2-28.9-16H213z M105,116v-4.5
			c8.9,7.8,20.5,12.5,33,12.5h46c12.5,0,24.1-4.7,33-12.5v4.5c0,30.9-25.1,56-56,56S105,146.9,105,116z M53.4,340H81v16
			C69.2,356,59,349.5,53.4,340z M153,388v88H97V356h128v120h-56v-88H153z M97,508v-16h56v16H97z M169,508v-16h56v16H169z M241,356
			v-16h27.6C263,349.5,252.8,356,241,356z M273,324h-32v-96h-16v112H97V228H81v96H49v-80c0-30.9,25.1-56,56-56h2.6l17.6,44.1
			l30.2-20.1h11.2l30.2,20.1l17.6-44.1h2.6c30.9,0,56,25.1,56,56V324L273,324z"/>
		<path class="st1" d="M442,28c-18.4,0-34.3,12.5-38.8,30.3L382.8,140H369v-24h-48c-17.6,0-32,14.4-32,32s14.4,32,32,32h38.1
			l12.1,6.1l-1,4c-39.1,15.7-65.2,54.1-65.2,96.4v129.2c0,19.1,13.6,35.2,32,39V500c0,13.2,10.8,24,24,24h64c13.2,0,24-10.8,24-24
			v-40h80V204v-16V28H442z M353,164h-32c-8.8,0-16-7.2-16-16s7.2-16,16-16h32V164z M369,167.1V156h9.8l-3.5,14.2L369,167.1z
			 M353,500v-43.1c5.3,0.5,10.7,1,16,1.4V508h-8C356.6,508,353,504.4,353,500z M433,500c0,4.4-3.6,8-8,8h-8v-8h-16v8h-16v-48.8
			c5.3,0.3,10.7,0.4,16,0.6V484h16v-24h16V500z M513,396h-96v16h96v32h-99.8c-23.7,0-47.7-1.5-71.2-4.4c-12-1.5-21-11.7-21-23.8
			V286.5c0-36.5,22.9-69.6,57.1-82.4l0.4-0.1H513V396z M387.2,188l31.4-125.8C421.4,51.5,431,44,442,44h71v144H387.2z"/>
		<g>
			<path class="st0" d="M393,252c-13.2,0-24,10.8-24,24s10.8,24,24,24s24-10.8,24-24S406.2,252,393,252z"/>
			<path class="st1" d="M393,228c-26.5,0-48,21.5-48,48s21.5,48,48,48s48-21.5,48-48S419.5,228,393,228z M393,316
				c-22.1,0-40-17.9-40-40s17.9-40,40-40s40,17.9,40,40S415.1,316,393,316z"/>
		</g>
		<rect x="385" y="396" class="st1" width="16" height="16"/>
	</g>
</g>
</svg>
