<svg xmlns="http://www.w3.org/2000/svg" viewBox="0 0 2144 2144"><defs><style>.a{fill:#fff;}.b{fill:#e6e6e6;}.c{fill:#008bce;}.d{fill:#29abe2;}</style></defs><title>hands</title><circle class="a" cx="1075.5" cy="1075" r="1065"/><circle class="b" cx="1075.5" cy="1075" r="720"/><polygon class="a" points="392.58 1010.01 143.27 940.53 302.25 442.73 556.06 537.14 392.58 1010.01"/><polygon class="a" points="1373.21 674.92 878.93 476.66 707.28 545.32 294.21 454.92 143.21 968.92 623.21 1145.92 489.21 1234.92 556.21 1351.92 528.21 1483.92 631.21 1514.92 610.21 1614.92 765.21 1635.92 900.21 1740.92 1386.21 1513.92 1785.21 1193.92 2024.21 1037.92 1765.21 609.92 1349.21 791.92 1373.21 674.92"/><path class="c" d="M2046.19,1017.37,1815.27,615.21a67.19,67.19,0,0,0-91.55-24.53L1485.45,727.6s173.69,310.2,256.66,452.84c-62.94,97.27-256.26,292.63-781.85,489.22,0-4.91-170.83,70.3-136.91-49.86,14.3-9.81,313.88-195.36,313.88-195.36l-37.6-57.63L748.56,1597.73s-161.85,46.59-104.22-64.17c49.45-25.75,412-248.08,412-248.08l-36.38-43.32L630.44,1478s-127.51,9.81-61.71-105c14.3-9.81,374.37-205.17,374.37-205.17l-31.88-49.86L562.19,1312s-89.92-16.34-33.11-89.09c33.52-15.12,210.48-113.62,210.48-113.62l-21.25-41.28L476.77,1202.51s-81.74,130,46.59,141.82c-4.9,0-110.76,186.78,60.9,193.32,0,0-45.78,161,178.6,128.33,4.9-14.3,13.08,191.68,295.08,37.6,2.86-9,506-181.46,734.85-464.69h0v0l229.28-132c31.47-19.21,42.1-58.45,24.12-89.51ZM1779.3,1145.7,1560.24,764.38l208-119.75L1987.33,1026Z"/><path class="d" d="M842.56,522c93.59,48.23,473.68,156.13,478.59,165.53,73.56,92-62.53,86.64-62.53,86.64l-250.54-69.07-42.5,83.38c-43.33,226-389.5,101-389.5,101v86.64s139.37,24.11,154.08,24.11c245.22,29,329-206.8,329-206.8s204.76,55.18,250.53,48.23c218.66-76.84,60.08-206.81,60.08-206.81s-307.75-96-375.19-134.46C874.43,428.43,782.89,457,787.79,457c-65,61.3-145.5,54.36-186.37,47L332.9,414.12a57,57,0,0,0-72.34,36h0L107.71,906.2a57,57,0,0,0,36,72.34h0l268.51,89.92a.79.79,0,0,0,1.23-.41h0L578.94,573.52C689.29,626.24,837.65,526.93,842.56,522ZM388.49,968.33c0,.4-.82.81-1.23.81h0l-225.6-75.61c-.41,0-.82-.81-.82-1.22h0l139-414.84c0-.41.82-.81,1.23-.81h0l225.6,75.61c.41,0,.82.81.82,1.22h0Z"/></svg>