<svg xmlns="http://www.w3.org/2000/svg" viewBox="0 0 2144 2144"><defs><style>.a{fill:#e6e6e6;}.b{fill:#fff;}.c{fill:#008bce;}</style></defs><title>invoice</title><path class="a" d="M418.4,66H1956a12,12,0,0,1,12,12V1727.85A318.15,318.15,0,0,1,1649.83,2046H12a12,12,0,0,1-12-12V484.4A418.4,418.4,0,0,1,418.4,66Z"/><path class="b" d="M2127.11,1136,1896.8,987.54c-8-5.19-20-2.61-26.48,5.73l-502.49,779.49,56,201.37L1630.34,1942l502.49-779.49c6.23-9.66,3.94-20.25-5.72-26.48"/><path class="c" d="M1951,1296.05l-127.23-82,84.09-130.45,127.23,82Zm176.12-160L1896.8,987.54c-8-5.19-20-2.61-26.48,5.73l-502.49,779.49,56,201.37L1630.34,1942l502.49-779.49c6.23-9.66,3.94-20.25-5.72-26.48"/><path class="b" d="M1623.34,1114.73,1389.6,33a39.29,39.29,0,0,0-46.7-30.11L493.62,186.38l-8,1.72-8,1.72s-6.24,9.68-14.2,11.4l-363,563.25c1.72,8-4.52,17.65-3.08,24.29l1.72,8,1.72,8,283.9,1313.93c3.44,15.93,22.52,27.09,45.07,22.21L1287,1955.62l-58.14-230.55Z"/><path class="c" d="M1098.32,1636,515.6,1761.88l-25.76-119.19,582.72-125.91ZM535.84,315.87l83,384.07-384.07,83ZM1039.69,1108,404,1245.38l-25.76-119.19,635.7-137.35Zm21-544.21c-92.09-9.21-165.54-15.52-184.42-102.93-14.6-67.54,30.83-120.33,89.18-145.41l-16.23-75.07,66.22-14.31,16.22,75.07c83.79-4.24,139.69,36.35,155.52,109.61l-72.84,15.74c-9.82-45.45-37.12-75.59-98-62.42-53,11.44-74.21,47.91-67.34,79.7,9.73,45,52.5,44.1,119,50.52,111.78,10.5,155.83,41.18,171.57,114,13.45,62.24-96.23,145.55-96.23,145.55l17,78.55-79.46,17.17-18-83.23c-77.22,1-144.6-38.74-160.81-113.79l82.61-17.85c10.3,47.68,58.23,70.59,104.58,60.58,60.92-13.16,82-44.05,74.53-78.48-9.91-39.45-28.2-53.52-105.9-60.29m128.85,783.08L458.37,1497l-25.76-119.19L1161,1220.43Zm436.58-224.9L1389.6,33a39.29,39.29,0,0,0-46.7-30.11L493.62,186.38l-8,1.72-8,1.72s-6.24,9.68-14.2,11.4l-363,563.25c1.72,8-4.52,17.65-3.08,24.29l1.72,8,1.72,8,283.9,1313.93c3.44,15.93,22.52,27.09,45.07,22.21L1287,1955.62l-58.14-230.55Z"/></svg>