<svg xmlns="http://www.w3.org/2000/svg" viewBox="0 0 2144 2144"><defs><style>.a{fill:#e6e6e6;}.b{fill:#fff;}.c{fill:#008bce;}</style></defs><title>job-routing</title><path class="a" d="M1410,2101H103a12,12,0,0,1-12-12V496.56C91,291.1,498.54,123,704,123l1303,2a12,12,0,0,1,12,12V1492C2019,1826.93,1744.93,2101,1410,2101Z"/><ellipse class="b" cx="637" cy="640.5" rx="537" ry="537.5"/><path class="c" d="M637.09,15.5c-345.18,0-625,279.82-625,625s279.82,625,625,625,625-279.82,625-625S982.27,15.5,637.09,15.5Zm0,1134.92c-281.62,0-509.92-228.3-509.92-509.92s228.3-509.92,509.92-509.92S1147,358.88,1147,640.5,918.71,1150.42,637.09,1150.42Z"/><path class="c" d="M891.06,647.06l-233.63-5.15V281.37L592,195.06l-66.47,86.31V708.7a59.75,59.75,0,0,0,33.06,53.47,59.94,59.94,0,0,0,32.7,10.25L889,779l87.3-64.14Z"/><rect class="b" x="1576" y="872" width="525" height="484" rx="12" ry="12"/><path class="b" d="M371,2012l42-315,201-228h811l101,60,169,176,324,29,23.56,278.29L1852,2012s33.63-230.12-157-216c-189,14-157,216-157,216H734s67-217-148-224c-197.2-6.42-168,224-168,224Z"/><circle class="b" cx="577" cy="2004" r="58"/><circle class="b" cx="1695" cy="1999" r="58"/><path class="c" d="M1657.16,1999.35a37.76,37.76,0,1,1,37.76,37.76,38.1,38.1,0,0,1-37.76-37.76m-88.39,0c0,69.51,56.64,126.15,126.15,126.15s126.15-56.64,126.15-126.15-56.64-126.15-126.15-126.15-126.15,56.64-126.15,126.15"/><path class="c" d="M538.7,1999.35a37.76,37.76,0,1,1,37.76,37.76,38.1,38.1,0,0,1-37.76-37.76m-87.53,0c0,69.51,56.64,126.15,126.15,126.15s126.15-56.64,126.15-126.15S646.83,1873.2,577.32,1873.2s-126.15,56.64-126.15,126.15"/><path class="c" d="M1853.12,1038.3a82.81,82.81,0,1,1-82.81,82.81c-1.08-45.17,36.57-82.81,82.81-82.81"/><path class="c" d="M1622.11,1075.8l62.87-4.27c3.19-11.75,8.52-23.5,13.85-34.18l-41.56-47,65-65.15,46.89,41.65c10.65-5.34,22.37-10.68,34.09-13.88l4.27-63h91.63l4.27,63c11.72,3.2,23.44,8.54,34.09,13.88l46.89-41.65,65,65.15-41.56,47c5.33,10.68,10.66,21.36,13.85,34.18l62.87,4.27v91.85l-62.87,4.27c-3.19,11.75-8.52,23.5-13.85,34.18l41.56,47-65,65.15-46.89-41.65c-10.65,5.34-21.31,10.68-34.09,13.88l-4.27,62h-91.63l-4.27-63c-11.72-3.2-23.44-8.54-34.09-13.88l-46.89,41.65-65-65.15,41.56-47c-5.33-10.68-10.66-21.36-13.85-34.18l-62.87-3.2Zm-53.77-153.57v393.62c0,49.69,40.65,90.34,90.34,90.34H2048c49.68,0,90.34-40.65,90.34-90.34V926.53c0-49.69-40.66-90.34-90.34-90.34H1657.83c-49,0-89.49,40.48-89.49,89.49"/><path class="c" d="M2105.15,1911.82c3-9.44-4.76-16.3-17.16-16.3v-61.79c3.82-28.32-15.06-115.35-42.52-122.22L1716.37,1677l-158.76-174.06c-49.77-40.33-175.92-62-175.92-62H626.23c-18,0-36,6.87-48.91,18.88l-139,184.75-45.48,32c-32.61-1.72-60.93,186.59-64.36,219.2l-20.6-.46c-12,.85-21.45,10.29-20.59,21.45L287,1994.1c0,12,5.89,17.94,17,17.94H418.5s.06-8.4.06-13.55c0-87.53,71.23-157.89,157.9-157.89,87.53,0,158.76,71.22,158.76,157.89A56.59,56.59,0,0,1,733.5,2012h804.38a56.59,56.59,0,0,1-1.72-13.55c0-87.53,71.23-157.89,158.76-157.89s158.76,71.22,158.76,157.89A56.59,56.59,0,0,1,1852,2012h235.56c12,1.9,20.59-7.54,17.63-18.69ZM856.36,1676.06l-365.72-.65,120.62-177.7c6.87-6,15.45-5.89,24-5.89H856.36Zm345.11-.69H909.37V1491.58h292.1Zm52-.31V1492.7h104a231.07,231.07,0,0,1,145.89,51.49l131.42,131.07Z"/><polygon class="c" points="1193.48 2100.64 918.25 2100.64 882.74 2036.72 1229 2036.72 1193.48 2100.64"/></svg>