<?xml version="1.0" encoding="utf-8"?>
<!-- Generator: Adobe Illustrator 22.1.0, SVG Export Plug-In . SVG Version: 6.00 Build 0)  -->
<svg version="1.1" id="Layer_1" xmlns="http://www.w3.org/2000/svg" xmlns:xlink="http://www.w3.org/1999/xlink" x="0px" y="0px"
	 viewBox="0 0 2144 2144" style="enable-background:new 0 0 2144 2144;" xml:space="preserve">
<style type="text/css">
	.st0{fill:#FFFFFF;}
	.st1{fill:#BABCBE;}
	.st2{fill:#008BCE;}
</style>
<title>leaders</title>
<g id="_x37_2da8abf-74fa-45a1-950d-cf58059bf620">
	<path class="st0" d="M2140.9,1035.1c0,318.8,1.1,400-162.8,1123.3H195.5C95.5,1859.1,3,1352.5,3,1035.1C3,464,481.6,1,1072,1
		S2140.9,464,2140.9,1035.1z"/>
	<polygon class="st1" points="1070,9 1111.5,90.1 1159.6,12.8 1194.1,97.1 1248.5,24 1275.8,110.9 1336.2,42.6 1356.1,131.5 
		1422,68.5 1434.4,158.8 1505.3,101.5 1510.2,192.5 1585.6,141.4 1582.8,232.5 1662.3,187.8 1651.9,278.3 1734.8,240.5 
		1716.9,329.8 1802.6,299.1 1777.3,386.6 1865.3,363.1 1832.8,448.2 1922.5,432.2 1882.9,514.2 1973.6,505.8 1927.3,584.3 
		2018.4,583.4 1965.7,657.7 2056.6,664.5 1997.9,734.2 2087.9,748.5 2023.5,813 2112,834.8 2042.4,893.7 2128.8,922.9 2054.5,975.8 
		2138.1,1012 2059.8,1058.5 2140,1101.6 2058,1141.4 2134.4,1191.1 2049.3,1223.9 2121.3,1279.8 2033.8,1305.3 2100.8,1367 
		2011.5,1385.2 2073.1,1452.3 1982.6,1462.9 2038.4,1534.9 1947.3,1537.9 1946.7,1656.1 1905.9,1609.7 1948.8,1690 1858.5,1677.8 
		1894.6,1761.4 1805.7,1741.7 1834.7,1828 1747.7,1800.9 1769.3,1889.4 1684.9,1855.1 1699.1,1945.1 1617.8,1903.8 1624.4,1994.7 
		1546.9,1946.7 1545.9,2037.9 1472.7,1983.6 1464,2074.3 1395.6,2014.1 1379.3,2103.8 1316.2,2038.1 1292.5,2126.1 1235.1,2055.3 
		1204.1,2141 1152.8,2065.7 1114.8,2148.5 1070,2069.2 1025.2,2148.5 987.2,2065.7 935.9,2141 904.9,2055.3 847.5,2126.1 
		823.8,2038.1 760.7,2103.8 744.4,2014.1 676,2074.3 667.3,1983.6 594.1,2037.9 593.1,1946.7 515.6,1994.7 522.2,1903.8 
		440.9,1945.1 455.1,1855.1 370.7,1889.4 392.3,1800.9 305.3,1828 334.3,1741.7 245.4,1761.4 281.5,1677.8 191.2,1690 234.1,1609.7 
		199.9,1673.7 192.7,1537.9 101.6,1534.9 157.4,1462.9 66.9,1452.3 128.5,1385.2 39.2,1367 106.2,1305.3 18.7,1279.8 90.7,1223.9 
		5.6,1191.1 82,1141.4 0,1101.6 80.2,1058.5 1.9,1012 85.5,975.8 11.2,922.9 97.6,893.7 28,834.8 116.5,813 52.1,748.5 142.1,734.2 
		83.4,664.5 174.3,657.7 121.6,583.4 212.7,584.3 166.4,505.8 257.1,514.2 217.5,432.2 307.2,448.2 274.7,363.1 362.7,386.6 
		337.4,299.1 423.1,329.8 405.2,240.5 488.1,278.3 477.7,187.8 557.2,232.5 554.4,141.4 629.8,192.5 634.7,101.5 705.6,158.8 
		718,68.5 783.9,131.5 803.8,42.6 864.2,110.9 891.5,24 945.9,97.1 980.4,12.8 1028.5,90.1 	"/>
	<g>
		<g>
			<ellipse class="st0" cx="703.6" cy="650.1" rx="134.8" ry="157.7"/>
			<path class="st2" d="M568,640c0,94.2,61.8,170.6,138,170.6S844,734.1,844,640s-61.8-152.9-138-152.9S568,545.8,568,640z
				 M587.9,640c0-86,52.8-137.9,118.1-137.9S824.1,554,824.1,640S771.3,795.7,706,795.7C640.8,795.7,587.9,726,587.9,640z"/>
		</g>
		<path class="st0" d="M602.3,842.7h225.4c0,0-23.7,101.2-25.2,166.7l-1.6,218.1c1-141,64.8,50.3,64.8,50.3l14.2,239.6
			c10,79.5-18,642-51.3,642H736v-495.2c-0.7-7.2-7.3-12.5-14.8-11.8c-6.5,0.6-11.6,5.6-12.2,11.8v495.2h-86
			c-33.3,0-60.7-606.3-60.7-638.6v-126c-20.7-5.9-40.1-15.5-57.3-28.2V999.2C505.3,967,521.2,847.7,602.3,842.7z"/>
		<path class="st2" d="M562.4,1520.8c0,32.3,27.6,631.2,60.9,631.2l84.7,1.3l0.9-489.1c0.7-7.2,7.3-12.5,14.8-11.8
			c6.5,0.6,11.6,5.6,12.2,11.8l0.8,489.4l91.1,2.6c19.6-5.3,61.4-603.2,61.4-635.4v-127c19.7-5.9,54.8,754.8,54.8,754.8l-61.6,4.6
			H565.7l-60.7-1.3v-785.3c17.2,12.7,36.6,22.2,57.3,28.2L562.4,1520.8L562.4,1520.8z"/>
		<g>
			<ellipse class="st0" cx="350.8" cy="666.8" rx="127.3" ry="149"/>
			<path class="st2" d="M220.4,661c0,89,58.4,161.1,130.4,161.1S481.2,749.9,481.2,661s-58.4-144.4-130.4-144.4
				C278.9,516.6,220.4,572,220.4,661z M239.3,661c0-81.2,49.9-130.3,111.5-130.3S462.3,579.9,462.3,661s-49.9,147.1-111.5,147.1
				C289.3,808.1,239.3,742.2,239.3,661z"/>
		</g>
		<path class="st0" d="M366.7,879.3l47.4-27.9l80.2-0.7l69.1,17.4l-0.9,491.7l-49.6,1.4l0.7,158.9c0,32.3,13.2,632-20.2,632H387.1
			v-484.5c-0.7-7.2-7.2-12.5-14.7-11.9c-6.5,0.5-11.7,5.6-12.3,11.9v484.5h-85.9c-33.3,0-60.7-595.6-60.7-627.9v-126
			c-20.7-5.9-40-15.5-57.2-28.2l-67.3-188.6l5.8-191.8l74-106.9l64.3-28.4c35.3-4.2,58.4,2.3,92.1-2.6
			C325.2,851.7,361.7,879.3,366.7,879.3z"/>
		<path class="st2" d="M402.9,851.6l-34.6,43.5l22.8,357.6l-46,80.2l-36.7-82.1l32.5-357l-36.1-42.1L402.9,851.6z"/>
		<path class="st2" d="M222.5,847.7"/>
		<path class="st2" d="M213.7,1524.2c0,32.3,27.3,631.5,60.7,631.5h85.9v-488.1c0.7-7.2,7.2-12.5,14.7-11.9
			c6.5,0.5,11.7,5.6,12.3,11.9v488.1h92.7c33.3,0,60.7-599.2,60.7-631.5v-126.9c19.7-6,53.9,754.8,53.9,754.8l-61.9,0.5l-284.6,3.7
			l0,0l-91.6-786.2c17.2,12.7,36.6,22.3,57.3,28.1L213.7,1524.2z"/>
		<g>
			<ellipse class="st0" cx="1437.5" cy="657.7" rx="127.3" ry="149"/>
			<path class="st2" d="M1437.6,505c-71.9,0-130.4,55.3-130.4,144.4s58.4,161.1,130.4,161.1c72,0,130.4-72.2,130.4-161.1
				S1509.5,505,1437.6,505z M1437.6,796.4c-61.6,0-111.5-65.9-111.5-147.1S1376,519,1437.6,519c61.6,0,111.5,49.1,111.5,130.3
				S1499.2,796.4,1437.6,796.4z"/>
		</g>
		<path class="st0" d="M1544.8,842.7h-205.6c0,0,15,134.4,15,166.7l1.4,192.2l-61.3,86.9l3.5,231.5c0,32.3-18.7,643,30.3,643h92.5
			v-498.8c-0.7-7.2,4.7-13.6,12.2-14.3c7.4-0.7,14,4.6,14.8,11.8c0.1,0.8,0.1,1.7,0,2.5V2163h85.9c33.3,0,60.7-609.9,60.7-642.2
			v-126c20.7-5.9,40.1-15.5,57.3-28.2V999.2C1651.5,967,1625.7,847.4,1544.8,842.7z"/>
		<g>
			<ellipse class="st0" cx="1799.5" cy="770.8" rx="117" ry="136.9"/>
			<path class="st2" d="M1799.4,626.9c-67.7,0-122.6,52.1-122.6,135.8s54.9,151.7,122.6,151.7c67.8,0,122.8-68,122.8-151.9
				S1867.2,626.9,1799.4,626.9z M1799.4,901.2c-58,0-104.9-62-104.9-138.5s47-122.6,105-122.6c58,0,104.9,46.3,104.9,122.6
				C1904.3,839,1857.4,901.2,1799.4,901.2z"/>
		</g>
		<path class="st0" d="M1694.5,955.1l-39.8,327.5c0,0-31.4,871.7-0.9,871.7h138.5V1697c0-6.6,5.5-12,12.4-12c6.8,0,12.4,5.3,12.4,12
			v457.3h78.5c30.5,0,55.6-558.9,55.6-588.4v-115c18.9-5.4,36.8-17.8,52.5-29.4c0,0,21.5-385.6,9.6-412.4
			c-16.1-36.1-67.2-57.7-67.2-57.7l-83.2-1.6l-111.9,0.9C1719.3,953.3,1694.5,955.1,1694.5,955.1z"/>
		<path class="st2" d="M1769.6,950.8c5.7,0,32.5,38.5,31.1,45.5l-35.6,345.6l47.6,60.5l45.7-61.1l-28.4-345l23.7-46.4"/>
		<path class="st2" d="M1849.1,948.1"/>
		<path class="st2" d="M1939.7,951.2c0.5,0.2,68.9,51.1,68.9,80.7l-12.2,395.3c40.2-29.6,63.8-75.5,63.9-124.4v-198.1
			c-0.2-71.7-46.6-134.8-114.9-153.4"/>
		<path class="st2" d="M1944.1,1567.7c0,29.5-25,587.2-55.5,587.2h-74.7l3.1-458c0-6.6-8.6-14.8-15.5-14.8
			c-6.8,0-16.1,9.9-16.1,16.6v456.2H1701c-30.5,0-55.4-557.7-55.4-587.2v-115.9c-17.9-5.5-54.4,701.5-54.4,701.5h330.2l75.1-726.4
			c-15.7,11.6-33.4,20.3-52.3,25.7L1944.1,1567.7L1944.1,1567.7z"/>
		<g>
			<ellipse class="st0" cx="1078.3" cy="570.7" rx="148.2" ry="173.3"/>
			<path class="st2" d="M1078.9,393c-83.7,0-151.7,64.3-151.7,168s67.9,187.4,151.7,187.4s151.7-84,151.7-187.4
				S1162.7,393,1078.9,393z M1078.9,732c-71.7,0-129.8-76.6-129.8-171.2s58.2-151.6,129.8-151.6s129.8,57.1,129.8,151.6
				s-58.1,171-129.8,171V732z"/>
		</g>
		<path class="st0" d="M1239.2,771.5l-120.9-8.8l-40.1,38l-41.6-38.1l-115.1,7.7C854,789,855.1,887.8,855,920.2v368.4
			c16.3,12,41.3,19.2,60.8,25.2v127c0,32.3,27.3,719.1,60.7,719.1h92.7v-575.6c-0.7-7.2,4.7-13.6,12.2-14.3
			c7.4-0.7,14,4.6,14.8,11.8c0.1,0.8,0.1,1.7,0,2.5V2160h85.9c33.3,0,69-686,69-718.1l-8.3-127.3c20.7-5.9,40.1-15.5,57.3-28.1
			V919.2C1299.9,886.8,1272.8,771.6,1239.2,771.5z"/>
		<path class="st2" d="M1037.7,762.7"/>
		<path class="st2" d="M1239.2,771.5c33.4,0.1,58.7,117.3,58.7,149.6v367.4c43.9-32.3,69.9-82.6,69.9-136V935.7
			C1367.6,841.3,1288.1,770.7,1239.2,771.5"/>
		<path class="st2" d="M1036.7,762.6l24.1,58.5l-29,383.7l47,62.9l47.6-62.9l-31-383.7l22.8-58.4"/>
		<path class="st2" d="M920.1,770.7c-72.9,24.2-130,88.7-130.2,165v216.8c0.1,53.4,25.9,103.7,69.9,136V921.2
			C859.9,888.8,861.5,790.8,920.1,770.7"/>
		<path class="st2" d="M1244.5,1440c0,32.3-27.3,711.9-60.7,711.9h-86v-568.5c0.7-7.2-4.8-13.6-12.3-14.2
			c-7.4-0.6-18.5,5.1-19.2,12.2c-0.1,0.8-0.1,2.3,0,3l4.5,567.6h-92.7c-33.3,0-60.7-679.8-60.7-711.9v-127.1
			c-19.5-6-37.7-15.2-54-27.2l-3.7,863.6l64.3,1.3l383.8,1.9l-6.2-153.7v-804.1c-17.3,103.7-36.6,113.2-57.3,119.1L1244.5,1440z"/>
		<path class="st2" d="M1406.9,842.7l37,55.5l-34.2,368.4l48.7,53.9l44.9-53.9l-37.5-368.4l39.8-55.7"/>
		<path class="st2" d="M1551.8,843.5c34.4,10.3,99.8,124.8,99.9,155.7v367.5c43.9-32.3,69.9-82.6,69.9-136v-216.8
			c-0.3-94.3-79.3-170.7-176.9-171.1"/>
		<path class="st2" d="M1486.9,842.5"/>
		<path class="st2" d="M656.8,842.7h86.8c0,0-32,55.4-32,53.6l33.7,367.4l-55.6,84.7l-51.6-84.2L688.9,896"/>
		<path class="st2" d="M667.9,842.7"/>
		<path class="st2" d="M594,843.5c-35.3,14.7-78.5,45.5-78.6,73.9v452.9c-44-32.3-69.9-82.6-69.9-136v-216.8
			c0.2-74.7,48.7-143.9,117.8-167.3"/>
		<path class="st2" d="M233.4,854.2c-35.3,14.3-78.5,44.3-78.6,71.9v440.3c-44-31.4-69.9-80.3-69.9-132.3v-210.8
			c0.2-72.6,51-143,120.1-165.7"/>
		<path class="st2" d="M1594.5,1520.8c0,32.3-27.3,633.8-60.7,633.8h-85.9v-490.4c0.7-7.2-4.8-13.6-12.3-14.2
			c-7.4-0.6-14,4.7-14.7,11.9c-0.1,0.8-0.1,1.6,0,2.3v490.4h-92.6c-33.3,0-60.7-601.6-60.7-633.8v-127
			c-19.7-5.9-53.9,743.8-53.9,743.8c0,19.9,27.3,15.6,60.7,15.6h316.8c0,0,60.6-5.8,60.7-15.6v-770.9
			c-17.1,12.7-36.5,22.2-57.2,28.2v125.9L1594.5,1520.8L1594.5,1520.8z"/>
	</g>
</g>
</svg>
