<svg id="b625db79-1279-4b40-bd86-21d89b769494" data-name="Layer 1" xmlns="http://www.w3.org/2000/svg" viewBox="0 0 108 28.3"><title>logo-white</title><path d="M41.2,24.3a189.65,189.65,0,0,1,64.3,4c.1,0-34.1-14.8-64.3-4" style="fill:#f48120"/><polygon points="0 22.1 0 1.4 2.7 1.4 2.7 19.7 13 19.7 13 22.1 0 22.1" style="fill:#fff"/><rect x="15.9" y="7.1" width="2.5" height="15" style="fill:#fff"/><path d="M22.4,22.1V7.1h2.3V9.2a6.56,6.56,0,0,1,1.9-1.8,6,6,0,0,1,2.7-.7,4.53,4.53,0,0,1,2.7.7,4,4,0,0,1,1.5,1.9,5.22,5.22,0,0,1,4.6-2.6,4.55,4.55,0,0,1,3.4,1.2,5.25,5.25,0,0,1,1.2,3.8V22H40.2V12.5a10.18,10.18,0,0,0-.2-2.2,3.13,3.13,0,0,0-.9-1.1,2.41,2.41,0,0,0-1.5-.4A3.47,3.47,0,0,0,35,9.9a4.61,4.61,0,0,0-1,3.4V22H31.5V12.2a4.18,4.18,0,0,0-.6-2.5,2.21,2.21,0,0,0-2-.8,3.61,3.61,0,0,0-2,.6,3.26,3.26,0,0,0-1.3,1.7,8.62,8.62,0,0,0-.4,3.1v7.8Z" style="fill:#fff"/><path d="M48.2,14.6a6,6,0,0,0,1.3,4.3,3.85,3.85,0,0,0,3.2,1.4,4.31,4.31,0,0,0,3.2-1.4,6.79,6.79,0,0,0,1.3-4.4,5.72,5.72,0,0,0-1.3-4.2,3.85,3.85,0,0,0-3.2-1.4,4.31,4.31,0,0,0-3.2,1.4,6,6,0,0,0-1.3,4.3m-2.6,0a8,8,0,0,1,2.3-6.2,7.14,7.14,0,0,1,4.7-1.7,6.93,6.93,0,0,1,5.1,2,7.82,7.82,0,0,1,2,5.6,9.89,9.89,0,0,1-.9,4.6,6.27,6.27,0,0,1-2.5,2.6,7.4,7.4,0,0,1-3.6.9,6.93,6.93,0,0,1-5.1-2c-1.4-1.3-2-3.3-2-5.8" style="fill:#fff"/><path d="M62.1,15.5l2.6-.2a5.38,5.38,0,0,0,.9,2.6,4,4,0,0,0,2.1,1.6,7.94,7.94,0,0,0,3.2.6,8.21,8.21,0,0,0,2.8-.5,3.52,3.52,0,0,0,1.8-1.3,2.79,2.79,0,0,0,.6-1.8,2.52,2.52,0,0,0-.6-1.7,3.9,3.9,0,0,0-1.9-1.2,31.35,31.35,0,0,0-3.7-1,23.24,23.24,0,0,1-4-1.3,6,6,0,0,1-2.2-1.9A4.62,4.62,0,0,1,63,6.8a5.21,5.21,0,0,1,.9-2.9,6.07,6.07,0,0,1,2.6-2.1A8.74,8.74,0,0,1,70.2,1a10.7,10.7,0,0,1,4.1.7A5.41,5.41,0,0,1,77,3.9a6.39,6.39,0,0,1,1,3.3l-2.6.2a4.27,4.27,0,0,0-1.4-3,5.34,5.34,0,0,0-3.6-1,5.57,5.57,0,0,0-3.6.9,2.53,2.53,0,0,0-1.1,2.2,2.34,2.34,0,0,0,.8,1.8c.5.5,1.9,1,4.1,1.5a25.58,25.58,0,0,1,4.6,1.3,7.47,7.47,0,0,1,2.7,2.1,5.07,5.07,0,0,1,.9,3,5.86,5.86,0,0,1-.9,3.1,6.17,6.17,0,0,1-2.7,2.3,10.19,10.19,0,0,1-4,.8,12.42,12.42,0,0,1-4.7-.8,6.17,6.17,0,0,1-3-2.5,5,5,0,0,1-1.4-3.6" style="fill:#fff"/><path d="M81.9,27.9l-.3-2.4a4.14,4.14,0,0,0,1.5.2,2.9,2.9,0,0,0,1.4-.3,3,3,0,0,0,.8-.8,15.12,15.12,0,0,0,.8-1.9,3.93,3.93,0,0,1,.2-.6l-5.7-15h2.7l3.1,8.7a35.8,35.8,0,0,1,1.1,3.5,33.74,33.74,0,0,1,1-3.4l3.2-8.8h2.5L88.5,22.4a30.2,30.2,0,0,1-1.4,3.4,6.19,6.19,0,0,1-1.6,1.9,3.7,3.7,0,0,1-2.1.6c-.3-.1-.9-.2-1.5-.4" style="fill:#fff"/><path d="M95.5,17.6l2.5-.4a3.08,3.08,0,0,0,1.2,2.3,4.34,4.34,0,0,0,2.7.8,3.85,3.85,0,0,0,2.6-.7,2,2,0,0,0,.8-1.7,1.72,1.72,0,0,0-.8-1.4,16.91,16.91,0,0,0-2.6-.9A32.66,32.66,0,0,1,98,14.4,3.17,3.17,0,0,1,96.4,13a3.61,3.61,0,0,1-.6-2,4.14,4.14,0,0,1,.5-1.9,3.48,3.48,0,0,1,1.3-1.4A9.76,9.76,0,0,1,99.3,7a7.8,7.8,0,0,1,2.2-.3,9.59,9.59,0,0,1,3.1.5,3.81,3.81,0,0,1,2,1.4,6.91,6.91,0,0,1,.9,2.3l-2.5.3a2.35,2.35,0,0,0-1-1.8,3.7,3.7,0,0,0-2.3-.7,4,4,0,0,0-2.5.6,1.72,1.72,0,0,0-.8,1.4,1.61,1.61,0,0,0,.3.9,2,2,0,0,0,1,.7l2.3.7a36.05,36.05,0,0,1,3.8,1.2,4.53,4.53,0,0,1,1.7,1.3,3.8,3.8,0,0,1,.6,2.2,4,4,0,0,1-.7,2.4,5.1,5.1,0,0,1-2.1,1.7,7.94,7.94,0,0,1-3.2.6,7.31,7.31,0,0,1-4.5-1.2,5.12,5.12,0,0,1-2.1-3.6" style="fill:#fff"/><path d="M15.1,3.1h0a2.1,2.1,0,0,1,4.2,0,2.05,2.05,0,0,1-2.1,2.1,2.11,2.11,0,0,1-2.1-2.1" style="fill:#ed1c24"/></svg>