<?xml version="1.0" encoding="utf-8"?>
<!-- Generator: Adobe Illustrator 22.1.0, SVG Export Plug-In . SVG Version: 6.00 Build 0)  -->
<svg version="1.1" id="Layer_1" xmlns="http://www.w3.org/2000/svg" xmlns:xlink="http://www.w3.org/1999/xlink" x="0px" y="0px"
	 viewBox="0 0 108 28.3" style="enable-background:new 0 0 108 28.3;" xml:space="preserve">
<style type="text/css">
	.st0{fill:#F48120;}
	.st1{fill:#ED1C24;}
</style>
<g>
	<g>
		<path class="st0" d="M41.2,24.3c0,0,30.2-4.3,64.3,4C105.6,28.3,71.4,13.5,41.2,24.3"/>
	</g>
	<polygon points="0,22.1 0,1.4 2.7,1.4 2.7,19.7 13,19.7 13,22.1 	"/>
	<rect x="15.9" y="7.1" width="2.5" height="15"/>
	<g>
		<path d="M22.4,22.1v-15h2.3v2.1c0.5-0.7,1.1-1.3,1.9-1.8c0.8-0.4,1.7-0.7,2.7-0.7c1.1,0,2,0.2,2.7,0.7s1.2,1.1,1.5,1.9
			c1.2-1.8,2.7-2.6,4.6-2.6c1.5,0,2.6,0.4,3.4,1.2s1.2,2.1,1.2,3.8V22h-2.5v-9.5c0-1-0.1-1.8-0.2-2.2c-0.2-0.4-0.5-0.8-0.9-1.1
			s-0.9-0.4-1.5-0.4c-1.1,0-1.9,0.4-2.6,1.1c-0.7,0.7-1,1.8-1,3.4V22h-2.5v-9.8c0-1.1-0.2-2-0.6-2.5c-0.4-0.6-1.1-0.8-2-0.8
			c-0.7,0-1.4,0.2-2,0.6c-0.6,0.4-1,0.9-1.3,1.7c-0.3,0.7-0.4,1.8-0.4,3.1v7.8C25.2,22.1,22.4,22.1,22.4,22.1z"/>
		<path d="M48.2,14.6c0,1.9,0.4,3.4,1.3,4.3c0.8,1,1.9,1.4,3.2,1.4s2.3-0.5,3.2-1.4c0.8-1,1.3-2.4,1.3-4.4c0-1.9-0.4-3.3-1.3-4.2
			c-0.8-1-1.9-1.4-3.2-1.4s-2.3,0.5-3.2,1.4C48.6,11.2,48.2,12.7,48.2,14.6 M45.6,14.6c0-2.8,0.8-4.8,2.3-6.2
			c1.3-1.1,2.9-1.7,4.7-1.7c2.1,0,3.8,0.7,5.1,2c1.3,1.4,2,3.2,2,5.6c0,1.9-0.3,3.5-0.9,4.6c-0.6,1.1-1.4,2-2.5,2.6
			s-2.3,0.9-3.6,0.9c-2.1,0-3.8-0.7-5.1-2C46.2,19.1,45.6,17.1,45.6,14.6"/>
		<path d="M62.1,15.5l2.6-0.2c0.1,1,0.4,1.9,0.9,2.6c0.4,0.7,1.1,1.2,2.1,1.6c0.9,0.4,2,0.6,3.2,0.6c1,0,2-0.2,2.8-0.5
			s1.4-0.7,1.8-1.3c0.4-0.5,0.6-1.1,0.6-1.8c0-0.7-0.2-1.2-0.6-1.7s-1-0.9-1.9-1.2c-0.6-0.2-1.8-0.6-3.7-1c-1.9-0.5-3.2-0.9-4-1.3
			c-1-0.5-1.7-1.2-2.2-1.9C63.2,8.6,63,7.8,63,6.8s0.3-2,0.9-2.9c0.6-0.9,1.5-1.6,2.6-2.1S68.8,1,70.2,1c1.5,0,2.9,0.2,4.1,0.7
			s2.1,1.2,2.7,2.2s1,2.1,1,3.3l-2.6,0.2c-0.1-1.3-0.6-2.3-1.4-3s-2-1-3.6-1c-1.7,0-2.9,0.3-3.6,0.9c-0.8,0.6-1.1,1.3-1.1,2.2
			c0,0.7,0.3,1.4,0.8,1.8c0.5,0.5,1.9,1,4.1,1.5s3.8,0.9,4.6,1.3c1.2,0.6,2.1,1.3,2.7,2.1c0.6,0.9,0.9,1.8,0.9,3
			c0,1.1-0.3,2.1-0.9,3.1s-1.5,1.7-2.7,2.3c-1.2,0.5-2.5,0.8-4,0.8c-1.9,0-3.5-0.3-4.7-0.8c-1.3-0.5-2.3-1.4-3-2.5
			C62.5,18.1,62.1,16.8,62.1,15.5"/>
		<path d="M81.9,27.9l-0.3-2.4c0.6,0.2,1,0.2,1.5,0.2c0.6,0,1-0.1,1.4-0.3c0.3-0.2,0.6-0.5,0.8-0.8c0.2-0.3,0.4-0.9,0.8-1.9
			c0-0.1,0.1-0.3,0.2-0.6l-5.7-15h2.7l3.1,8.7c0.4,1.1,0.8,2.3,1.1,3.5c0.3-1.2,0.6-2.3,1-3.4l3.2-8.8h2.5l-5.7,15.3
			c-0.6,1.7-1.1,2.8-1.4,3.4c-0.5,0.8-1,1.5-1.6,1.9s-1.3,0.6-2.1,0.6C83.1,28.2,82.5,28.1,81.9,27.9"/>
		<path d="M95.5,17.6l2.5-0.4c0.1,1,0.5,1.8,1.2,2.3c0.6,0.5,1.6,0.8,2.7,0.8c1.2,0,2-0.2,2.6-0.7s0.8-1,0.8-1.7
			c0-0.6-0.3-1-0.8-1.4c-0.4-0.2-1.2-0.5-2.6-0.9c-1.9-0.5-3.2-0.9-3.9-1.2c-0.7-0.3-1.3-0.8-1.6-1.4c-0.4-0.6-0.6-1.3-0.6-2
			s0.2-1.3,0.5-1.9c0.3-0.6,0.7-1,1.3-1.4c0.4-0.2,1-0.5,1.7-0.7s1.4-0.3,2.2-0.3c1.2,0,2.2,0.2,3.1,0.5s1.6,0.8,2,1.4
			s0.7,1.4,0.9,2.3l-2.5,0.3c-0.1-0.8-0.4-1.4-1-1.8c-0.5-0.4-1.3-0.7-2.3-0.7c-1.2,0-2,0.2-2.5,0.6c-0.5,0.4-0.8,0.8-0.8,1.4
			c0,0.3,0.1,0.6,0.3,0.9c0.2,0.3,0.5,0.5,1,0.7c0.3,0.1,1,0.3,2.3,0.7c1.8,0.5,3.1,0.9,3.8,1.2c0.7,0.3,1.3,0.8,1.7,1.3
			c0.4,0.6,0.6,1.3,0.6,2.2s-0.2,1.7-0.7,2.4c-0.5,0.7-1.2,1.3-2.1,1.7c-0.9,0.4-2,0.6-3.2,0.6c-2,0-3.4-0.4-4.5-1.2
			C96.4,20.4,95.8,19.2,95.5,17.6"/>
		<path class="st1" d="M15.1,3.1L15.1,3.1C15.1,1.9,16,1,17.2,1s2.1,0.9,2.1,2.1s-0.9,2.1-2.1,2.1C16.1,5.2,15.1,4.3,15.1,3.1"/>
	</g>
</g>
</svg>
