<svg xmlns="http://www.w3.org/2000/svg" viewBox="0 0 2144 2144"><defs><style>.a{fill:#e6e6e6;}.b{fill:#fff;}.c{fill:#008bce;}</style></defs><title>medical-integration</title><rect class="a" x="76.52" y="202.5" width="2038.05" height="1750" rx="116.34" ry="116.34"/><circle class="b" cx="562.18" cy="984.4" r="528.64"/><path class="c" d="M562.18,433C257.64,433,10.76,679.86,10.76,984.4s246.88,551.42,551.42,551.42,551.43-246.88,551.43-551.42S866.73,433,562.18,433Zm0,1039.05C290.36,1472,70,1251.67,70,979.84S290.36,487.66,562.18,487.66,1054.36,708,1054.36,979.84,834,1472,562.18,1472Z"/><circle class="b" cx="1555.45" cy="253.82" r="227.86"/><path class="c" d="M1557.94,7.73c-135.91,0-246.09,110.18-246.09,246.09s110.18,246.1,246.09,246.1S1804,389.74,1804,253.82,1693.85,7.73,1557.94,7.73Zm-.4,460.28c-118.29,0-214.19-95.89-214.19-214.19s95.9-214.18,214.19-214.18,214.19,95.89,214.19,214.18S1675.83,468,1557.54,468Z"/><circle class="b" cx="1876.51" cy="971.03" r="227.86"/><path class="c" d="M1886.53,719.93c-138.42,0-250.64,112.22-250.64,250.65s112.22,250.64,250.64,250.64S2137.18,1109,2137.18,970.58,2025,719.93,1886.53,719.93Zm0,468.41c-120.81,0-218.74-97.93-218.74-218.74s97.93-218.75,218.74-218.75,218.75,97.94,218.75,218.75S2007.35,1188.34,1886.53,1188.34Z"/><circle class="b" cx="1558.45" cy="1885.06" r="227.86"/><path class="c" d="M1558.45,1629.86c-140.94,0-255.2,114.25-255.2,255.2s114.26,255.21,255.2,255.21,255.21-114.26,255.21-255.21S1699.4,1629.86,1558.45,1629.86Zm-.8,475.7c-122.4,0-221.62-99.23-221.62-221.63s99.22-221.62,221.62-221.62,221.63,99.22,221.63,221.62S1680.06,2105.56,1557.65,2105.56Z"/><polygon class="c" points="1653.2 994.73 1099.56 1008.1 1099.56 979.84 1653.2 966.48 1653.2 994.73"/><polygon class="c" points="1333.18 1822.75 908.14 1391.24 932.78 1368.18 1344.22 1791.34 1333.18 1822.75"/><polygon class="c" points="1400.93 404.14 1011.98 693.19 995.14 666.01 1378.45 387.01 1400.93 404.14"/><path class="c" d="M222.9,1081.92v212.37H892.27V1081.92ZM861.3,1252H252.79V1109.82H861.3Z"/><circle class="c" cx="348.14" cy="1182.18" r="49.56"/><rect class="c" x="561.23" y="1149.01" width="28.28" height="28.28"/><rect class="c" x="598.06" y="1149.01" width="28.28" height="28.28"/><rect class="c" x="635.56" y="1149.01" width="28.28" height="28.28"/><rect class="c" x="676.34" y="1149.01" width="28.28" height="28.28"/><rect class="c" x="715.8" y="1149.01" width="28.28" height="28.28"/><rect class="c" x="755.92" y="1149.01" width="28.28" height="28.28"/><rect class="c" x="796.05" y="1149.01" width="28.28" height="28.28"/><rect class="c" x="561.23" y="1184.53" width="28.28" height="28.28"/><rect class="c" x="598.06" y="1184.53" width="28.28" height="28.28"/><rect class="c" x="635.56" y="1184.53" width="28.28" height="28.28"/><rect class="c" x="676.34" y="1184.53" width="28.28" height="28.28"/><rect class="c" x="715.8" y="1184.53" width="28.28" height="28.28"/><rect class="c" x="755.92" y="1184.53" width="28.28" height="28.28"/><rect class="c" x="796.05" y="1184.53" width="28.28" height="28.28"/><path class="c" d="M819.23,611.72H304.29a11,11,0,0,0-10.94,10.94v410.58a11,11,0,0,0,10.94,10.94H819.23a11,11,0,0,0,10.94-10.94V622.66A11,11,0,0,0,819.23,611.72Zm-24.76,355.9a11,11,0,0,1-10.93,10.94H338.93A11,11,0,0,1,328,967.62V655.92A11,11,0,0,1,338.93,645H783.54a11,11,0,0,1,10.93,10.93Z"/><rect class="c" x="429.68" y="746.15" width="71.36" height="71.36" rx="12" ry="12"/><rect class="c" x="528.65" y="784.88" width="189.88" height="13.31" rx="6.66" ry="6.66"/><rect class="c" x="528.65" y="752.25" width="189.88" height="13.31" rx="6.66" ry="6.66"/><rect class="c" x="528.65" y="817.51" width="189.88" height="10.67" rx="5.33" ry="5.33"/><rect class="c" x="437.05" y="852.78" width="281.47" height="11.62" rx="5.81" ry="5.81"/><rect class="c" x="437.05" y="880.13" width="281.47" height="12.3" rx="6.15" ry="6.15"/><path class="c" d="M1675.91,1880.64l-3.06-41.83c-2-3.78-7.65-7.26-11.92-7.3l-70.84-15.12H1396.25c-6,0-12.76,4.92-12.76,10.93v128.21c0,6,6.75,10.94,12.76,10.94h36.42c-.07-.88-.11-1.76-.11-2.66a36,36,0,0,1,72,0c0,.9,0,1.78-.11,2.66h85.64a10.57,10.57,0,0,1,5.47,0h23c0-.5,0-1,0-1.52a36,36,0,0,1,72,0c0,.51,0,1,0,1.52h27.84a11,11,0,0,0,10.93-10.94V1916C1729.23,1900.24,1675.91,1880.64,1675.91,1880.64Zm-230.6,6.14a4,4,0,0,1-4,4h-48.27a4,4,0,0,1-4-4V1840a4,4,0,0,1,4-4h47.76a4.49,4.49,0,0,1,4.48,4.48Zm67.43,0a4,4,0,0,1-4,4H1460.5a4,4,0,0,1-4-4V1840a4,4,0,0,1,4-4h47.77a4.48,4.48,0,0,1,4.47,4.48Zm70.73,73.16h-58.69l.89-123.88h58.5Zm80-81.62a9,9,0,0,1-8.93,8.93h-52a1.4,1.4,0,0,1-1.4-1.4v-38.57a11.25,11.25,0,0,1,11.22-11.22h39.86a11.25,11.25,0,0,1,11.22,11.22Z"/><path class="c" d="M1378.63,1962.67h-11.35a5.37,5.37,0,0,1-5.36-5.35V1856.83l11.07-6.43C1373.28,1850.17,1378.63,1962.67,1378.63,1962.67Z"/><path class="c" d="M1784.91,823.7v291.8h234.24V823.7Zm26.43,38.41h68.36v68.36h-68.36ZM1990.83,1055H1806.27v-10.8h184.56Zm0-23.09H1806.27v-10.8h184.56Zm0-23.09H1806.27V998h184.56Zm0-23.09H1806.27V974.9h184.56Zm0-23.09H1806.27v-10.8h184.56Zm.07-26.74H1902v-10.8h88.87Zm0-21H1902V904.09h88.87Zm0-21H1902V883.1h88.87Zm0-21H1902v-10.8h88.87Z"/><path class="c" d="M1579.37,229.53a7.41,7.41,0,1,0,9.54,4.34A7.36,7.36,0,0,0,1579.37,229.53Z"/><path class="c" d="M1592.85,188.82a7.42,7.42,0,1,0,7.42,7.42A7.35,7.35,0,0,0,1592.85,188.82Z"/><path class="c" d="M1552.64,198.45a7.42,7.42,0,1,0,7.42,7.42A7.35,7.35,0,0,0,1552.64,198.45Z"/><path class="c" d="M1685.47,206.08c-3.79-9.92-14.79-17.1-27.77-17.1a34.12,34.12,0,0,0-6.92.71c0-.24,0-.47,0-.71,0-20.18-25-36.53-55.73-36.53a84.5,84.5,0,0,0-11.6.8c-15.91-18.87-45.87-31.58-80.22-31.58-51,0-92.35,28-92.35,62.63a43,43,0,0,0,.32,5.22c-14.12,7-23.67,20.52-23.67,36,0,.11,0,.22,0,.34-7.77,5.44-12.75,13.81-12.75,23.2,0,16.41,15.21,29.72,34,29.72l.9,0c3.41,9.07,10.71,17.26,32,22.13V260.43h-18.46l37.65-59.92,41,59.92h-18.47V305.3c18.56.91,37.74-.84,53.83-6.36a274.74,274.74,0,0,1,39.69-10.59v37.43h-18.46L1598,386l39-60.2h-18.46V285.09c35.81-.38,41.89,10.68,51.51-1.09,1.33.05,2.67.08,4,.08,37.52,0,67.94-17.59,67.94-39.28C1742.1,225.34,1717.61,209.19,1685.47,206.08Zm-128.25,15.09-.39,5.59h-8.28l-.38-5.68a17.28,17.28,0,0,1-3.08-1.25l-4.24,3.75-5.87-5.87,3.75-4.24a14.7,14.7,0,0,1-1.25-3.08l-5.68-.29v-8.28l5.68-.38a17.28,17.28,0,0,1,1.25-3.08l-3.75-4.24,5.87-5.87,4.24,3.75a17.28,17.28,0,0,1,3.08-1.25l.38-5.68h8.28l.39,5.68a17.59,17.59,0,0,1,3.08,1.25l4.23-3.75,5.88,5.87-3.76,4.24a14.7,14.7,0,0,1,1.25,3.08l5.68.38v8.28l-5.68.39a17.28,17.28,0,0,1-1.25,3.08l3.76,4.23-5.88,5.88-4.23-3.76A14.6,14.6,0,0,1,1557.22,221.17Zm56.57-20.7-5.68.39a17.28,17.28,0,0,1-1.25,3.08l3.75,4.24-5.87,5.87-4.23-3.76a15.17,15.17,0,0,1-3.08,1.26l-.39,5.58h-7.2l4.65,2.12-2,5.28a15.23,15.23,0,0,1,2.25,2.45l5.45-1.63,2.9,7.75-5.18,2.35a16.8,16.8,0,0,1-.1,3.33l5,2.65-3.45,7.56-5.28-2a14.83,14.83,0,0,1-2.45,2.26l1.6,5.36-7.76,2.9-2.35-5.18a16.72,16.72,0,0,1-3.32-.1l-2.65,5-7.56-3.44,2-5.28a14.37,14.37,0,0,1-2.25-2.45l-5.42,1.72L1561,240l5.18-2.35a17.59,17.59,0,0,1,.09-3.33l-5-2.65,3.45-7.56,5.28,2a17.49,17.49,0,0,1,2.45-2.25l-1.63-5.45,7.75-2.9,2.35,5.18a17.59,17.59,0,0,1,3.33.09l2.65-5,1.8.82-.35-5.17a17.68,17.68,0,0,1-3.09-1.25l-4.23,3.75-5.87-5.87,3.75-4.24a14.7,14.7,0,0,1-1.25-3.08l-5.68-.29v-8.28l5.68-.38a17.28,17.28,0,0,1,1.25-3.08l-3.75-4.24,5.87-5.87,4.23,3.75a17.68,17.68,0,0,1,3.09-1.25l.38-5.68H1597l.39,5.68a17.91,17.91,0,0,1,3.08,1.25l4.23-3.75,5.87,5.87-3.75,4.24a14.7,14.7,0,0,1,1.25,3.08l5.68.38Z"/><polygon class="c" points="1588.76 217.13 1589.84 217.13 1588.72 216.62 1588.76 217.13"/><path class="c" d="M1590.28,1980H1520.1c-2.34,0-4.26-7.73-4.26-10.07h78.69C1594.53,1972.31,1592.62,1980,1590.28,1980Z"/><path class="c" d="M1469.47,1934.27a31.9,31.9,0,1,0,31.9,31.9A31.9,31.9,0,0,0,1469.47,1934.27Zm0,50.66a18.76,18.76,0,1,1,18.76-18.76A18.76,18.76,0,0,1,1469.47,1984.93Z"/><path class="c" d="M1654.65,1935.33a31.9,31.9,0,1,0,31.9,31.9A31.9,31.9,0,0,0,1654.65,1935.33Zm0,50.66a18.76,18.76,0,1,1,18.76-18.76A18.76,18.76,0,0,1,1654.65,1986Z"/></svg>