<svg xmlns="http://www.w3.org/2000/svg" viewBox="0 0 2144 2144"><defs><style>.a{fill:#e6e6e6;}.b{fill:#fff;}.c{fill:#008bce;}</style></defs><title>mobile-signature</title><path class="a" d="M300.36,0H2142a0,0,0,0,1,0,0V1589.28A554.72,554.72,0,0,1,1587.28,2144H12.9a7.9,7.9,0,0,1-7.9-7.9V295.36A295.36,295.36,0,0,1,300.36,0Z"/><path class="b" d="M570.28,815H1835a12,12,0,0,1,12,12v824a12,12,0,0,1-12,12H171a12,12,0,0,1-12-12V1226.28A411.28,411.28,0,0,1,570.28,815Z"/><circle class="b" cx="1896" cy="674" r="75"/><path class="c" d="M1238.32,1433.74c-52.64,34.21-130.27,15.79-129,15.79-13.16-9.21-21-27.64-34.21-36.85-21.05-14.47-35.53-17.1-60.53-14.47-32.89,4-68.42,25-100,36.84-23.68,9.21-46,18.42-69.74,27.63-48.68,18.43-51.31,11.85-89.47-17.1-22.37-17.11-40.79-28.95-60.53-38.16,104-51.31,240.79-110.53,329-182.89,34.21-29,106.58-110.53,56.58-157.9-60.53-57.89-248.68,7.9-307.89,26.32-21.06,6.58-13.16,40.79,7.89,34.21,50-15.79,223.69-76.32,253.95-26.32,31.58,54-159.21,161.84-200,188.16a1888.24,1888.24,0,0,1-189.48,102.63c-19.73-2.63-43.42-2.63-69.73,0-42.11,5.26-82.9,11.84-122.37,25-23.68,9.21-97.37,42.11-86.84,78.95,2.63,6.58,9.21,11.84,15.79,14.47,30.26,14.48,59.21,2.63,89.47-7.89,56.58-19.74,113.16-44.74,168.42-69.74a226.13,226.13,0,0,1,48.69,22.37c10.52,6.58,57.89,46,77.63,55.26,38.16,17.11,88.16-14.47,122.37-27.63,52.63-19.74,90.79-55.26,147.36-29,15.79,7.9,26.32,31.58,43.43,40.79,51.31,25,132.89-1.31,176.31-28.94,17.11-11.85,1.32-43.43-17.1-31.58"/><path class="c" d="M1696.21,1393a86.85,86.85,0,1,1,86.84-86.84c0,48.68-38.16,86.84-86.84,86.84m-151.32-110.53v332.9a42.1,42.1,0,0,1-42.1,42.1H310.68a42.1,42.1,0,0,1-42.1-42.1V989a42.11,42.11,0,0,1,42.1-42.11h1029l136.84-131.57h-1161C217.05,816.63,137,896.67,137,993.78v616.27a179,179,0,0,0,179,179H1668.58a179,179,0,0,0,179-179V1120.58a166.36,166.36,0,0,0-30.4-96Z"/><path class="c" d="M1894.89,744.26l-69.73-69.73,71-71.06L1966,673.21ZM2027.79,668l-125-125c-5.26-5.27-13.16-5.27-17.11,0L1187,1240.32l7.89,134.21,134.22,7.89,698.68-698.68a9.87,9.87,0,0,0,0-15.79"/><polygon class="c" points="1868.98 415.79 1665.1 670.17 1631 643 1778 426 1868.98 415.79"/><polygon class="c" points="1818.15 316.1 1614.28 570.49 1585 547 1742 324 1818.15 316.1"/><polygon class="c" points="2115 924 1982 1006 1954.48 971.27 2119 843 2115 924"/><polygon class="c" points="2119 791 1886 952 1860.4 919.01 2117.48 718.53 2119 791"/></svg>