<svg xmlns="http://www.w3.org/2000/svg" viewBox="0 0 2144 2144"><defs><style>.a{fill:#e6e6e6;}.b{fill:#fff;}.c{fill:#008bce;}</style></defs><title>mobile-and-web</title><rect class="a" x="10" y="13" width="2120" height="2120" rx="628.02" ry="628.02"/><rect class="b" x="1128" y="247" width="850" height="784"/><path class="b" d="M566.77,871.69H992.46a47.45,47.45,0,0,1,47.45,47.45v871.77a47.44,47.44,0,0,1-47.45,47.45H566.76a47.45,47.45,0,0,1-47.45-47.45V919.07A47.44,47.44,0,0,1,566.77,871.69Z"/><path class="b" d="M597.37,1339.38l-77.72-.46s114.19-281.58-66.85-262.57c9.33,16.16-38.07,239.42-133,263,0,0-152.77,64.46-183.89,40.34,5.63,4.21,0,390.31,0,390.31s101.85-31.52,226.34,68.39c21.39,11.49,265.93,0,265.93,0"/><path class="c" d="M971.16,859.74H588.36A79.86,79.86,0,0,0,508.5,939.6v118.55a0,0,0,0,1-.05,0,69.09,69.09,0,0,0-94.4,64.82v2.62c-6.26,88,9.67,162.55-243.47,243.35h-.05v31.82a0,0,0,0,0,0,0h2.87c283.28-46.09,272.47-278.26,272.47-278.26a37.82,37.82,0,0,1,73.14-13.52,213.71,213.71,0,0,1,10.65,113.21L505.22,1354.7s0,0,0,0l179.72.8a47.68,47.68,0,0,1-.17,95.36H652.48a0,0,0,0,0,0,0v31.8a0,0,0,0,0,0,0H684.2a47.83,47.83,0,0,1,47.9,47.91,48.42,48.42,0,0,1-47.9,48.24H657.6s0,0,0,0v31.22s0,0,0,0h26.6a48.08,48.08,0,0,1,0,96.15H652.48s0,0,0,0v31.79a0,0,0,0,0,0,0H691.6c22.94,0,41.66,19.07,40.45,42a39.81,39.81,0,0,1-39.77,37.68H383.48a131.55,131.55,0,0,1-81-28.25,163,163,0,0,0-100.84-35.47H172.84a0,0,0,0,0,0,0V1786a0,0,0,0,0,0,0h28.62a131.72,131.72,0,0,1,81,28.25,163.06,163.06,0,0,0,100.78,35.47h308.4c2.79,0,5.41-.62,8-.79v.79H970.94a79.69,79.69,0,0,0,79.78-79.71V939.62a79.43,79.43,0,0,0-79.1-79.82A1,1,0,0,0,971.16,859.74Zm48.18,877.35-267.58,1.08,0,0a75.49,75.49,0,0,0-14.61-16h0a6.58,6.58,0,0,1-.73-1.39s0,0,0,0c49.51-40.47,33.05-110.41-4.69-126.41.23-.22.4-.22.4-.39v.39l25.11-31.93h0c18.58-35.79.07-63.7,0-63.8h0c-5.64-12.86-14.63-23.5-25.51-31.93.23,0,.23-.22.4-.4v.18l25.28-31.93h0a79.31,79.31,0,0,0-72.7-111l-141.09-.63s0,0,0,0L561,1228.11a244.39,244.39,0,0,0-12.24-130.24,65.67,65.67,0,0,0-8.42-15.41V939.58a48,48,0,0,1,48-48H971.47a48.12,48.12,0,0,1,48,48l-.06,797.47S1019.36,1737.09,1019.34,1737.09Z"/><path class="c" d="M152.1,1820.16H30V1338.81H152.05a35,35,0,0,1,35,34.92v411.49A34.93,34.93,0,0,1,152.1,1820.16Z"/><path class="c" d="M931.24,1115.55a50.92,50.92,0,0,1,26.17,0V945.66h-120v88.19h93.88Z"/><path class="c" d="M712.42,1144.4a76,76,0,0,0-59.69-123.19c-41.82.29-76,34.2-76,76.3a75.68,75.68,0,0,0,16.39,46.94l59.68,74.82Zm-92.23-44.16a33,33,0,1,1,33,33h0c-18.1-.51-33-14.9-33-33"/><path class="c" d="M831.27,1615a26,26,0,1,0,26,26h0c.28-14.17-11.61-26-26-26"/><path class="c" d="M918.44,1165.67a26,26,0,1,0,26.06-26h-.06a26.22,26.22,0,0,0-26,26"/><path class="c" d="M831.27,1584.43A56.56,56.56,0,1,0,887.83,1641h0A56.56,56.56,0,0,0,831.27,1584.43Zm0,93A36.47,36.47,0,1,1,867.74,1641a36.47,36.47,0,0,1-36.47,36.47Z"/><path class="c" d="M944.5,1109.29a56.56,56.56,0,1,0,56.55,56.56h0A56.55,56.55,0,0,0,944.5,1109.29Zm0,93A36.48,36.48,0,1,1,981,1165.85a36.47,36.47,0,0,1-36.47,36.47Z"/><path class="c" d="M846.47,1575.05c-21.8-42.34,28.61-64.47,28.84-65.44,47.62-24.18,12-65.37,13-65.65-31.29-45.64,13.14-75.73,13-75.28,41.93-41.65-7.11-68.22-7.4-69.24-49-48.65,14.68-73.91,14.68-73.91l-12.06-11.89s-66.62,40.28-15.42,91.83l.12.11c1.59,1.6,45.51,23.84,3.41,61.68.11-.46-44.38,30.1-13.14,75.73-1,.28,36.52,34.76-11.1,58.94-.23.91-52.57,29.82-30.78,72.15Z"/><path class="c" d="M1559.44,1325.94l-1-201.79H1286.79v202.54s-158.71,191.49-159.09,191.81h586.8"/><path class="c" d="M1316.94,904.92a40,40,0,1,0,40,40A40,40,0,0,0,1316.94,904.92Zm0,64.25a24.22,24.22,0,0,1,0-48.44c13.41,0,24.49,11,24.22,24.22A24.24,24.24,0,0,1,1316.92,969.17Z"/><path class="c" d="M1717.06,455a34,34,0,1,0,34,34A34,34,0,0,0,1717.06,455Zm0,58.25a24.22,24.22,0,1,1,0-48.44c13.41,0,24.48,11,24.22,24.22A24.25,24.25,0,0,1,1717.06,513.2Z"/><path class="c" d="M1357.58,545.3A30.76,30.76,0,0,0,1326.84,576c0,16.85,13.89,30.26,30.74,30.74a30.74,30.74,0,1,0,0-61.48Z"/><path class="c" d="M2002.5,202H840.34a92.12,92.12,0,0,0-92.12,92.12V821.41h314.16a28.44,28.44,0,0,1,28.35,28.35v233.16h885.18a118.71,118.71,0,0,0,118.71-118.71V294.12A92.24,92.24,0,0,0,2002.5,202ZM1412.76,434.74l-55.55,69.76-55.6-69.7a70.87,70.87,0,1,1,111.15-.06Zm-95.53,575.47a65,65,0,1,1,65-65A65,65,0,0,1,1317.23,1010.21Zm273.42-376.12c-.33,1.19,32.81,57-33.88,73.55.38-.38-61.93,3.19-57.87,67.41-1.2-.33,9.82,62-52.15,57.8-.8.83-68.28-1.11-71.75,54.15l-20.23-17c3.46-55.26,73-52.92,73.73-53.7,62,4.24,45-52.58,46.21-52.25-4-64.18,53.67-70.47,53.29-70.08,64.59-12.69,39-58.8,38.32-61.34,0-.09,0-.18,0-.18-20.41-82,96.77-93.15,96.77-93.15L1693,556S1570.72,556.31,1590.65,634.09Zm126.48-93.23A52.68,52.68,0,0,1,1704.78,437V365.2h-87.45V283.05h111.83V436.88a52.69,52.69,0,0,1-12,104Z"/><path class="c" d="M1717.08,694.71a24.25,24.25,0,0,1,0-48.5h.05a24.25,24.25,0,1,1-.05,48.5Z"/><path class="c" d="M1729.16,623.74v-4.43a52.39,52.39,0,0,0-12-1.4,53,53,0,0,0-12.35,1.47v4.36A47.52,47.52,0,0,1,1729.16,623.74Z"/><circle class="c" cx="1358" cy="393" r="32"/></svg>