<svg xmlns="http://www.w3.org/2000/svg" viewBox="0 0 267 244.5"><title>01Asset 4navBar</title><g id="Layer_2" data-name="Layer 2"><g id="Layer_1-2" data-name="Layer 1"><path d="M14.61,0H252.39A14.61,14.61,0,0,1,267,14.61v50A1.36,1.36,0,0,1,265.64,66H4a4,4,0,0,1-4-4V14.61A14.61,14.61,0,0,1,14.61,0Z"/><path d="M4,178.5H265.64a1.36,1.36,0,0,1,1.36,1.36v50a14.61,14.61,0,0,1-14.61,14.61H14.61A14.61,14.61,0,0,1,0,229.89V182.46A4,4,0,0,1,4,178.5Z"/><rect y="89.25" width="267" height="66"/></g></g></svg>