<?xml version="1.0" encoding="utf-8"?>
<!-- Generator: Adobe Illustrator 22.1.0, SVG Export Plug-In . SVG Version: 6.00 Build 0)  -->
<svg version="1.1" id="a9c88503-2e12-44e2-aefa-7ed818ef7ac4"
	 xmlns="http://www.w3.org/2000/svg" xmlns:xlink="http://www.w3.org/1999/xlink" x="0px" y="0px" viewBox="0 0 2144 2144"
	 style="enable-background:new 0 0 2144 2144;" xml:space="preserve">
<style type="text/css">
	.st0{fill:#FFFFFF;}
	.st1{opacity:0.35;fill:#BABCBE;enable-background:new    ;}
	.st2{fill:#008BCE;}
</style>
<rect class="st0" width="2144" height="2144"/>
<ellipse class="st1" cx="1072" cy="1072" rx="1027.5" ry="1060"/>
<g id="group-cars">
	<path class="st0" d="M422.2,625.4c0,0,65.3,271.6,285.1,290.4c0,0.6,149.3,43,285.7-280.4c0.6,0,87.2-64.1,43.8-185.5
		c-4.3-12.1-17.4-1.4-24.2-15.1c1.4,0.3-35-32-35-32s-73.7-161.3-295.3-130.4c-1.8,0-280.8,62.7-310.4,213.2
		C371.9,486.2,353,616.7,422.2,625.4z"/>
	<path class="st2" d="M294.9,628.9C353.1,758,458.8,764,458.8,764s9.2,6.7,9.2,8.1c126.2,182.9,261,153.2,261,153.2
		c174.5-1.4,265.3-273.8,263.8-276.6c31.2,0,43.2-37.3,43.9-39.7c56.7-229.8-31.1-187.2-32.5-185.8c22.7-112-31.2-224.1-29.8-224.1
		C904.8,10.4,555.8,67.6,602.6,70.5c-164.4,38.5-205,220.2-216.5,251.2c-1.2,3.3-1.8,5-1.8,5s-4.2,14.2-6.4,14.2
		c-56.1,15.6-70.2,95.1-70.2,95.1s-9.9,7.1-12.7,4.2C194.2,548,297.7,631.7,294.9,628.9z M418.3,499c0,0-12.7-93.6,38.3-104.2
		c0-2.2,21.2-27.7,121.2-17c0-6.4,127.7,42.6,159.6,10.7c0,2.1-91.5-8.5-85.1-42.6c6.4,4.2,108.5,36.2,140.4,29.7
		c2.1,0-55.3-29.7-40.4-48.9c2.1,6.3,119.2,74.5,144.7,61.7c6.3-2.1,70.2-25.6,85.1,44.7c-2.1,2.2,0,66,0,66s31.9-83,48.9-46.8
		c3.5,4.2,19.2,166-42.6,172.3c0,0-109.2,292.2-274.5,278.7c0-2.1-113.7,25.2-215.4-135.9c-1.6-0.9-2.3-1.7-1.5-2.4
		c0.5,0.8,1.1,1.6,1.5,2.4c13.5,7.6,99.3,20.9,123.9,1.8c4.2-2.1,85.3,26.9,103.3-16.5c-0.9-0.9,9.9-38.4-22.7-49.1
		c-25.4-8.3-80.3,10.4-82.8,21c-4.5,18.7-2.1,51.1-134.1,19.2c-2.1,0-27.5-29.2-59.2-126.4c-5.2,2.1-45.6-1.2-49.3-97
		C380,524.6,373.7,373.6,418.3,499z M316.2,616.3c5.7,8.2,51.1-41.4,5.7-171.9c2.8,2.8,8.5-72.3,49.6-83.7c-1.4-1.4,9.1,0,9.1,0
		l6.5,62.4c0,0-37.6,11-26.9,156c0,0,7.1,45.4,58.1,63.8c0,4.2,39.1,87.9,26.9,97.9C445.3,740.9,310.6,693.2,316.2,616.3
		L316.2,616.3z"/>
	<polygon class="st0" points="974.2,1502.6 930.4,1502.9 930.4,1773.5 347.4,1773.5 304.2,1723.9 265.6,1654 250.8,1223.7 
		347.4,1160.5 963.4,1171.2 	"/>
	<path class="st2" d="M1090.7,1360.7c12.1-58,44-110.6,42.6-113.5c154.6-48.2,217.1-28.4,215.6-28.4
		c-14.9-96.1-77.9-102.2-77.9-102.2s-316.3-109.2-323.4-110.7c-70.9-35.4-53.9-123.4-58.1-124.9c0,18.4-36.9,32.6-36.9,32.6
		s9.9,76.7,9.9,72.3c-1.4,62.4-72.3,66.6-76.7,70.9c-187.2,26.9-252.3-45.4-252.3-45.4s18.4-63.8,18.4-68.1
		c2.8-46.8-21.2-49.6-36.9-62.4c0,0,7.1,112-75.2,130.5c2.8,0-296.4,100.7-296.4,100.7s-72.3,5.7-83.7,97.9
		c1.4,1.4-43.2,442.5-43.9,509.9c-1.4-0.7,288.7,3.5,288.7,3.5s-19.2-22.7-17.7-76.7c0-2.8-21.2-394.4-21.2-394.4
		s11.4-73.8,106.4-63.8h575.9v313.4h68.1c-2.7-30.8-21.6-52.2,14.2-97.9C1039.7,1392,1085.9,1383.8,1090.7,1360.7z"/>
	<path class="st2" d="M914.8,1720.4v-505l-0.4-6.3l-564.2,1.4c0,0-79.5-14.2-55.3,133.4l11.4,158.8l9.8,175.8
		c0,0,0.9,41.9,65.8,41.1L914.8,1720.4z"/>
	<rect x="347.4" y="1740.9" class="st2" width="583" height="32.6"/>
	<path class="st0" d="M1755.9,1349.1h127c9,0,16.1,7.2,16.1,16.1v96.5c0,9-7.2,16.1-16.1,16.1h-127c-9,0-16.1-7.2-16.1-16.1v-96.5
		C1739.8,1356.3,1747,1349.1,1755.9,1349.1z"/>
	<path class="st0" d="M1124.7,1516.8h126.4c9,0,16.1,7.2,16.1,16.1v82.7c0,9-7.2,16.1-16.1,16.1h-126.4c-9,0-16.1-7.2-16.1-16.1
		v-82.7C1108.6,1524,1115.8,1516.8,1124.7,1516.8z"/>
	<polygon class="st0" points="1108.6,1474.4 1193.5,1291 1533.5,1285.8 1617.4,1467 	"/>
	<polygon class="st0" points="1403.7,1744 1466.3,1569.6 1819.5,1573.2 1879.2,1744.6 	"/>
	<circle class="st0" cx="1438.7" cy="1856.3" r="53.2"/>
	<circle class="st0" cx="1842.1" cy="1856.3" r="53.2"/>
	<path class="st2" d="M1969.3,1738.4c-7.3-38.9-37.6-44.9-37.6-44.9h-34c0,0-36.4-98.4-38.9-100.8c-6.1-36.4-54.6-40.1-54.6-41.3
		c-95.9-34-296.3-7.3-301.2-7.3c-74,15.8-76.5,44.9-76.5,44.9l-38.9,104.4c0,0-32.8-1.2-31.6,0c-31.6,0-40.1,46.1-40.1,46.1
		c-3.6,29.1,12.1,31.6,12.1,31.6l35.2,1.3l-19.4,45c0,0-1.2,194.3,0,194.3c0,24.3,15.8,28.6,15.8,28.6h80.1
		c21.9,0,25.6-18.8,25.6-18.8v-40.1l353.3,1.2v36.4l19.4,21.2h81.4c9.8,0,20.6-17.6,20.6-17.6L1939,1810l-15.8-37.6h35.2
		C1974.1,1772.4,1969.3,1742,1969.3,1738.4z M1437.4,1891.7c-21.2,0-38.2-17.1-38.2-38.2c0-21.2,17.1-38.2,38.2-38.2
		s38.2,17.1,38.2,38.2l0,0C1475.7,1874.6,1458.6,1891.7,1437.4,1891.7L1437.4,1891.7L1437.4,1891.7z M1428.3,1719.5
		c0,0,30-97.5,39.1-105.6c-1.8,0.9,10.9-21.9,56.5-24.6c-1.8,0,88.3-17.3,250.4,0c0.9,2.7,35.8,4.5,44.4,27.3
		c8.5,22.8,37.6,102.9,37.6,102.9S1653.2,1735,1428.3,1719.5z M1842.1,1891.7c-21.2,0-38.2-17.1-38.2-38.2
		c0-21.2,17.1-38.2,38.2-38.2c21.2,0,38.2,17.1,38.2,38.2l0,0C1880.3,1874.6,1863.2,1891.7,1842.1,1891.7z"/>
	<path class="st0" d="M1412.5,1213.6c0,0,216.4,15.5,233.3,157.3c0,1.4,257.9-45.9,257.9-45.9l-85.5-190h-353.6L1412.5,1213.6z"/>
	<path class="st2" d="M1470.2,1173.1c0,0,12.7-24.6,64.6-24.6c-1.8-0.9,183.1-15.5,240.4,5.4c-0.9,0,36.4,1.8,44.7,31.9
		c1.8,1.8,37.3,93.8,37.3,93.8s-75.6,30.9-241.3,22.8c0-0.9,26.8,72.9,26.8,72.9s101-1.2,81.3,121.4c0,0,165.2-1.2,178.5,104.4
		c2.4,3.6,19.4,0,19.4,0s17,0,18.2-24.3c1.3,1.2,0-201.6,0-201.6l-17-38.9h32.8c0,0,13.4-3.6,13.4-34c0-1.2-12.1-29.1-12.1-29.1
		s-13.4-18.2-32.8-18.2c0,2.4-25.2,0-25.2,0l-42.8-107.5c0,0-9.1-30-51.9-36.4c-1.8,0-114.7-35.5-321.5,0c0,0.9-46.5,10-55.5,35.5
		c0.9-0.9-28.2,70.2-28.2,70.2l51.9,2.7L1470.2,1173.1z M1879.2,1401.7c0.1,3.7,0,28.2,0,28.2s0.9,22.8-36.4,21
		c-0.9,0.9-62.7,0.5-62.7,0.5s-24.4,2.9-22.9-17.8c0,0,4.5-18.4,31.9-29.1l49.2-22.4C1838.1,1381.9,1879.1,1367.1,1879.2,1401.7
		L1879.2,1401.7z"/>
	<path class="st2" d="M1360,1653.9c13.3-41,44.7-102,43.7-102c56.5-61.9,228.6-57.4,228.6-57.4s52.8-8.2,51.9-8.2
		c12.7-56.5-30-70.2-30-70.2h-37.3c0,0-32.8-96.6-34.6-97.5c-6.4-33.7-41-44.7-41.9-44.7c-150.3-41-321.5-5.5-323.3-7.3
		c-57.4,8.2-68.3,39.1-68.3,39.1s-38.8,100.7-41.9,104.7c-3.1,4-21.6,2.8-22.5,2.8c-12.3,0.5-24,5.3-33,13.6c0,0-10,8.4-14.6,32.8
		c-4.5,24.3,10.9,32.8,10.9,32.8l34.6,1.8l-1.8,5.4l-15.5,40.1c0,0,0.9,195.8,0,194c2.7,29.1,21,27.4,21,27.4l72.9-0.1
		c18.2,1.8,27.3-21,27.3-21v-36.4h103.8C1314.5,1648.5,1359.1,1653,1360,1653.9z M1234.3,1609.4c-0.9,1.8-77.4,0-77.4,0
		s-21,1.8-30.9-18.2v-41.9c0,0,14.6-18.2,41-8.2l67.4,32.8C1234.4,1573.7,1268,1593.8,1234.3,1609.4L1234.3,1609.4z M1150.6,1440.8
		c-6.3-28.2,44.7-112.9,43.8-112.9c217.6-61.9,337.9,1.8,337.9,0c15.5,9.1,46.5,112.9,43.7,112.9
		C1318.1,1490.9,1150.6,1440.8,1150.6,1440.8L1150.6,1440.8z"/>
</g>
<g id="calendar">
	<g>
		<path class="st2" d="M1555.9,641.4l-0.5-2.6V363.7h440V463l50.3,12.8V243.6h-70.2v20c0.4,22.1-17.2,40.3-39.3,40.7
			s-40.3-17.2-40.7-39.3c0-0.5,0-1,0-1.4v-20h-239.9v20c0,22.1-17.9,40.1-40,40.1s-40.1-17.9-40.1-40v-0.1v-20h-60v456.7H1838
			l-8-18.7l-271-38C1557.8,643.7,1556.8,642.8,1555.9,641.4"/>
		<path class="st0" d="M1852,687.5h-318.3V340.8h498.2V499C1765.2,499,1852,687.5,1852,687.5z"/>
		<ellipse class="st0" cx="1615.4" cy="251.1" rx="50.4" ry="74.4"/>
		<ellipse class="st0" cx="1935.5" cy="243.6" rx="50.4" ry="74.4"/>
		<circle class="st0" cx="1990.7" cy="631" r="141.5"/>
		<path class="st2" d="M1985.1,753c-70,0-126.7-56.7-126.7-126.7s56.7-126.7,126.7-126.7s126.7,56.7,126.7,126.7l0,0
			C2111.7,696.2,2055,752.9,1985.1,753 M1985.9,479.2c-81.7,0-147.9,66.2-147.9,147.9S1904.2,775,1985.9,775
			c81.7,0,147.9-66.2,147.9-147.9c0.1-81.6-66.1-147.8-147.7-147.9"/>
		<rect x="1595.5" y="403.7" class="st2" width="80" height="80"/>
		<rect x="1595.5" y="523.7" class="st2" width="80" height="80"/>
		<rect x="1715.5" y="403.7" class="st2" width="80" height="80"/>
		<rect x="1709.4" y="523.7" class="st2" width="80" height="80"/>
		<path class="st2" d="M2036.3,654.8c-8.1,0-14.6-6.6-14.6-14.6c0-8.1,6.6-14.6,14.6-14.6c8.1,0,14.6,6.6,14.6,14.6l0,0
			C2050.8,648.2,2044.3,654.7,2036.3,654.8 M1936.7,654.8c-8.1,0-14.6-6.6-14.6-14.6c0-8.1,6.6-14.6,14.6-14.6
			c8,0,14.6,6.6,14.6,14.6l0,0C1951.2,648.1,1944.7,654.5,1936.7,654.8 M1939.8,561.9h92.8l12.5,40h-117.8L1939.8,561.9z
			 M2037.2,546.4h-101.3c-5.9-0.2-11.2,3.6-12.8,9.3l-19.5,55.1V690c-0.3,4.9,3.4,9,8.3,9.3c0.4,0,0.6,0,1,0h9.3
			c4.9,0.3,9-3.5,9.3-8.4c0-0.4,0-0.6,0-1v-16.5H2042v16.5c-0.3,4.9,3.5,9,8.4,9.3c0.4,0,0.6,0,1,0h9.3c4.9,0.3,9-3.5,9.3-8.4
			c0-0.4,0-0.6,0-1v-79.1l-19.5-55.1C2048.3,550.1,2043.1,546.5,2037.2,546.4"/>
		<path class="st2" d="M1615.4,199.3L1615.4,199.3c-11-0.1-20,8.9-20,19.8c0,0.1,0,0.1,0,0.2v44.4c0,11,9,20,20,20c11,0,20-9,20-20
			c0,0,0,0,0-0.1v-44.4c0.1-11-8.9-20-19.8-20C1615.5,199.3,1615.5,199.3,1615.4,199.3"/>
		<path class="st2" d="M1935.5,199.3L1935.5,199.3c-11,0-20,8.9-20,19.8c0,0.1,0,0.1,0,0.2v44.4c0,11,9,20,20,20c11,0,20-9,20-20
			c0,0,0,0,0-0.1v-44.4c0.1-11-8.9-20-19.8-20C1935.6,199.3,1935.6,199.3,1935.5,199.3"/>
		<rect x="1595.5" y="403.7" class="st2" width="80" height="80"/>
	</g>
</g>
</svg>
