<?xml version="1.0" encoding="utf-8"?>
<!-- Generator: Adobe Illustrator 22.1.0, SVG Export Plug-In . SVG Version: 6.00 Build 0)  -->
<svg version="1.1" id="_x38_63f9769-7850-4f75-a719-0a4bd794b746"
	 xmlns="http://www.w3.org/2000/svg" xmlns:xlink="http://www.w3.org/1999/xlink" x="0px" y="0px" viewBox="0 0 2144 2144"
	 style="enable-background:new 0 0 2144 2144;" xml:space="preserve">
<style type="text/css">
	.st0{opacity:0.25;fill:#BABCBE;enable-background:new    ;}
	.st1{fill:#FFFFFF;}
	.st2{fill:#008BCE;}
</style>
<title>passengerApp</title>
<path class="st0" d="M156.7,12.1h1842.7c73.4,0,132.9,59.5,132.9,132.9l-6.8,1839.9c0,73.4-59.5,132.9-132.9,132.9H615.6
	c-73.4,0-109.3-57.2-132.9-132.9L11.7,145C11.7,71.6,83.2,12.1,156.7,12.1z"/>
<path class="st0" d="M5017.6,2471.8l-1701.5,14.9c-44,0-108.6-27.8-108.6-71.8V1768c0-44,64.6-88.2,108.6-88.2l1701.5-14.9
	c44.1,0.1,79.9,35.9,80,80v646.8C5097.5,2435.9,5061.8,2471.6,5017.6,2471.8z"/>
<path class="st1" d="M1066.6,231.8h748.1c46.1,0,83.4,37.3,83.4,83.4v1532.6c0,46.1-37.3,83.4-83.4,83.4h-748.1
	c-46.1,0-83.4-37.3-83.4-83.4V315.1C983.2,269.1,1020.6,231.8,1066.6,231.8z"/>
<path class="st1" d="M308.9,1810.9c0,0,179-55.4,397.8,120.2c37.6,20.2,467.4,0,467.4,0l-54.2-877.1l-136.6-0.8
	c0,0,200.7-494.9-117.5-461.5c16.4,28.4-66.9,420.8-233.7,462.3c0,0-268.5,113.3-323.2,70.9C318.8,1132.3,308.9,1810.9,308.9,1810.9
	z"/>
<path class="st2" d="M1777.4,211.2h-673.5c-77.5,0-140.3,62.7-140.3,140.2c0,0.1,0,0.1,0,0.2V560c-62.3-24.6-132.7,6-157.3,68.3
	c-5.7,14.5-8.6,30-8.5,45.6v4.6c0.1,236.1-191.3,427.6-427.4,427.7c-0.1,0-0.2,0-0.2,0v56.4h4.6C640.2,1160,854,944.2,853.9,678.8
	v-4.6c0.1-36.7,29.8-66.3,66.5-66.3c27.5,0,52.1,17,61.9,42.6c24.1,63.3,30.5,131.9,18.7,198.5l-43,232.3l315.6,1.4
	c45.8,0.3,83.2,37.7,83.2,83.6c0,46.1-37.3,83.5-83.5,83.6c0,0-0.1,0-0.1,0h-56.7v56.1h56c46.5,0,84.3,37.8,84.2,84.3
	c0,46.5-37.7,84.2-84.2,84.2h-47.2v56.1h47.2c46.5,0,84.3,37.8,84.2,84.3c0,46.5-37.7,84.2-84.2,84.2h-56v55.7h70.2
	c38.8,0,70.2,31.4,70.2,70.2s-31.4,70.2-70.2,70.2H744.7c-51.7-0.2-101.8-17.7-142.4-49.7c-50-39.8-113.2-62.4-177.4-62.4h-50.8
	v56.1h50.4c51.7,0.2,101.9,17.7,142.5,49.7c50,39.8,113.2,62.4,177.3,62.4h541.6c4.9,0,9.5-1.1,14.1-1.4v1.4H1777
	c77.5,0.1,140.3-62.7,140.3-140.1c0-0.1,0-0.1,0-0.2V351.6c0.3-77.2-61.9-140-139.1-140.3C1778,211.2,1777.7,211.2,1777.4,211.2z
	 M1861.7,1753.3l-470.7,1.9c-7.2-10.6-15.8-20.1-25.7-28.2c-0.5-0.8-1-1.6-1.3-2.5c87-71.1,58.1-194-8.2-222.1
	c0.4-0.4,0.7-0.4,0.7-0.7v0.7l44.1-56.1c32.7-63,0-112.1,0-112.1c-9.9-22.6-25.7-41.3-44.8-56.1c0.4,0,0.4-0.4,0.7-0.7v0.3
	l44.4-56.1c7.6-17.5,11.6-36.3,11.6-55.4c0-76.9-62.4-139.3-139.3-139.6l-247.9-1.1l30.7-166.4c13.8-76.8,6.3-155.9-21.5-228.8
	c-3.7-9.7-8.7-18.8-14.8-27.1V352c0-46.5,37.7-84.3,84.3-84.3l0,0h673.5c46.5,0.1,84.1,37.8,84.3,84.3L1861.7,1753.3z"/>
<path class="st2" d="M337,1899.5H122.8v-846.3H337c33.9,0,61.3,27.5,61.4,61.4v723.5C398.4,1872,370.9,1899.5,337,1899.5z"/>
<path class="st2" d="M1707.1,660.2c15-4,30.7-4,45.7,0V361.6h-211.1v155h165.4V660.2z"/>
<path class="st2" d="M1322.1,711.4c18.6-23.6,28.8-52.8,28.8-82.9c0-73.5-60.1-133.6-133.7-133.6c-73.5,0.5-133.6,60.1-133.6,134.1
	c0,29.9,10.2,59,28.8,82.5L1217.3,843L1322.1,711.4z M1160,633.8c0-32,26-58,58-58c32,0,58,26,58,58c0,32-26,58-58,58l0,0
	C1186.2,690.9,1160,665.6,1160,633.8"/>
<path class="st2" d="M1531,1538.6c-25.2,0-45.7,20.5-45.7,45.7c0,25.2,20.5,45.7,45.7,45.7c25.2,0,45.7-20.5,45.7-45.7c0,0,0,0,0,0
	C1577.2,1559.4,1556.3,1538.6,1531,1538.6"/>
<path class="st2" d="M1684.2,749.1c0,25.2,20.4,45.7,45.7,45.8c25.2,0,45.7-20.4,45.8-45.7c0-25.2-20.4-45.7-45.7-45.8
	c0,0,0,0-0.1,0C1704.8,703.6,1684.3,724,1684.2,749.1"/>
<path class="st2" d="M1531,1484.8c-54.9,0-99.4,44.5-99.4,99.4c0,54.9,44.5,99.4,99.4,99.4c54.9,0,99.4-44.5,99.4-99.4c0,0,0,0,0,0
	C1630.4,1529.3,1585.9,1484.8,1531,1484.8z M1531,1648.3c-35.4,0-64.1-28.7-64.1-64.1c0-35.4,28.7-64.1,64.1-64.1
	c35.4,0,64.1,28.7,64.1,64.1S1566.4,1648.3,1531,1648.3C1531,1648.3,1531,1648.3,1531,1648.3z"/>
<path class="st2" d="M1730,649.7c-54.9,0-99.4,44.5-99.4,99.4c0,54.9,44.5,99.4,99.4,99.4c54.9,0,99.4-44.5,99.4-99.4v0
	C1829.4,694.2,1784.9,649.7,1730,649.7z M1730,813.2c-35.4,0-64.1-28.7-64.1-64.1c0-35.4,28.7-64.1,64.1-64.1
	c35.4,0,64.1,28.7,64.1,64.1C1794,784.5,1765.3,813.2,1730,813.2L1730,813.2z"/>
<path class="st2" d="M1557.7,1468.3c-38.3-74.4,50.3-113.3,50.7-115c83.7-42.5,21.1-114.9,22.9-115.4
	c-55-80.2,23.1-133.1,22.9-132.3c73.7-73.2-12.5-119.9-13-121.7c-86.1-85.5,25.8-129.9,25.8-129.9l-21.2-20.9
	c0,0-117.1,70.8-27.1,161.4c0,0,0.1,0.1,0.2,0.2c2.8,2.8,80,41.9,6,108.4c0.2-0.8-78,52.9-23.1,133.1c-1.8,0.5,64.2,61.1-19.5,103.6
	c-0.4,1.6-92.4,52.4-54.1,126.8L1557.7,1468.3z"/>
</svg>
