<svg xmlns="http://www.w3.org/2000/svg" viewBox="0 0 2144 2144"><defs><style>.a{fill:#e6e6e6;}.b{fill:#fff;}.c{fill:#008bce;}</style></defs><title>reports-analytics</title><circle class="a" cx="1074" cy="1074" r="1070"/><rect class="b" x="448" y="258" width="1565" height="1018"/><path class="c" d="M1852.44,1157.89H1630.22V616.22h222.22Zm-347.22,13.89H1283V324.56h222.22Zm-361.11-13.89H921.89V463.44h222.22Zm-362.53,13.89H560.78V852.33H783v319.45ZM283,1338.44H2144.11V144H283Z"/><polygon class="c" points="2144.11 1421.78 1275.96 1421.78 1133.12 1421.78 283 1421.78 283 1588.44 1045.27 1588.44 763.45 2144 902.34 2144 1130.22 1694.53 1130.22 2144 1269.11 2144 1269.11 1694.53 1495.65 2144 1634.54 2144 1354.06 1588.44 2144.11 1588.44 2144.11 1421.78"/></svg>