<svg xmlns="http://www.w3.org/2000/svg" xmlns:xlink="http://www.w3.org/1999/xlink" viewBox="0 0 1367 409"><defs><style>.a,.k,.l,.n,.p{fill:none;}.b{fill:#e6e6e6;}.c{fill:#b3b3b3;}.d,.g,.r{fill:#fff;}.e{fill:#ccc;}.f{clip-path:url(#a);}.g,.h,.i,.j,.m{fill-rule:evenodd;}.h{fill:#ffa700;}.i{fill:#868686;}.k{stroke:#26264c;}.k,.l,.n,.p{stroke-miterlimit:10;}.k,.l{stroke-width:0.69px;}.l{stroke:#000;}.m,.q{fill:#dd0907;}.n{stroke:#f7931e;}.n,.p{stroke-width:60px;}.o{fill:#f7931e;}.p{stroke:#dd0907;}.r{font-size:27px;font-family:Helvetica-Bold, Helvetica;font-weight:700;}.s{letter-spacing:-0.04em;}.t{letter-spacing:-0.04em;}.u{letter-spacing:-0.02em;}.v{letter-spacing:-0.11em;}</style><clipPath id="a"><rect class="a" x="485" y="140.99" width="390" height="124.01"/></clipPath></defs><title>We-do-IT</title><path class="b" d="M685,934.5A722.18,722.18,0,0,1,172.7,722.3,722.18,722.18,0,0,1-39.5,210,725.33,725.33,0,0,1,403-457.57a727,727,0,0,1,564,0A723.88,723.88,0,0,1,1409.5,210,725.33,725.33,0,0,1,967,877.57,720.12,720.12,0,0,1,685,934.5Z"/><path class="b" d="M685-514a719.3,719.3,0,0,1,281.81,56.9,723.39,723.39,0,0,1,123,66.75,727.38,727.38,0,0,1,195.56,195.56,723,723,0,0,1,0,809.58,727.38,727.38,0,0,1-195.56,195.56,723.39,723.39,0,0,1-123,66.75,726.31,726.31,0,0,1-563.62,0,723.39,723.39,0,0,1-123-66.75A727.38,727.38,0,0,1,84.65,614.79a723,723,0,0,1,0-809.58A727.38,727.38,0,0,1,280.21-390.35a723.39,723.39,0,0,1,123-66.75A719.3,719.3,0,0,1,685-514m0-1C284.59-515-40-190.41-40,210S284.59,935,685,935s725-324.59,725-725S1085.41-515,685-515Z"/><path class="b" d="M685,809.62A597.77,597.77,0,0,1,261,634a599.13,599.13,0,0,1,0-848A599.44,599.44,0,0,1,1284.62,210,600.27,600.27,0,0,1,918.4,762.5,595.8,595.8,0,0,1,685,809.62Z"/><path class="c" d="M685-389.25a595.4,595.4,0,0,1,233.25,47.09,599.77,599.77,0,0,1,101.8,55.25A603.07,603.07,0,0,1,1181.91-125a598.5,598.5,0,0,1,0,670.1,603.07,603.07,0,0,1-161.86,161.86,599.77,599.77,0,0,1-101.8,55.25,601.22,601.22,0,0,1-466.5,0A599.77,599.77,0,0,1,350,706.91,603.07,603.07,0,0,1,188.09,545.05a598.5,598.5,0,0,1,0-670.1A603.07,603.07,0,0,1,350-286.91a599.77,599.77,0,0,1,101.8-55.25A595.4,595.4,0,0,1,685-389.25m0-.75C353.63-390,85-121.37,85,210S353.63,810,685,810s600-268.63,600-600S1016.37-390,685-390Z"/><path class="b" d="M685,707.62A498.05,498.05,0,0,1,331.71,561.29a499.21,499.21,0,0,1,0-706.58A499.47,499.47,0,0,1,1184.62,208,500.16,500.16,0,0,1,879.48,668.36,496.4,496.4,0,0,1,685,707.62Z"/><path class="c" d="M685-291.25A497.62,497.62,0,0,1,1038-145a498.8,498.8,0,0,1,0,706A499.09,499.09,0,0,1,185.75,208,499.85,499.85,0,0,1,490.67-252,496.17,496.17,0,0,1,685-291.25m0-.75C408.86-292,185-68.14,185,208S408.86,708,685,708s500-223.86,500-500S961.14-292,685-292Z"/><path class="b" d="M684,606.62A399.28,399.28,0,0,1,284.38,207a399.72,399.72,0,1,1,682.2,282.58A398.38,398.38,0,0,1,684,606.62Z"/><path class="c" d="M684-192.25A398.9,398.9,0,0,1,1083.25,207,399.36,399.36,0,1,1,401.69-75.31,397.9,397.9,0,0,1,684-192.25m0-.75C463.09-193,284-13.91,284,207S463.09,607,684,607s400-179.09,400-400S904.91-193,684-193Z"/><path class="d" d="M472.15,411.24A293.05,293.05,0,0,1,388.88,206c0-77.22,29.9-152.65,82-207H896.08c52.14,54.33,82,129.76,82,207a293.05,293.05,0,0,1-83.27,205.24Z"/><path class="e" d="M895.92-.61c52,54.26,81.83,129.54,81.83,206.61a292.67,292.67,0,0,1-83.06,204.87H472.31A292.67,292.67,0,0,1,389.25,206c0-77.07,29.82-152.35,81.83-206.61H895.92m.32-.75H470.76c-50.94,53-82.26,128-82.26,207.36A294,294,0,0,0,472,411.62H895A294,294,0,0,0,978.5,206c0-79.33-31.32-154.34-82.26-207.36Z"/><g class="f"><g class="f"><path class="g" d="M868.38,168v70.4h0a19.92,19.92,0,0,1-19.92,19.93H512a19.92,19.92,0,0,1-19.92-19.93h0V168h0A19.92,19.92,0,0,1,512,148.07H848.46A19.92,19.92,0,0,1,868.38,168"/><path class="h" d="M639,234.44A340,340,0,0,1,850.1,248.35l.06.06A674.11,674.11,0,0,0,639.1,234.5"/><path class="i" d="M812.4,213.81l7.91-1.23a11.12,11.12,0,0,0,3.71,7.3c2,1.68,4.87,2.51,8.52,2.51s6.4-.74,8.18-2.24a6.71,6.71,0,0,0,2.67-5.27,4.81,4.81,0,0,0-2.36-4.26c-1.08-.74-3.83-1.62-8.19-2.73a75.66,75.66,0,0,1-12.2-3.83,12.27,12.27,0,0,1-5.18-4.51,11.92,11.92,0,0,1-1.74-6.34,12.33,12.33,0,0,1,1.44-5.85,13.59,13.59,0,0,1,4-4.48,16.35,16.35,0,0,1,5.09-2.33,24,24,0,0,1,6.93-1,27.1,27.1,0,0,1,9.74,1.59,13.35,13.35,0,0,1,6.23,4.36,17.38,17.38,0,0,1,2.75,7.32l-7.84,1a8.39,8.39,0,0,0-3.1-5.67c-1.68-1.37-4.11-2.05-7.2-2.05-3.68,0-6.32.61-7.88,1.81a5.29,5.29,0,0,0-2.36,4.29,4.29,4.29,0,0,0,1,2.79,7.19,7.19,0,0,0,3.07,2.15c.79.27,3.15,1,7.08,2.05A94.25,94.25,0,0,1,844.43,203a11.82,11.82,0,0,1,5.27,4.2,11.57,11.57,0,0,1,1.93,6.83,13.65,13.65,0,0,1-2.33,7.54,15.27,15.27,0,0,1-6.74,5.49,24.61,24.61,0,0,1-10,1.93c-6.16,0-10.82-1.29-14-3.83s-5.27-6.32-6.16-11.34"/><path class="i" d="M769.67,246.13l-.89-7.51a18.46,18.46,0,0,0,4.6.7,8.9,8.9,0,0,0,4.26-.89,7.72,7.72,0,0,0,2.64-2.51,41.08,41.08,0,0,0,2.45-5.95c.12-.46.37-1.1.7-2L765.5,180.69h8.62L784,208q1.93,5.24,3.44,10.94c.92-3.65,2-7.27,3.28-10.76l10.11-27.52h8l-18,48a92.53,92.53,0,0,1-4.5,10.72,16,16,0,0,1-4.91,5.83,11.56,11.56,0,0,1-6.56,1.84,16.42,16.42,0,0,1-5.18-1"/><path class="i" d="M707.36,207l8.15-.73a17.69,17.69,0,0,0,2.67,8,14.73,14.73,0,0,0,6.56,5.09,25.08,25.08,0,0,0,10,1.93,23.73,23.73,0,0,0,8.71-1.48,12.13,12.13,0,0,0,5.64-4,9.48,9.48,0,0,0,1.83-5.58,8.45,8.45,0,0,0-1.77-5.36,13,13,0,0,0-5.86-3.86,116.65,116.65,0,0,0-11.61-3.19q-9-2.16-12.6-4.05a17.94,17.94,0,0,1-7-6.1,14.77,14.77,0,0,1-2.3-8.09,16.7,16.7,0,0,1,2.82-9.26,17.31,17.31,0,0,1,8.19-6.49,30.48,30.48,0,0,1,11.95-2.24,33.07,33.07,0,0,1,12.78,2.33,18.24,18.24,0,0,1,8.52,6.89,19.67,19.67,0,0,1,3.22,10.27l-8.28.62c-.46-4.11-2-7.24-4.5-9.35s-6.38-3.16-11.37-3.16c-5.24,0-9,1-11.44,2.88a8.65,8.65,0,0,0-3.55,6.93,7.38,7.38,0,0,0,2.51,5.76c1.69,1.53,6,3.07,13,4.66s11.83,3,14.43,4.17a19.48,19.48,0,0,1,8.4,6.65,16.13,16.13,0,0,1,2.73,9.26,17.64,17.64,0,0,1-3,9.8,19.27,19.27,0,0,1-8.55,7.18A29.73,29.73,0,0,1,735.16,229a37.65,37.65,0,0,1-14.84-2.6,20.78,20.78,0,0,1-9.38-7.76A22.1,22.1,0,0,1,707.36,207"/><path class="j" d="M582.71,227.92V180.69h7.18v6.62a16.93,16.93,0,0,1,5.91-5.58,16.59,16.59,0,0,1,8.4-2.12,15.66,15.66,0,0,1,8.61,2.18,11.76,11.76,0,0,1,4.75,6.1c3.74-5.52,8.59-8.28,14.59-8.28,4.69,0,8.28,1.29,10.79,3.9s3.8,6.59,3.8,12v32.43h-8V198.16a22.88,22.88,0,0,0-.76-6.9,6.67,6.67,0,0,0-2.85-3.4,8.47,8.47,0,0,0-4.78-1.32,11.16,11.16,0,0,0-8.28,3.34c-2.21,2.21-3.31,5.73-3.31,10.61v27.43h-8V197.24c0-3.56-.64-6.22-2-8s-3.43-2.7-6.41-2.7a11.88,11.88,0,0,0-6.25,1.78,10.21,10.21,0,0,0-4.14,5.21,29.49,29.49,0,0,0-1.28,9.9v24.49Z"/><path class="k" d="M582.7,227.9V180.67h7.17v6.62a17,17,0,0,1,5.92-5.58,16.58,16.58,0,0,1,8.4-2.11,15.68,15.68,0,0,1,8.61,2.17,11.84,11.84,0,0,1,4.75,6.1c3.74-5.51,8.58-8.27,14.59-8.27,4.69,0,8.27,1.29,10.79,3.89s3.8,6.59,3.8,12V227.9h-8V198.14a22.73,22.73,0,0,0-.77-6.89,6.69,6.69,0,0,0-2.85-3.41,8.46,8.46,0,0,0-4.78-1.31,11.12,11.12,0,0,0-8.27,3.34q-3.32,3.3-3.31,10.6V227.9h-8V197.22c0-3.55-.65-6.22-2-8s-3.43-2.69-6.4-2.69a12,12,0,0,0-6.26,1.77,10.27,10.27,0,0,0-4.13,5.21,29.44,29.44,0,0,0-1.29,9.9V227.9Z"/><rect x="562.52" y="180.69" width="8.03" height="47.23"/><rect class="k" x="562.5" y="180.67" width="8.03" height="47.23"/><polygon class="j" points="512.49 227.92 512.49 162.72 521.11 162.72 521.11 220.23 553.23 220.23 553.23 227.92 512.49 227.92"/><polyline class="k" points="512.48 227.92 512.48 162.71 521.09 162.71 521.09 220.21 553.21 220.21 553.21 227.9 512.49 227.9"/><polygon class="j" points="726.65 245.57 726.65 236.62 733.12 236.62 733.12 237.7 727.85 237.7 727.85 240.43 732.81 240.43 732.81 241.5 727.85 241.5 727.85 244.53 733.33 244.53 733.33 245.57 726.65 245.57"/><polyline class="k" points="726.63 245.57 726.63 236.61 733.1 236.61 733.1 237.68 727.83 237.68 727.83 240.41 732.8 240.41 732.8 241.48 727.83 241.48 727.83 244.52 733.32 244.52 733.32 245.56 726.65 245.56"/><path class="j" d="M696.8,245.57v-8.95h4a5.72,5.72,0,0,1,1.84.25,2.14,2.14,0,0,1,1,.86,2.51,2.51,0,0,1,.37,1.35,2.16,2.16,0,0,1-.61,1.59,3,3,0,0,1-1.91.86,2,2,0,0,1,.71.43,5.58,5.58,0,0,1,1,1.19l1.53,2.42H703.2L702,243.73a12.73,12.73,0,0,0-.86-1.25,3.46,3.46,0,0,0-.58-.58,2,2,0,0,0-.56-.25,3.73,3.73,0,0,0-.67,0H698v3.95Z"/><path class="k" d="M696.78,245.56v-8.95h4a5.69,5.69,0,0,1,1.83.24,2.28,2.28,0,0,1,1,.86,2.6,2.6,0,0,1,.36,1.35,2.1,2.1,0,0,1-.61,1.59,3,3,0,0,1-1.9.86,2.22,2.22,0,0,1,.7.43,5.94,5.94,0,0,1,1,1.2l1.53,2.42h-1.47l-1.2-1.84a12.55,12.55,0,0,0-.86-1.26,3.47,3.47,0,0,0-.58-.58,2.19,2.19,0,0,0-.55-.24,2.86,2.86,0,0,0-.67,0H698v4Z"/><polygon class="j" points="667.3 245.57 670.73 236.62 672.02 236.62 675.67 245.57 674.32 245.57 673.27 242.88 669.54 242.88 668.55 245.57 667.3 245.57"/><polyline class="k" points="667.3 245.56 670.73 236.61 672.02 236.61 675.67 245.56 674.32 245.56 673.27 242.86 669.54 242.86 668.55 245.56 667.31 245.56"/><path class="j" d="M637.9,245.57l-2.36-8.95h1.2l1.38,5.89c.12.61.27,1.22.37,1.84.21-1,.36-1.53.39-1.66l1.72-6.07H642l1.29,4.54a22.24,22.24,0,0,1,.7,3.19c.1-.58.25-1.23.43-2l1.41-5.77H647l-2.45,8.95h-1.14l-1.9-6.8-.27-1c-.1.4-.19.76-.28,1l-1.9,6.8Z"/><path class="k" d="M637.9,245.56l-2.36-8.95h1.2l1.38,5.88c.12.62.27,1.23.37,1.84.21-1,.36-1.53.39-1.65l1.72-6.07H642l1.29,4.53a22.54,22.54,0,0,1,.7,3.19c.1-.58.25-1.22.43-2l1.41-5.76H647l-2.45,8.95h-1.14l-1.9-6.81-.27-1c-.1.4-.19.77-.28,1l-1.9,6.81Z"/><polygon class="j" points="610.39 245.57 610.39 237.7 607.45 237.7 607.45 236.62 614.53 236.62 614.53 237.7 611.59 237.7 611.59 245.57 610.39 245.57"/><polyline class="k" points="610.38 245.57 610.38 237.68 607.43 237.68 607.43 236.61 614.51 236.61 614.51 237.68 611.57 237.68 611.57 245.56 610.39 245.56"/><polygon class="j" points="579.92 245.57 579.92 236.62 585.96 236.62 585.96 237.7 581.12 237.7 581.12 240.46 585.32 240.46 585.32 241.53 581.12 241.53 581.12 245.57 579.92 245.57"/><polyline class="k" points="579.91 245.57 579.91 236.61 585.95 236.61 585.95 237.68 581.11 237.68 581.11 240.44 585.3 240.44 585.3 241.51 581.11 241.51 581.11 245.56 579.92 245.56"/><path class="j" d="M549,241.21a4.94,4.94,0,0,1,1.19-3.5,4.1,4.1,0,0,1,3.07-1.25,4.19,4.19,0,0,1,2.23.61A3.74,3.74,0,0,1,557,238.7a5.8,5.8,0,0,1,.52,2.42,5.32,5.32,0,0,1-.55,2.42,3.62,3.62,0,0,1-1.57,1.62,4.38,4.38,0,0,1-2.17.55,4.12,4.12,0,0,1-2.27-.61,3.86,3.86,0,0,1-1.5-1.65,5.05,5.05,0,0,1-.49-2.24"/><path class="k" d="M549,241.21a4.94,4.94,0,0,1,1.19-3.5,4.1,4.1,0,0,1,3.07-1.25,4.19,4.19,0,0,1,2.23.61A3.74,3.74,0,0,1,557,238.7a5.8,5.8,0,0,1,.52,2.42,5.32,5.32,0,0,1-.55,2.42,3.62,3.62,0,0,1-1.57,1.62,4.38,4.38,0,0,1-2.17.55,4.12,4.12,0,0,1-2.27-.61,3.86,3.86,0,0,1-1.5-1.65A5.05,5.05,0,0,1,549,241.21Z"/><path class="j" d="M519.75,242.71l1.1-.12a2.46,2.46,0,0,0,.37,1.1,1.91,1.91,0,0,0,.89.71,3.45,3.45,0,0,0,1.37.27,3.58,3.58,0,0,0,1.2-.21,1.51,1.51,0,0,0,.77-.55,1.27,1.27,0,0,0,.27-.77,1.28,1.28,0,0,0-.24-.74,2.08,2.08,0,0,0-.83-.52,13.3,13.3,0,0,0-1.59-.43,8.32,8.32,0,0,1-1.72-.58,2.23,2.23,0,0,1-1-.83,1.93,1.93,0,0,1-.31-1.1,2.3,2.3,0,0,1,.37-1.26,2.72,2.72,0,0,1,1.13-.92,4.82,4.82,0,0,1,1.63-.3,4.52,4.52,0,0,1,1.78.34,2.48,2.48,0,0,1,1.16.95,2.64,2.64,0,0,1,.43,1.41l-1.13.06a1.84,1.84,0,0,0-.62-1.26,2.34,2.34,0,0,0-1.56-.43,2.62,2.62,0,0,0-1.56.37,1.16,1.16,0,0,0-.49.95,1.08,1.08,0,0,0,.33.8,4.92,4.92,0,0,0,1.81.64,9.63,9.63,0,0,1,2,.58,2.54,2.54,0,0,1,1.17.89,2.32,2.32,0,0,1,.37,1.29,2.51,2.51,0,0,1-1.6,2.33,3.87,3.87,0,0,1-1.71.33,5.59,5.59,0,0,1-2-.33,2.72,2.72,0,0,1-1.28-1.08,2.61,2.61,0,0,1-.49-1.59"/><path class="k" d="M519.75,242.71l1.1-.12a2.46,2.46,0,0,0,.37,1.1,1.91,1.91,0,0,0,.89.71,3.45,3.45,0,0,0,1.37.27,3.58,3.58,0,0,0,1.2-.21,1.51,1.51,0,0,0,.77-.55,1.27,1.27,0,0,0,.27-.77,1.28,1.28,0,0,0-.24-.74,2.08,2.08,0,0,0-.83-.52,13.3,13.3,0,0,0-1.59-.43,8.32,8.32,0,0,1-1.72-.58,2.23,2.23,0,0,1-1-.83,1.93,1.93,0,0,1-.31-1.1,2.3,2.3,0,0,1,.37-1.26,2.72,2.72,0,0,1,1.13-.92,4.82,4.82,0,0,1,1.63-.3,4.52,4.52,0,0,1,1.78.34,2.48,2.48,0,0,1,1.16.95,2.64,2.64,0,0,1,.43,1.41l-1.13.06a1.84,1.84,0,0,0-.62-1.26,2.34,2.34,0,0,0-1.56-.43,2.62,2.62,0,0,0-1.56.37,1.16,1.16,0,0,0-.49.95,1.08,1.08,0,0,0,.33.8,4.92,4.92,0,0,0,1.81.64,9.63,9.63,0,0,1,2,.58,2.54,2.54,0,0,1,1.17.89,2.32,2.32,0,0,1,.37,1.29,2.51,2.51,0,0,1-1.6,2.33,3.87,3.87,0,0,1-1.71.33,5.59,5.59,0,0,1-2-.33,2.72,2.72,0,0,1-1.28-1.08A2.61,2.61,0,0,1,519.75,242.71Z"/><path class="g" d="M698,240.58h2.55a4.13,4.13,0,0,0,1.25-.16,1.42,1.42,0,0,0,.71-.55,1.44,1.44,0,0,0,.24-.79,1.34,1.34,0,0,0-.46-1.05,2.17,2.17,0,0,0-1.47-.39H698Z"/><path class="k" d="M698,240.56h2.54a4.66,4.66,0,0,0,1.26-.15,1.45,1.45,0,0,0,.7-.55,1.4,1.4,0,0,0,.25-.8,1.33,1.33,0,0,0-.46-1,2.15,2.15,0,0,0-1.47-.4H698Z"/><path class="g" d="M669.87,241.93h3l-.92-2.49c-.28-.76-.49-1.38-.65-1.87a10.8,10.8,0,0,1-.49,1.72Z"/><path class="k" d="M669.87,241.91h3l-.92-2.48c-.28-.77-.49-1.38-.65-1.87a11.43,11.43,0,0,1-.49,1.72Z"/><path class="g" d="M550.15,241.24a3.57,3.57,0,0,0,.89,2.54,2.83,2.83,0,0,0,2.18.92,2.87,2.87,0,0,0,2.2-.92,3.77,3.77,0,0,0,.86-2.66,4.62,4.62,0,0,0-.37-1.93,3.06,3.06,0,0,0-1.07-1.26,2.86,2.86,0,0,0-1.59-.43,3,3,0,0,0-2.18.86,3.83,3.83,0,0,0-.92,2.88"/><path class="k" d="M550.15,241.24a3.57,3.57,0,0,0,.89,2.54,2.83,2.83,0,0,0,2.18.92,2.87,2.87,0,0,0,2.2-.92,3.77,3.77,0,0,0,.86-2.66,4.62,4.62,0,0,0-.37-1.93,3.06,3.06,0,0,0-1.07-1.26,2.86,2.86,0,0,0-1.59-.43,3,3,0,0,0-2.18.86A3.83,3.83,0,0,0,550.15,241.24Z"/><path class="j" d="M677.79,229c-6.62,0-11.95-2.12-16-6.35s-6.13-10.36-6.13-18.32c0-8.77,2.42-15.24,7.3-19.47a22,22,0,0,1,14.86-5.24v6.62a12.67,12.67,0,0,0-10,4.51c-2.63,3-4,7.51-4,13.58s1.32,10.57,4,13.57a12.67,12.67,0,0,0,10,4.51V229"/><path class="k" d="M677.78,229c-6.62,0-11.95-2.12-16-6.35"/><path class="k" d="M661.75,222.63q-6.12-6.39-6.13-18.32"/><path class="k" d="M655.62,204.31c0-8.77,2.42-15.24,7.3-19.47"/><path class="j" d="M677.79,179.6h0q9.75,0,15.91,6.38c4.14,4.26,6.19,10.14,6.19,17.65,0,6.07-.92,10.85-2.73,14.35a19.35,19.35,0,0,1-8,8.12A23.22,23.22,0,0,1,677.79,229v-6.59a12.54,12.54,0,0,0,9.9-4.54c2.67-3,4-7.63,4-13.82,0-5.85-1.35-10.27-4-13.27a12.63,12.63,0,0,0-9.9-4.54v-6.61"/><path class="l" d="M677.78,179.6q9.75,0,15.91,6.38"/><path class="l" d="M693.69,186c4.14,4.26,6.19,10.14,6.19,17.65"/><path class="l" d="M699.88,203.63c0,6.07-.92,10.85-2.73,14.35"/><path class="l" d="M697.15,218a19.37,19.37,0,0,1-8,8.12"/><path class="l" d="M689.18,226.1a23.16,23.16,0,0,1-11.4,2.88"/><line class="l" x1="677.78" y1="228.99" x2="677.78" y2="222.4"/><path class="l" d="M677.78,222.39a12.55,12.55,0,0,0,9.9-4.54"/><path class="l" d="M687.68,217.85c2.67-3,4-7.63,4-13.82"/><line class="l" x1="677.78" y1="186.23" x2="677.78" y2="179.61"/><path class="m" d="M566.64,170.08h6.29a6.29,6.29,0,0,1-7.73,6.13,6.18,6.18,0,0,1-4.69-4.68,6.29,6.29,0,1,1,12.42-1.45Z"/></g></g><line class="n" y1="337" x2="697.19" y2="337.89"/><polygon class="o" points="680.49 394.72 779 338 680.63 281.03 680.49 394.72"/><line class="p" x1="1368" y1="67" x2="672.81" y2="69.68"/><polygon class="q" points="689.22 12.78 591 70 689.66 126.46 689.22 12.78"/><text class="r" transform="translate(700 76.41)"><tspan class="s">A</tspan><tspan x="18.51" y="0" xml:space="preserve"> leader on transportation</tspan><tspan class="t" x="336.55" y="0">’</tspan><tspan x="343.06" y="0">s software solutions</tspan></text><text class="r" transform="translate(55 345.41)"><tspan class="u">W</tspan><tspan x="25.01" y="0">e do I</tspan><tspan class="v" x="95.52" y="0">T</tspan><tspan x="109.02" y="0">, consulting, and training for our clients</tspan></text></svg>