<?xml version="1.0" encoding="utf-8"?>
<!-- Generator: Adobe Illustrator 22.1.0, SVG Export Plug-In . SVG Version: 6.00 Build 0)  -->
<svg version="1.1" id="_x35_f32dfc8-e47c-4133-bbc6-cc330eb789a9"
	 xmlns="http://www.w3.org/2000/svg" xmlns:xlink="http://www.w3.org/1999/xlink" x="0px" y="0px" viewBox="0 0 2300 500"
	 style="enable-background:new 0 0 2300 500;" xml:space="preserve">
<style type="text/css">
	.st0{opacity:0.38;}
	.st1{fill:#075C82;}
	.st2{fill:#0075B2;}
	.st3{opacity:0.53;clip-path:url(#SVGID_2_);}
	.st4{opacity:0.25;fill:none;stroke:#FFFFFF;stroke-miterlimit:10;}
	.st5{opacity:0.255;fill:none;stroke:#FDFEFE;stroke-miterlimit:10;}
	.st6{opacity:0.2599;fill:none;stroke:#FCFDFE;stroke-miterlimit:10;}
	.st7{opacity:0.2649;fill:none;stroke:#FAFCFD;stroke-miterlimit:10;}
	.st8{opacity:0.2699;fill:none;stroke:#F8FBFD;stroke-miterlimit:10;}
	.st9{opacity:0.2748;fill:none;stroke:#F7FBFD;stroke-miterlimit:10;}
	.st10{opacity:0.2798;fill:none;stroke:#F5FAFC;stroke-miterlimit:10;}
	.st11{opacity:0.2848;fill:none;stroke:#F3F9FB;stroke-miterlimit:10;}
	.st12{opacity:0.2897;fill:none;stroke:#F1F7FB;stroke-miterlimit:10;}
	.st13{opacity:0.2947;fill:none;stroke:#F0F7FA;stroke-miterlimit:10;}
	.st14{opacity:0.2997;fill:none;stroke:#EEF6FA;stroke-miterlimit:10;}
	.st15{opacity:0.3046;fill:none;stroke:#ECF5F9;stroke-miterlimit:10;}
	.st16{opacity:0.3096;fill:none;stroke:#EBF4F9;stroke-miterlimit:10;}
	.st17{opacity:0.3146;fill:none;stroke:#E9F3F8;stroke-miterlimit:10;}
	.st18{opacity:0.3195;fill:none;stroke:#E7F2F8;stroke-miterlimit:10;}
	.st19{opacity:0.3245;fill:none;stroke:#E6F1F7;stroke-miterlimit:10;}
	.st20{opacity:0.3295;fill:none;stroke:#E4F0F7;stroke-miterlimit:10;}
	.st21{opacity:0.3344;fill:none;stroke:#E2EFF6;stroke-miterlimit:10;}
	.st22{opacity:0.3394;fill:none;stroke:#E1EFF6;stroke-miterlimit:10;}
	.st23{opacity:0.3444;fill:none;stroke:#DFEEF5;stroke-miterlimit:10;}
	.st24{opacity:0.3493;fill:none;stroke:#DDEDF5;stroke-miterlimit:10;}
	.st25{opacity:0.3543;fill:none;stroke:#DCECF4;stroke-miterlimit:10;}
	.st26{opacity:0.3593;fill:none;stroke:#DAEBF4;stroke-miterlimit:10;}
	.st27{opacity:0.3642;fill:none;stroke:#D8EAF3;stroke-miterlimit:10;}
	.st28{opacity:0.3692;fill:none;stroke:#D6E9F3;stroke-miterlimit:10;}
	.st29{opacity:0.3742;fill:none;stroke:#D5E8F2;stroke-miterlimit:10;}
	.st30{opacity:0.3791;fill:none;stroke:#D3E7F2;stroke-miterlimit:10;}
	.st31{opacity:0.3841;fill:none;stroke:#D1E6F1;stroke-miterlimit:10;}
	.st32{opacity:0.3891;fill:none;stroke:#D0E6F1;stroke-miterlimit:10;}
	.st33{opacity:0.394;fill:none;stroke:#CEE4F0;stroke-miterlimit:10;}
	.st34{opacity:0.399;fill:none;stroke:#CCE3F0;stroke-miterlimit:10;}
	.st35{opacity:0.404;fill:none;stroke:#CBE3EF;stroke-miterlimit:10;}
	.st36{opacity:0.4089;fill:none;stroke:#C9E2EF;stroke-miterlimit:10;}
	.st37{opacity:0.4139;fill:none;stroke:#C7E1EE;stroke-miterlimit:10;}
	.st38{opacity:0.4189;fill:none;stroke:#C6E0EE;stroke-miterlimit:10;}
	.st39{opacity:0.4238;fill:none;stroke:#C4DFED;stroke-miterlimit:10;}
	.st40{opacity:0.4288;fill:none;stroke:#C2DEED;stroke-miterlimit:10;}
	.st41{opacity:0.4338;fill:none;stroke:#C1DDEC;stroke-miterlimit:10;}
	.st42{opacity:0.4387;fill:none;stroke:#BFDCEC;stroke-miterlimit:10;}
	.st43{opacity:0.4437;fill:none;stroke:#BDDBEB;stroke-miterlimit:10;}
	.st44{opacity:0.4487;fill:none;stroke:#BBDAEA;stroke-miterlimit:10;}
	.st45{opacity:0.4536;fill:none;stroke:#BADAEA;stroke-miterlimit:10;}
	.st46{opacity:0.4586;fill:none;stroke:#B8D9EA;stroke-miterlimit:10;}
	.st47{opacity:0.4636;fill:none;stroke:#B6D7E9;stroke-miterlimit:10;}
	.st48{opacity:0.4685;fill:none;stroke:#B5D7E9;stroke-miterlimit:10;}
	.st49{opacity:0.4735;fill:none;stroke:#B3D6E8;stroke-miterlimit:10;}
	.st50{opacity:0.4785;fill:none;stroke:#B1D5E7;stroke-miterlimit:10;}
	.st51{opacity:0.4834;fill:none;stroke:#B0D4E7;stroke-miterlimit:10;}
	.st52{opacity:0.4884;fill:none;stroke:#AED3E7;stroke-miterlimit:10;}
	.st53{opacity:0.4934;fill:none;stroke:#ACD2E6;stroke-miterlimit:10;}
	.st54{opacity:0.4983;fill:none;stroke:#ABD2E6;stroke-miterlimit:10;}
	.st55{opacity:0.5033;fill:none;stroke:#A9D0E5;stroke-miterlimit:10;}
	.st56{opacity:0.5083;fill:none;stroke:#A7CFE4;stroke-miterlimit:10;}
	.st57{opacity:0.5132;fill:none;stroke:#A5CEE4;stroke-miterlimit:10;}
	.st58{opacity:0.5182;fill:none;stroke:#A4CEE4;stroke-miterlimit:10;}
	.st59{opacity:0.5232;fill:none;stroke:#A2CDE3;stroke-miterlimit:10;}
	.st60{opacity:0.5281;fill:none;stroke:#A0CCE2;stroke-miterlimit:10;}
	.st61{opacity:0.5331;fill:none;stroke:#9FCBE2;stroke-miterlimit:10;}
	.st62{opacity:0.5381;fill:none;stroke:#9DCAE1;stroke-miterlimit:10;}
	.st63{opacity:0.543;fill:none;stroke:#9BC9E1;stroke-miterlimit:10;}
	.st64{opacity:0.548;fill:none;stroke:#9AC8E0;stroke-miterlimit:10;}
	.st65{opacity:0.553;fill:none;stroke:#98C7E0;stroke-miterlimit:10;}
	.st66{opacity:0.5579;fill:none;stroke:#96C6DF;stroke-miterlimit:10;}
	.st67{opacity:0.5629;fill:none;stroke:#95C6DF;stroke-miterlimit:10;}
	.st68{opacity:0.5679;fill:none;stroke:#93C5DE;stroke-miterlimit:10;}
	.st69{opacity:0.5728;fill:none;stroke:#91C3DE;stroke-miterlimit:10;}
	.st70{opacity:0.5778;fill:none;stroke:#90C3DD;stroke-miterlimit:10;}
	.st71{opacity:0.5828;fill:none;stroke:#8EC2DD;stroke-miterlimit:10;}
	.st72{opacity:0.5877;fill:none;stroke:#8CC1DC;stroke-miterlimit:10;}
	.st73{opacity:0.5927;fill:none;stroke:#8AC0DC;stroke-miterlimit:10;}
	.st74{opacity:0.5977;fill:none;stroke:#89BFDB;stroke-miterlimit:10;}
	.st75{opacity:0.6026;fill:none;stroke:#87BEDB;stroke-miterlimit:10;}
	.st76{opacity:0.6076;fill:none;stroke:#85BDDA;stroke-miterlimit:10;}
	.st77{opacity:0.6126;fill:none;stroke:#84BCDA;stroke-miterlimit:10;}
	.st78{opacity:0.6175;fill:none;stroke:#82BBD9;stroke-miterlimit:10;}
	.st79{opacity:0.6225;fill:none;stroke:#80BAD9;stroke-miterlimit:10;}
	.st80{opacity:0.6275;fill:none;stroke:#7FBAD8;stroke-miterlimit:10;}
	.st81{opacity:0.6325;fill:none;stroke:#7DB9D8;stroke-miterlimit:10;}
	.st82{opacity:0.6374;fill:none;stroke:#7BB8D7;stroke-miterlimit:10;}
	.st83{opacity:0.6424;fill:none;stroke:#7AB7D7;stroke-miterlimit:10;}
	.st84{opacity:0.6474;fill:none;stroke:#78B6D6;stroke-miterlimit:10;}
	.st85{opacity:0.6523;fill:none;stroke:#76B5D6;stroke-miterlimit:10;}
	.st86{opacity:0.6573;fill:none;stroke:#75B4D5;stroke-miterlimit:10;}
	.st87{opacity:0.6623;fill:none;stroke:#73B3D5;stroke-miterlimit:10;}
	.st88{opacity:0.6672;fill:none;stroke:#71B2D4;stroke-miterlimit:10;}
	.st89{opacity:0.6722;fill:none;stroke:#6FB1D4;stroke-miterlimit:10;}
	.st90{opacity:0.6772;fill:none;stroke:#6EB1D3;stroke-miterlimit:10;}
	.st91{opacity:0.6821;fill:none;stroke:#6CAFD3;stroke-miterlimit:10;}
	.st92{opacity:0.6871;fill:none;stroke:#6AAED2;stroke-miterlimit:10;}
	.st93{opacity:0.6921;fill:none;stroke:#69AED2;stroke-miterlimit:10;}
	.st94{opacity:0.697;fill:none;stroke:#67ADD1;stroke-miterlimit:10;}
	.st95{opacity:0.702;fill:none;stroke:#65ACD0;stroke-miterlimit:10;}
	.st96{opacity:0.707;fill:none;stroke:#64ABD0;stroke-miterlimit:10;}
	.st97{opacity:0.7119;fill:none;stroke:#62AAD0;stroke-miterlimit:10;}
	.st98{opacity:0.7169;fill:none;stroke:#60A9CF;stroke-miterlimit:10;}
	.st99{opacity:0.7219;fill:none;stroke:#5FA8CF;stroke-miterlimit:10;}
	.st100{opacity:0.7268;fill:none;stroke:#5DA7CE;stroke-miterlimit:10;}
	.st101{opacity:0.7318;fill:none;stroke:#5BA6CD;stroke-miterlimit:10;}
	.st102{opacity:0.7368;fill:none;stroke:#5AA6CD;stroke-miterlimit:10;}
	.st103{opacity:0.7417;fill:none;stroke:#58A5CD;stroke-miterlimit:10;}
	.st104{opacity:0.7467;fill:none;stroke:#56A4CC;stroke-miterlimit:10;}
	.st105{opacity:0.7517;fill:none;stroke:#54A2CB;stroke-miterlimit:10;}
	.st106{opacity:0.7566;fill:none;stroke:#53A2CB;stroke-miterlimit:10;}
	.st107{opacity:0.7616;fill:none;stroke:#51A1CA;stroke-miterlimit:10;}
	.st108{opacity:0.7666;fill:none;stroke:#4FA0CA;stroke-miterlimit:10;}
	.st109{opacity:0.7715;fill:none;stroke:#4E9FCA;stroke-miterlimit:10;}
	.st110{opacity:0.7765;fill:none;stroke:#4C9EC9;stroke-miterlimit:10;}
	.st111{opacity:0.7815;fill:none;stroke:#4A9DC8;stroke-miterlimit:10;}
	.st112{opacity:0.7864;fill:none;stroke:#499DC8;stroke-miterlimit:10;}
	.st113{opacity:0.7914;fill:none;stroke:#479BC7;stroke-miterlimit:10;}
	.st114{opacity:0.7964;fill:none;stroke:#459AC7;stroke-miterlimit:10;}
	.st115{opacity:0.8013;fill:none;stroke:#449AC7;stroke-miterlimit:10;}
	.st116{opacity:0.8063;fill:none;stroke:#4299C6;stroke-miterlimit:10;}
	.st117{opacity:0.8113;fill:none;stroke:#4098C5;stroke-miterlimit:10;}
	.st118{opacity:0.8162;fill:none;stroke:#3E97C5;stroke-miterlimit:10;}
	.st119{opacity:0.8212;fill:none;stroke:#3D96C4;stroke-miterlimit:10;}
	.st120{opacity:0.8262;fill:none;stroke:#3B95C4;stroke-miterlimit:10;}
	.st121{opacity:0.8311;fill:none;stroke:#3994C3;stroke-miterlimit:10;}
	.st122{opacity:0.8361;fill:none;stroke:#3893C3;stroke-miterlimit:10;}
	.st123{opacity:0.8411;fill:none;stroke:#3692C2;stroke-miterlimit:10;}
	.st124{opacity:0.846;fill:none;stroke:#3491C2;stroke-miterlimit:10;}
	.st125{opacity:0.851;fill:none;stroke:#3391C1;stroke-miterlimit:10;}
	.st126{opacity:0.856;fill:none;stroke:#3190C1;stroke-miterlimit:10;}
	.st127{opacity:0.8609;fill:none;stroke:#2F8EC0;stroke-miterlimit:10;}
	.st128{opacity:0.8659;fill:none;stroke:#2E8EC0;stroke-miterlimit:10;}
	.st129{opacity:0.8709;fill:none;stroke:#2C8DBF;stroke-miterlimit:10;}
	.st130{opacity:0.8758;fill:none;stroke:#2A8CBF;stroke-miterlimit:10;}
	.st131{opacity:0.8808;fill:none;stroke:#298BBE;stroke-miterlimit:10;}
	.st132{opacity:0.8858;fill:none;stroke:#278ABE;stroke-miterlimit:10;}
	.st133{opacity:0.8907;fill:none;stroke:#2589BD;stroke-miterlimit:10;}
	.st134{opacity:0.8957;fill:none;stroke:#2388BD;stroke-miterlimit:10;}
	.st135{opacity:0.9007;fill:none;stroke:#2287BC;stroke-miterlimit:10;}
	.st136{opacity:0.9056;fill:none;stroke:#2086BC;stroke-miterlimit:10;}
	.st137{opacity:0.9106;fill:none;stroke:#1E85BB;stroke-miterlimit:10;}
	.st138{opacity:0.9156;fill:none;stroke:#1D85BB;stroke-miterlimit:10;}
	.st139{opacity:0.9205;fill:none;stroke:#1B84BA;stroke-miterlimit:10;}
	.st140{opacity:0.9255;fill:none;stroke:#1983BA;stroke-miterlimit:10;}
	.st141{opacity:0.9305;fill:none;stroke:#1882B9;stroke-miterlimit:10;}
	.st142{opacity:0.9354;fill:none;stroke:#1681B9;stroke-miterlimit:10;}
	.st143{opacity:0.9404;fill:none;stroke:#1480B8;stroke-miterlimit:10;}
	.st144{opacity:0.9454;fill:none;stroke:#137FB8;stroke-miterlimit:10;}
	.st145{opacity:0.9503;fill:none;stroke:#117EB7;stroke-miterlimit:10;}
	.st146{opacity:0.9553;fill:none;stroke:#0F7DB7;stroke-miterlimit:10;}
	.st147{opacity:0.9603;fill:none;stroke:#0E7DB6;stroke-miterlimit:10;}
	.st148{opacity:0.9652;fill:none;stroke:#0C7BB6;stroke-miterlimit:10;}
	.st149{opacity:0.9702;fill:none;stroke:#0A7AB5;stroke-miterlimit:10;}
	.st150{opacity:0.9752;fill:none;stroke:#0879B4;stroke-miterlimit:10;}
	.st151{opacity:0.9801;fill:none;stroke:#0779B4;stroke-miterlimit:10;}
	.st152{opacity:0.9851;fill:none;stroke:#0578B4;stroke-miterlimit:10;}
	.st153{opacity:0.9901;fill:none;stroke:#0377B3;stroke-miterlimit:10;}
	.st154{opacity:0.995;fill:none;stroke:#0276B3;stroke-miterlimit:10;}
	.st155{fill:none;stroke:#0075B2;stroke-miterlimit:10;}
	.st156{clip-path:url(#SVGID_2_);fill:none;stroke:#83D0F2;stroke-miterlimit:10;}
	.st157{opacity:0.17;clip-path:url(#SVGID_2_);}
	.st158{fill:none;stroke:#0276B3;stroke-miterlimit:10;}
	.st159{fill:none;stroke:#0478B4;stroke-miterlimit:10;}
	.st160{fill:none;stroke:#0679B5;stroke-miterlimit:10;}
	.st161{fill:none;stroke:#077AB6;stroke-miterlimit:10;}
	.st162{fill:none;stroke:#097BB7;stroke-miterlimit:10;}
	.st163{fill:none;stroke:#0B7DB7;stroke-miterlimit:10;}
	.st164{fill:none;stroke:#0D7EB8;stroke-miterlimit:10;}
	.st165{fill:none;stroke:#0F7FB9;stroke-miterlimit:10;}
	.st166{fill:none;stroke:#1181BA;stroke-miterlimit:10;}
	.st167{fill:none;stroke:#1282BB;stroke-miterlimit:10;}
	.st168{fill:none;stroke:#1483BC;stroke-miterlimit:10;}
	.st169{fill:none;stroke:#1684BD;stroke-miterlimit:10;}
	.st170{fill:none;stroke:#1886BE;stroke-miterlimit:10;}
	.st171{fill:none;stroke:#1A87BF;stroke-miterlimit:10;}
	.st172{fill:none;stroke:#1C88C0;stroke-miterlimit:10;}
	.st173{fill:none;stroke:#1E8AC0;stroke-miterlimit:10;}
	.st174{fill:none;stroke:#1F8BC1;stroke-miterlimit:10;}
	.st175{fill:none;stroke:#218CC2;stroke-miterlimit:10;}
	.st176{fill:none;stroke:#238DC3;stroke-miterlimit:10;}
	.st177{fill:none;stroke:#258FC4;stroke-miterlimit:10;}
	.st178{fill:none;stroke:#2790C5;stroke-miterlimit:10;}
	.st179{fill:none;stroke:#2991C6;stroke-miterlimit:10;}
	.st180{fill:none;stroke:#2A92C7;stroke-miterlimit:10;}
	.st181{fill:none;stroke:#2C94C8;stroke-miterlimit:10;}
	.st182{fill:none;stroke:#2E95C9;stroke-miterlimit:10;}
	.st183{fill:none;stroke:#3096C9;stroke-miterlimit:10;}
	.st184{fill:none;stroke:#3298CA;stroke-miterlimit:10;}
	.st185{fill:none;stroke:#3499CB;stroke-miterlimit:10;}
	.st186{fill:none;stroke:#369ACC;stroke-miterlimit:10;}
	.st187{fill:none;stroke:#379BCD;stroke-miterlimit:10;}
	.st188{fill:none;stroke:#399DCE;stroke-miterlimit:10;}
	.st189{fill:none;stroke:#3B9ECF;stroke-miterlimit:10;}
	.st190{fill:none;stroke:#3D9FD0;stroke-miterlimit:10;}
	.st191{fill:none;stroke:#3FA1D1;stroke-miterlimit:10;}
	.st192{fill:none;stroke:#41A2D2;stroke-miterlimit:10;}
	.st193{fill:none;stroke:#42A3D2;stroke-miterlimit:10;}
	.st194{fill:none;stroke:#44A4D3;stroke-miterlimit:10;}
	.st195{fill:none;stroke:#46A6D4;stroke-miterlimit:10;}
	.st196{fill:none;stroke:#48A7D5;stroke-miterlimit:10;}
	.st197{fill:none;stroke:#4AA8D6;stroke-miterlimit:10;}
	.st198{fill:none;stroke:#4CAAD7;stroke-miterlimit:10;}
	.st199{fill:none;stroke:#4DABD8;stroke-miterlimit:10;}
	.st200{fill:none;stroke:#4FACD9;stroke-miterlimit:10;}
	.st201{fill:none;stroke:#51ADDA;stroke-miterlimit:10;}
	.st202{fill:none;stroke:#53AFDB;stroke-miterlimit:10;}
	.st203{fill:none;stroke:#55B0DB;stroke-miterlimit:10;}
	.st204{fill:none;stroke:#57B1DC;stroke-miterlimit:10;}
	.st205{fill:none;stroke:#59B3DD;stroke-miterlimit:10;}
	.st206{fill:none;stroke:#5AB4DE;stroke-miterlimit:10;}
	.st207{fill:none;stroke:#5CB5DF;stroke-miterlimit:10;}
	.st208{fill:none;stroke:#5EB6E0;stroke-miterlimit:10;}
	.st209{fill:none;stroke:#60B8E1;stroke-miterlimit:10;}
	.st210{fill:none;stroke:#62B9E2;stroke-miterlimit:10;}
	.st211{fill:none;stroke:#64BAE3;stroke-miterlimit:10;}
	.st212{fill:none;stroke:#65BBE4;stroke-miterlimit:10;}
	.st213{fill:none;stroke:#67BDE4;stroke-miterlimit:10;}
	.st214{fill:none;stroke:#69BEE5;stroke-miterlimit:10;}
	.st215{fill:none;stroke:#6BBFE6;stroke-miterlimit:10;}
	.st216{fill:none;stroke:#6DC1E7;stroke-miterlimit:10;}
	.st217{fill:none;stroke:#6FC2E8;stroke-miterlimit:10;}
	.st218{fill:none;stroke:#71C3E9;stroke-miterlimit:10;}
	.st219{fill:none;stroke:#72C4EA;stroke-miterlimit:10;}
	.st220{fill:none;stroke:#74C6EB;stroke-miterlimit:10;}
	.st221{fill:none;stroke:#76C7EC;stroke-miterlimit:10;}
	.st222{fill:none;stroke:#78C8ED;stroke-miterlimit:10;}
	.st223{fill:none;stroke:#7ACAED;stroke-miterlimit:10;}
	.st224{fill:none;stroke:#7CCBEE;stroke-miterlimit:10;}
	.st225{fill:none;stroke:#7DCCEF;stroke-miterlimit:10;}
	.st226{fill:none;stroke:#7FCDF0;stroke-miterlimit:10;}
	.st227{fill:none;stroke:#81CFF1;stroke-miterlimit:10;}
	.st228{fill:none;stroke:#83D0F2;stroke-miterlimit:10;}
	.st229{clip-path:url(#SVGID_2_);}
	.st230{opacity:0.53;fill:url(#SVGID_3_);stroke:url(#SVGID_4_);stroke-miterlimit:10;}
	.st231{fill:#FFFFFF;}
	.st232{enable-background:new    ;}
	.st233{fill:#F79548;}
	.st234{fill:#F4AB0B;}
	.st235{fill:#00A2A5;}
	.st236{fill:#8967AC;}
	.st237{fill:#FFCC4E;}
	.st238{fill:#EF413D;}
	.st239{fill:#00B26B;}
	.st240{fill:#00A5D3;}
	.st241{fill:#54C2BA;}
	.st242{fill:#6C3F99;}
	.st243{fill:#D71440;}
	.st244{fill:#92278F;}
	.st245{fill:#A3CF62;}
	.st246{fill:#43408E;}
	.st247{fill:#00A188;}
	.st248{fill:#3A4A9F;}
	.st249{fill:none;}
</style>
<g class="st0">
	<path class="st1" d="M2.3,499.9v-500h2300l-1.9,500H2.3z"/>
</g>
<rect y="0.7" class="st2" width="2298.7" height="499"/>
<g>
	<defs>
		<rect id="SVGID_1_" y="0.7" width="2298.7" height="499"/>
	</defs>
	<clipPath id="SVGID_2_">
		<use xlink:href="#SVGID_1_"  style="overflow:visible;"/>
	</clipPath>
	<g class="st3">
		<path class="st4" d="M2300,500.6c137.1-1.8,247.8-113.5,247.8-251S2437.1,0.4,2300-1.4c0,0,0.2,1.1,0.4,2.8"/>
		<path class="st5" d="M2286.7,0.7c-0.2-1.6-0.4-2.7-0.4-2.7c135,1.8,243.8,113.8,243.8,251.7c0,137.9-108.9,249.9-243.8,251.7"/>
		<path class="st6" d="M2273,0c-0.2-1.6-0.4-2.7-0.4-2.7c132.8,1.8,239.9,114.1,239.9,252.4c0,138.3-107.1,250.6-239.8,252.4"/>
		<path class="st7" d="M2259.3-0.7c-0.2-1.6-0.4-2.7-0.5-2.7c130.6,1.8,236,114.4,236,253.1c0,138.7-105.3,251.3-235.9,253.1"/>
		<path class="st8" d="M2245.5-1.4c-0.2-1.6-0.4-2.7-0.5-2.7c128.4,1.8,232,114.7,232,253.8c0,139.1-103.6,252-231.9,253.8"/>
		<path class="st9" d="M2231.8-2.1c-0.2-1.6-0.5-2.7-0.5-2.7c126.2,1.9,228.1,115,228.1,254.4c0,139.4-101.8,252.7-228,254.4"/>
		<path class="st10" d="M2218.1-2.8c-0.3-1.6-0.5-2.7-0.5-2.7c124,1.9,224.1,115.4,224.1,255.1c0,139.8-100,253.3-224,255.1"/>
		<path class="st11" d="M2204.4-3.5c-0.3-1.6-0.5-2.6-0.6-2.6c121.9,1.9,220.2,115.7,220.2,255.8c0,140.2-98.2,254-220,255.8"/>
		<path class="st12" d="M2190.7-4.3c-0.3-1.6-0.5-2.6-0.6-2.6c119.7,1.9,216.3,116,216.3,256.5c0,140.6-96.5,254.7-216.1,256.5"/>
		<path class="st13" d="M2177-5c-0.3-1.6-0.5-2.6-0.6-2.6c117.5,1.9,212.3,116.3,212.3,257.2c0,140.9-94.7,255.4-212.1,257.2"/>
		<path class="st14" d="M2163.3-5.7c-0.3-1.5-0.5-2.6-0.6-2.6c115.3,1.9,208.4,116.6,208.4,257.9c0,141.3-92.9,256.1-208.1,257.9"/>
		<path class="st15" d="M2149.6-6.4c-0.3-1.5-0.6-2.6-0.6-2.6c113.1,2,204.5,117,204.5,258.6c0,141.7-91.2,256.8-204.2,258.6"/>
		<path class="st16" d="M2135.9-7.1c-0.3-1.5-0.6-2.5-0.7-2.5c111,2,200.5,117.3,200.5,259.3c0,142.1-89.4,257.4-200.2,259.3"/>
		<path class="st17" d="M2122.1-7.8c-0.3-1.5-0.6-2.5-0.7-2.5c108.8,2,196.6,117.6,196.6,259.9c0,142.5-87.6,258.1-196.3,260"/>
		<path class="st18" d="M2108.4-8.5c-0.3-1.5-0.6-2.5-0.7-2.5c106.6,2,192.7,117.9,192.7,260.6c0,142.8-85.9,258.8-192.3,260.6"/>
		<path class="st19" d="M2094.7-9.2c-0.3-1.5-0.6-2.5-0.7-2.5c104.4,2,188.7,118.2,188.7,261.3c0,143.2-84.1,259.5-188.3,261.3"/>
		<path class="st20" d="M2081-9.9c-0.3-1.5-0.6-2.5-0.8-2.5c102.2,2.1,184.8,118.6,184.8,262c0,143.6-82.3,260.2-184.4,262"/>
		<path class="st21" d="M2067.3-10.6c-0.3-1.5-0.6-2.5-0.8-2.4c100.1,2.1,180.9,118.9,180.9,262.7c0,144-80.6,260.9-180.4,262.7"/>
		<path class="st22" d="M2053.6-11.3c-0.3-1.5-0.7-2.4-0.8-2.4c97.9,2.1,176.9,119.2,176.9,263.4c0,144.3-78.8,261.6-176.5,263.4"/>
		<path class="st23" d="M2039.9-12c-0.3-1.4-0.7-2.4-0.8-2.4c95.7,2.1,173,119.5,173,264.1c0,144.7-77,262.2-172.5,264.1"/>
		<path class="st24" d="M2026.2-12.7c-0.4-1.4-0.7-2.4-0.9-2.4c93.5,2.1,169.1,119.8,169.1,264.8c0,145.1-75.3,262.9-168.5,264.8"/>
		<path class="st25" d="M2012.4-13.4c-0.4-1.4-0.7-2.4-0.9-2.4c91.3,2.2,165.1,120.2,165.1,265.5c0,145.5-73.5,263.6-164.6,265.5"/>
		<path class="st26" d="M1998.7-14.1c-0.4-1.4-0.7-2.4-0.9-2.4C2087-14.3,2159,104,2159,249.7c0,145.9-71.7,264.3-160.6,266.2"/>
		<path class="st27" d="M1985-14.8c-0.4-1.4-0.7-2.3-0.9-2.3c87,2.2,157.2,120.8,157.2,266.8c0,146.2-69.9,265-156.6,266.8"/>
		<path class="st28" d="M1971.3-15.5c-0.4-1.4-0.7-2.3-1-2.3c84.8,2.2,153.3,121.1,153.3,267.5c0,146.6-68.2,265.7-152.7,267.5"/>
		<path class="st29" d="M1957.6-16.2c-0.4-1.4-0.8-2.3-1-2.3c82.6,2.2,149.4,121.4,149.4,268.2c0,147-66.4,266.3-148.7,268.2"/>
		<path class="st30" d="M1943.9-16.9c-0.4-1.4-0.8-2.3-1-2.3c80.4,2.2,145.4,121.8,145.4,268.9c0,147.4-64.6,267-144.8,268.9"/>
		<path class="st31" d="M1930.2-17.7c-0.4-1.4-0.8-2.3-1-2.3c78.3,2.3,141.5,122.1,141.5,269.6c0,147.7-62.9,267.7-140.8,269.6"/>
		<path class="st32" d="M1916.5-18.4c-0.4-1.3-0.8-2.2-1-2.2c76.1,2.3,137.6,122.4,137.6,270.3c0,148.1-61.1,268.4-136.8,270.3"/>
		<path class="st33" d="M1902.8-19.1c-0.4-1.3-0.8-2.2-1.1-2.2c73.9,2.3,133.6,122.7,133.6,271c0,148.5-59.3,269.1-132.9,271"/>
		<path class="st34" d="M1889-19.8c-0.4-1.3-0.8-2.2-1.1-2.2c71.7,2.3,129.7,123,129.7,271.6c0,148.9-57.6,269.8-128.9,271.7"/>
		<path class="st35" d="M1875.3-20.5c-0.4-1.3-0.8-2.2-1.1-2.2c69.5,2.3,125.8,123.4,125.8,272.3c0,149.2-55.8,270.4-125,272.4"/>
		<path class="st36" d="M1861.6-21.2c-0.4-1.3-0.9-2.2-1.1-2.2c67.4,2.4,121.8,123.7,121.8,273c0,149.6-54,271.1-121,273"/>
		<path class="st37" d="M1847.9-21.9c-0.4-1.3-0.9-2.2-1.2-2.1c65.2,2.4,117.9,124,117.9,273.7c0,150-52.3,271.8-117,273.7"/>
		<path class="st38" d="M1834.2-22.6c-0.5-1.3-0.9-2.1-1.2-2.1c63,2.4,114,124.3,114,274.4c0,150.4-50.5,272.5-113.1,274.4"/>
		<path class="st39" d="M1820.5-23.3c-0.5-1.3-0.9-2.1-1.2-2.1c60.8,2.4,110,124.6,110,275.1c0,150.8-48.7,273.2-109.1,275.1"/>
		<path class="st40" d="M1806.8-24c-0.5-1.3-0.9-2.1-1.2-2.1c58.6,2.4,106.1,125,106.1,275.8c0,151.1-46.9,273.9-105.1,275.8"/>
		<path class="st41" d="M1793.1-24.7c-0.5-1.2-0.9-2.1-1.3-2.1c56.5,2.4,102.2,125.3,102.2,276.5c0,151.5-45.2,274.5-101.2,276.5"/>
		<path class="st42" d="M1779.4-25.4c-0.5-1.2-1-2.1-1.3-2.1c54.3,2.5,98.2,125.6,98.2,277.2c0,151.9-43.4,275.2-97.2,277.2"/>
		<path class="st43" d="M1765.6-26.1c-0.5-1.2-1-2-1.3-2c52.1,2.5,94.3,125.9,94.3,277.8c0,152.3-41.6,275.9-93.3,277.9"/>
		<path class="st44" d="M1751.9-26.8c-0.5-1.2-1-2-1.3-2c49.9,2.5,90.3,126.2,90.3,278.5c0,152.6-39.9,276.6-89.3,278.5"/>
		<path class="st45" d="M1738.2-27.5c-0.5-1.2-1-2-1.4-2c47.7,2.5,86.4,126.6,86.4,279.2c0,153-38.1,277.3-85.3,279.2"/>
		<path class="st46" d="M1724.5-28.2c-0.5-1.2-1-2-1.4-2c45.6,2.5,82.5,126.9,82.5,279.9c0,153.4-36.3,278-81.4,279.9"/>
		<path class="st47" d="M1710.8-28.9c-0.5-1.2-1-2-1.4-2c43.4,2.6,78.5,127.2,78.5,280.6c0,153.8-34.6,278.6-77.4,280.6"/>
		<path class="st48" d="M1697.1-29.6c-0.5-1.2-1-1.9-1.4-1.9c41.2,2.6,74.6,127.5,74.6,281.3c0,154.2-32.8,279.3-73.5,281.3"/>
		<path class="st49" d="M1683.4-30.3c-0.5-1.2-1.1-1.9-1.4-1.9c39,2.6,70.7,127.8,70.7,282c0,154.5-31,280-69.5,282"/>
		<path class="st50" d="M1669.7-31.1c-0.5-1.1-1.1-1.9-1.5-1.9c36.8,2.6,66.7,128.2,66.7,282.7c0,154.9-29.3,280.7-65.5,282.7"/>
		<path class="st51" d="M1656-31.8c-0.6-1.1-1.1-1.9-1.5-1.9c34.6,2.6,62.8,128.5,62.8,283.3c0,155.3-27.5,281.4-61.6,283.4"/>
		<path class="st52" d="M1642.2-32.5c-0.6-1.1-1.1-1.9-1.5-1.9c32.5,2.7,58.9,128.8,58.9,284c0,155.7-25.7,282.1-57.6,284.1"/>
		<path class="st53" d="M1628.5-33.2c-0.6-1.1-1.1-1.9-1.5-1.8c30.3,2.7,54.9,129.1,54.9,284.7c0,156-24,282.8-53.6,284.7"/>
		<path class="st54" d="M1614.8-33.9c-0.6-1.1-1.1-1.8-1.6-1.8c28.1,2.7,51,129.4,51,285.4c0,156.4-22.2,283.4-49.7,285.4"/>
		<path class="st55" d="M1601.1-34.6c-0.6-1.1-1.1-1.8-1.6-1.8c25.9,2.7,47.1,129.7,47.1,286.1c0,156.8-20.4,284.1-45.7,286.1"/>
		<path class="st56" d="M1587.4-35.3c-0.6-1.1-1.2-1.8-1.6-1.8c23.7,2.7,43.1,130.1,43.1,286.8c0,157.2-18.6,284.8-41.8,286.8"/>
		<path class="st57" d="M1573.7-36c-0.6-1.1-1.2-1.8-1.6-1.8c21.6,2.7,39.2,130.4,39.2,287.5c0,157.6-16.9,285.5-37.8,287.5"/>
		<path class="st58" d="M1560-36.7c-0.6-1.1-1.2-1.8-1.7-1.8c19.4,2.8,35.3,130.7,35.3,288.2c0,157.9-15.1,286.2-33.8,288.2"/>
		<path class="st59" d="M1546.3-37.4c-0.6-1-1.2-1.7-1.7-1.7c17.2,2.8,31.3,131,31.3,288.9c0,158.3-13.3,286.9-29.9,288.9"/>
		<path class="st60" d="M1532.5-38.1c-0.6-1-1.2-1.7-1.7-1.7c15,2.8,27.4,131.3,27.4,289.5c0,158.7-11.6,287.5-25.9,289.6"/>
		<path class="st61" d="M1518.8-38.8c-0.6-1-1.2-1.7-1.7-1.7c12.8,2.8,23.4,131.7,23.4,290.2c0,159.1-9.8,288.2-22,290.3"/>
		<path class="st62" d="M1505.1-39.5c-0.6-1-1.2-1.7-1.8-1.7c10.7,2.8,19.5,132,19.5,290.9c0,159.4-8,288.9-18,290.9"/>
		<path class="st63" d="M1491.4-40.2c-0.6-1-1.3-1.7-1.8-1.7c8.5,2.9,15.6,132.3,15.6,291.6c0,159.8-6.3,289.6-14,291.6"/>
		<path class="st64" d="M1477.7-40.9c-0.6-1-1.3-1.7-1.8-1.6c6.3,2.9,11.6,132.6,11.6,292.3c0,160.2-4.5,290.3-10.1,292.3"/>
		<path class="st65" d="M1464-41.6c-0.7-1-1.3-1.6-1.8-1.6c4.1,2.9,7.7,132.9,7.7,293c0,160.6-2.7,291-6.1,293"/>
		<path class="st66" d="M1450.3-42.3c-0.7-1-1.3-1.6-1.8-1.6c1.9,2.9,3.8,133.3,3.8,293.7c0,160.9-1,291.6-2.2,293.7"/>
		<path class="st67" d="M1436.6-43c-0.7-1-1.3-1.6-1.9-1.6c-0.2,2.9-0.2,133.6-0.2,294.4c0,161.3,0.8,292.3,1.8,294.4"/>
		<path class="st68" d="M1422.9-43.7c-0.7-0.9-1.3-1.6-1.9-1.6c-2.4,2.9-4.1,133.9-4.1,295c0,161.7,2.6,293,5.8,295.1"/>
		<path class="st69" d="M1409.1-44.4c-0.7-0.9-1.4-1.6-1.9-1.5c-4.6,3-8,134.2-8,295.7c0,162.1,4.3,293.7,9.7,295.8"/>
		<path class="st70" d="M1395.4-45.2c-0.7-0.9-1.4-1.5-1.9-1.5c-6.8,3-12,134.5-12,296.4c0,162.5,6.1,294.4,13.7,296.5"/>
		<path class="st71" d="M1381.7-45.9c-0.7-0.9-1.4-1.5-2-1.5c-9,3-15.9,134.9-15.9,297.1c0,162.8,7.9,295.1,17.7,297.1"/>
		<path class="st72" d="M1368-46.6c-0.7-0.9-1.4-1.5-2-1.5c-11.1,3-19.8,135.2-19.8,297.8c0,163.2,9.7,295.7,21.6,297.8"/>
		<path class="st73" d="M1354.3-47.3c-0.7-0.9-1.4-1.5-2-1.5c-13.3,3-23.8,135.5-23.8,298.5c0,163.6,11.4,296.4,25.6,298.5"/>
		<path class="st74" d="M1340.6-48c-0.7-0.9-1.4-1.5-2-1.5c-15.5,3.1-27.7,135.8-27.7,299.2c0,164,13.2,297.1,29.5,299.2"/>
		<path class="st75" d="M1326.9-48.7c-0.7-0.9-1.4-1.4-2.1-1.4c-17.7,3.1-31.6,136.1-31.6,299.9c0,164.3,15,297.8,33.5,299.9"/>
		<path class="st76" d="M1313.2-49.4c-0.7-0.9-1.5-1.4-2.1-1.4c-19.9,3.1-35.6,136.5-35.6,300.6c0,164.7,16.7,298.5,37.5,300.6"/>
		<path class="st77" d="M1299.5-50.1c-0.7-0.8-1.5-1.4-2.1-1.4c-22,3.1-39.5,136.8-39.5,301.2c0,165.1,18.5,299.2,41.4,301.3"/>
		<path class="st78" d="M1285.7-50.8c-0.8-0.8-1.5-1.4-2.1-1.4c-24.2,3.1-43.5,137.1-43.5,301.9c0,165.5,20.3,299.8,45.4,302"/>
		<path class="st79" d="M1272-51.5c-0.8-0.8-1.5-1.4-2.2-1.4c-26.4,3.2-47.4,137.4-47.4,302.6c0,165.9,22,300.5,49.3,302.7"/>
		<path class="st80" d="M1258.3-52.2c-0.8-0.8-1.5-1.4-2.2-1.3c-28.6,3.2-51.3,137.7-51.3,303.3c0,166.2,23.8,301.2,53.3,303.3"/>
		<path class="st81" d="M1244.6-52.9c-0.8-0.8-1.5-1.3-2.2-1.3c-30.8,3.2-55.3,138.1-55.3,304c0,166.6,25.6,301.9,57.3,304"/>
		<path class="st82" d="M1230.9-53.6c-0.8-0.8-1.5-1.3-2.2-1.3c-32.9,3.2-59.2,138.4-59.2,304.7c0,167,27.3,302.6,61.2,304.7"/>
		<path class="st83" d="M1217.2-54.3c-0.8-0.8-1.6-1.3-2.2-1.3c-35.1,3.2-63.1,138.7-63.1,305.4c0,167.4,29.1,303.3,65.2,305.4"/>
		<path class="st84" d="M1203.5-55c-0.8-0.8-1.6-1.3-2.3-1.3c-37.3,3.2-67.1,139-67.1,306.1c0,167.7,30.9,304,69.2,306.1"/>
		<path class="st85" d="M1189.8-55.7c-0.8-0.8-1.6-1.3-2.3-1.2c-39.5,3.3-71,139.3-71,306.7c0,168.1,32.6,304.6,73.1,306.8"/>
		<path class="st86" d="M1176-56.4c-0.8-0.7-1.6-1.2-2.3-1.2c-41.7,3.3-74.9,139.7-74.9,307.4c0,168.5,34.4,305.3,77.1,307.5"/>
		<path class="st87" d="M1162.3-57.1c-0.8-0.7-1.6-1.2-2.3-1.2c-43.8,3.3-78.9,140-78.9,308.1c0,168.9,36.2,306,81,308.2"/>
		<path class="st88" d="M1148.6-57.8c-0.8-0.7-1.6-1.2-2.4-1.2c-46,3.3-82.8,140.3-82.8,308.8c0,169.3,38,306.7,85,308.9"/>
		<path class="st89" d="M1134.9-58.6c-0.8-0.7-1.7-1.2-2.4-1.2c-48.2,3.3-86.7,140.6-86.7,309.5c0,169.6,39.7,307.4,89,309.5"/>
		<path class="st90" d="M1121.2-59.3c-0.8-0.7-1.7-1.2-2.4-1.2c-50.4,3.4-90.7,140.9-90.7,310.2c0,170,41.5,308.1,92.9,310.2"/>
		<path class="st91" d="M1107.5-60c-0.8-0.7-1.7-1.1-2.4-1.1c-52.6,3.4-94.6,141.3-94.6,310.9c0,170.4,43.3,308.7,96.9,310.9"/>
		<path class="st92" d="M1093.8-60.7c-0.9-0.7-1.7-1.1-2.5-1.1c-54.8,3.4-98.5,141.6-98.5,311.6c0,170.8,45,309.4,100.8,311.6"/>
		<path class="st93" d="M1080.1-61.4c-0.9-0.7-1.7-1.1-2.5-1.1c-56.9,3.4-102.5,141.9-102.5,312.3c0,171.1,46.8,310.1,104.8,312.3"
			/>
		<path class="st94" d="M1066.4-62.1c-0.9-0.7-1.7-1.1-2.5-1.1c-59.1,3.4-106.4,142.2-106.4,312.9c0,171.5,48.6,310.8,108.8,313"/>
		<path class="st95" d="M1052.6-62.8c-0.9-0.6-1.7-1.1-2.5-1.1c-61.3,3.4-110.4,142.5-110.4,313.6c0,171.9,50.3,311.5,112.7,313.7"
			/>
		<path class="st96" d="M1038.9-63.5c-0.9-0.6-1.8-1.1-2.6-1c-63.5,3.5-114.3,142.9-114.3,314.3c0,172.3,52.1,312.2,116.7,314.4"/>
		<path class="st97" d="M1025.2-64.2c-0.9-0.6-1.8-1-2.6-1C957-61.7,904.4,78,904.4,249.8c0,172.6,53.9,312.8,120.7,315.1"/>
		<path class="st98" d="M1011.5-64.9c-0.9-0.6-1.8-1-2.6-1c-67.8,3.5-122.2,143.5-122.2,315.7c0,173,55.6,313.5,124.6,315.7"/>
		<path class="st99" d="M997.8-65.6c-0.9-0.6-1.8-1-2.6-1c-70,3.5-126.1,143.8-126.1,316.4c0,173.4,57.4,314.2,128.6,316.4"/>
		<path class="st100" d="M984.1-66.3c-0.9-0.6-1.8-1-2.6-1c-72.2,3.5-130,144.1-130,317.1c0,173.8,59.2,314.9,132.5,317.1"/>
		<path class="st101" d="M970.4-67c-0.9-0.6-1.8-1-2.7-0.9c-74.4,3.6-134,144.5-134,317.8c0,174.2,60.9,315.6,136.5,317.8"/>
		<path class="st102" d="M956.7-67.7c-0.9-0.6-1.8-0.9-2.7-0.9c-76.6,3.6-137.9,144.8-137.9,318.4c0,174.5,62.7,316.3,140.5,318.5"
			/>
		<path class="st103" d="M943-68.4c-0.9-0.6-1.9-0.9-2.7-0.9c-78.7,3.6-141.8,145.1-141.8,319.1c0,174.9,64.5,316.9,144.4,319.2"/>
		<path class="st104" d="M929.2-69.1c-0.9-0.5-1.9-0.9-2.7-0.9c-80.9,3.6-145.8,145.4-145.8,319.8c0,175.3,66.3,317.6,148.4,319.9"
			/>
		<path class="st105" d="M915.5-69.8c-0.9-0.5-1.9-0.9-2.8-0.9C829.7-67.1,763.1,75,763.1,249.8c0,175.7,68,318.3,152.3,320.6"/>
		<path class="st106" d="M901.8-70.5c-1-0.5-1.9-0.9-2.8-0.8c-85.3,3.7-153.6,146-153.6,321.2c0,176,69.8,319,156.3,321.3"/>
		<path class="st107" d="M888.1-71.2c-1-0.5-1.9-0.9-2.8-0.8c-87.5,3.7-157.6,146.4-157.6,321.9c0,176.4,71.6,319.7,160.3,321.9"/>
		<path class="st108" d="M874.4-72c-1-0.5-1.9-0.8-2.8-0.8C781.9-69.1,710,73.9,710,249.8c0,176.8,73.3,320.4,164.2,322.6"/>
		<path class="st109" d="M860.7-72.7c-1-0.5-1.9-0.8-2.9-0.8c-91.8,3.7-165.4,147-165.4,323.3c0,177.2,75.1,321.1,168.2,323.3"/>
		<path class="st110" d="M847-73.4c-1-0.5-2-0.8-2.9-0.8c-94,3.7-169.4,147.3-169.4,324c0,177.6,76.9,321.7,172.2,324"/>
		<path class="st111" d="M833.3-74.1c-1-0.5-2-0.8-2.9-0.8C734.2-71.1,657,72.8,657,249.8c0,177.9,78.6,322.4,176.1,324.7"/>
		<path class="st112" d="M819.6-74.8c-1-0.5-2-0.8-2.9-0.7c-98.4,3.8-177.3,148-177.3,325.3c0,178.3,80.4,323.1,180.1,325.4"/>
		<path class="st113" d="M805.8-75.5c-1-0.4-2-0.7-3-0.7c-100.5,3.8-181.2,148.3-181.2,326c0,178.7,82.2,323.8,184,326.1"/>
		<path class="st114" d="M792.1-76.2c-1-0.4-2-0.7-3-0.7C686.4-73.1,604,71.7,604,249.8c0,179.1,83.9,324.5,188,326.8"/>
		<path class="st115" d="M778.4-76.9c-1-0.4-2-0.7-3-0.7C670.5-73.7,586.4,71.4,586.4,249.8c0,179.4,85.7,325.2,192,327.5"/>
		<path class="st116" d="M764.7-77.6c-1-0.4-2.1-0.7-3-0.7c-107.1,3.8-193,149.2-193,328.1c0,179.8,87.5,325.8,195.9,328.1"/>
		<path class="st117" d="M751-78.3c-1-0.4-2.1-0.7-3-0.6C638.7-75.1,551,70.6,551,249.8c0,180.2,89.2,326.5,199.9,328.8"/>
		<path class="st118" d="M737.3-79c-1-0.4-2.1-0.6-3.1-0.6C622.8-75.8,533.3,70.3,533.3,249.8c0,180.6,91,327.2,203.8,329.5"/>
		<path class="st119" d="M723.6-79.7c-1.1-0.4-2.1-0.6-3.1-0.6C606.8-76.4,515.7,69.9,515.7,249.8c0,181,92.8,327.9,207.8,330.2"/>
		<path class="st120" d="M709.9-80.4c-1.1-0.4-2.1-0.6-3.1-0.6C590.9-77.1,498,69.5,498,249.8c0,181.3,94.6,328.6,211.8,330.9"/>
		<path class="st121" d="M696.1-81.1c-1.1-0.4-2.1-0.6-3.1-0.6C575-77.8,480.3,69.2,480.3,249.8c0,181.7,96.3,329.3,215.7,331.6"/>
		<path class="st122" d="M682.4-81.8c-1.1-0.3-2.1-0.6-3.2-0.5c-120.2,4-216.6,151.2-216.6,332.2c0,182.1,98.1,329.9,219.7,332.3"/>
		<path class="st123" d="M668.7-82.5c-1.1-0.3-2.2-0.6-3.2-0.5C543.2-79.1,445,68.4,445,249.8c0,182.5,99.9,330.6,223.6,333"/>
		<path class="st124" d="M655-83.2c-1.1-0.3-2.2-0.5-3.2-0.5c-124.5,4-224.5,151.8-224.5,333.6c0,182.8,101.6,331.3,227.6,333.6"/>
		<path class="st125" d="M641.3-83.9c-1.1-0.3-2.2-0.5-3.2-0.5c-126.7,4-228.4,152.1-228.4,334.3c0,183.2,103.4,332,231.6,334.3"/>
		<path class="st126" d="M627.6-84.6c-1.1-0.3-2.2-0.5-3.3-0.5C495.4-81.1,392,67.3,392,249.8c0,183.6,105.2,332.7,235.5,335"/>
		<path class="st127" d="M613.9-85.4c-1.1-0.3-2.2-0.5-3.3-0.5C479.5-81.8,374.3,67,374.3,249.8c0,184,106.9,333.4,239.5,335.7"/>
		<path class="st128" d="M600.2-86.1c-1.1-0.3-2.2-0.5-3.3-0.4C463.6-82.4,356.6,66.6,356.6,249.9c0,184.4,108.7,334,243.5,336.4"/>
		<path class="st129" d="M586.5-86.8c-1.1-0.3-2.2-0.4-3.3-0.4C447.7-83.1,339,66.2,339,249.9c0,184.7,110.5,334.7,247.4,337.1"/>
		<path class="st130" d="M572.7-87.5c-1.1-0.3-2.3-0.4-3.4-0.4C431.8-83.8,321.3,65.9,321.3,249.9c0,185.1,112.2,335.4,251.4,337.8"
			/>
		<path class="st131" d="M559-88.2c-1.1-0.2-2.3-0.4-3.4-0.4c-139.8,4.1-252,154-252,338.4c0,185.5,114,336.1,255.3,338.5"/>
		<path class="st132" d="M545.3-88.9c-1.1-0.2-2.3-0.4-3.4-0.4c-142,4.1-256,154.4-256,339.1c0,185.9,115.8,336.8,259.3,339.2"/>
		<path class="st133" d="M531.6-89.6c-1.2-0.2-2.3-0.4-3.4-0.3C384-85.8,268.3,64.8,268.3,249.9c0,186.2,117.6,337.5,263.3,339.8"/>
		<path class="st134" d="M517.9-90.3c-1.2-0.2-2.3-0.3-3.4-0.3c-146.3,4.2-263.8,155-263.8,340.5c0,186.6,119.3,338.1,267.2,340.5"
			/>
		<path class="st135" d="M504.2-91c-1.2-0.2-2.3-0.3-3.5-0.3C352.2-87.1,232.9,64,232.9,249.9c0,187,121.1,338.8,271.2,341.2"/>
		<path class="st136" d="M490.5-91.7c-1.2-0.2-2.3-0.3-3.5-0.3C336.3-87.8,215.3,63.6,215.3,249.9c0,187.4,122.9,339.5,275.1,341.9"
			/>
		<path class="st137" d="M476.8-92.4c-1.2-0.2-2.4-0.3-3.5-0.3c-152.9,4.2-275.6,156-275.6,342.5c0,187.7,124.6,340.2,279.1,342.6"
			/>
		<path class="st138" d="M463.1-93.1c-1.2-0.2-2.4-0.3-3.5-0.2C304.5-89.1,179.9,62.9,179.9,249.9c0,188.1,126.4,340.9,283.1,343.3"
			/>
		<path class="st139" d="M449.3-93.8c-1.2-0.2-2.4-0.3-3.6-0.2C288.5-89.8,162.3,62.5,162.3,249.9c0,188.5,128.2,341.6,287,344"/>
		<path class="st140" d="M435.6-94.5c-1.2-0.1-2.4-0.2-3.6-0.2C272.6-90.4,144.6,62.2,144.6,249.9c0,188.9,129.9,342.3,291,344.7"/>
		<path class="st141" d="M421.9-95.2c-1.2-0.1-2.4-0.2-3.6-0.2C256.7-91.1,126.9,61.8,126.9,249.9c0,189.3,131.7,342.9,295,345.4"/>
		<path class="st142" d="M408.2-95.9c-1.2-0.1-2.4-0.2-3.6-0.2c-163.8,4.3-295.3,157.6-295.3,346c0,189.6,133.5,343.6,298.9,346"/>
		<path class="st143" d="M394.5-96.6c-1.2-0.1-2.5-0.2-3.7-0.2C224.9-92.5,91.6,61.1,91.6,249.9c0,190,135.2,344.3,302.9,346.7"/>
		<path class="st144" d="M380.8-97.3c-1.2-0.1-2.5-0.2-3.7-0.1C209-93.1,73.9,60.7,73.9,249.9c0,190.4,137,345,306.8,347.4"/>
		<path class="st145" d="M367.1-98c-1.2-0.1-2.5-0.1-3.7-0.1C193-93.8,56.2,60.3,56.2,249.9C56.2,440.6,195,595.6,367,598"/>
		<path class="st146" d="M353.4-98.8c-1.3-0.1-2.5-0.1-3.7-0.1C177.1-94.5,38.6,60,38.6,249.9c0,191.1,140.5,346.4,314.8,348.8"/>
		<path class="st147" d="M339.7-99.5c-1.3-0.1-2.5-0.1-3.8-0.1c-174.7,4.4-315,159.2-315,349.4c0,191.5,142.3,347,318.7,349.5"/>
		<path class="st148" d="M325.9-100.2c-1.3-0.1-2.5-0.1-3.8-0.1C145.3-95.8,3.2,59.2,3.2,249.9c0,191.9,144.1,347.7,322.7,350.2"/>
		<path class="st149" d="M312.2-100.9c-1.3,0-2.5-0.1-3.8,0C129.4-96.5-14.4,58.9-14.4,249.9c0,192.3,145.9,348.4,326.6,350.9"/>
		<path class="st150" d="M298.5-101.6c-1.3,0-2.6-0.1-3.8,0C113.5-97.1-32.1,58.5-32.1,249.9c0,192.7,147.6,349.1,330.6,351.6"/>
		<path class="st151" d="M284.8-102.3c-1.3,0-2.6,0-3.8,0C97.6-97.8-49.8,58.1-49.8,249.9c0,193,149.4,349.8,334.6,352.2"/>
		<path class="st152" d="M271.1-103c-1.3,0-2.6,0-3.9,0C81.6-98.5-67.4,57.8-67.4,249.9c0,193.4,151.2,350.5,338.5,352.9"/>
		<path class="st153" d="M257.4-103.7c-1.3,0-2.6,0-3.9,0C65.7-99.1-85.1,57.4-85.1,249.9c0,193.8,152.9,351.1,342.5,353.6"/>
		<path class="st154" d="M243.7-104.4c-1.3,0-2.6,0-3.9,0.1C49.8-99.8-102.8,57-102.8,249.9c0,194.2,154.7,351.8,346.5,354.3"/>
		<path class="st155" d="M230-105.1c-194,2.5-350.4,160.5-350.4,355S36,602.4,230,604.9"/>
	</g>
	<rect y="0.7" class="st156" width="2298.7" height="499"/>
	<g class="st157">
		<path class="st155" d="M2762,1386c-240,476-1164,787.2-1495.9,784C800.6,2165.5-157.2,1314-146,1026"/>
		<path class="st158" d="M-131.3,993.2c-7.9,281.5,951.4,1120,1413.7,1128.4c333.8,6.1,1249.1-288,1484-753.7"/>
		<path class="st159" d="M-116.5,960.4c-4.6,275,956.3,1100.5,1415.2,1112.8c335.7,9,1242.4-268,1472.2-723.5"/>
		<path class="st160" d="M-101.8,927.6c-1.3,268.5,961.1,1081.2,1416.8,1097.2c337.7,11.9,1235.6-248.1,1460.3-693.2"/>
		<path class="st161" d="M-87,894.8c1.9,262,966,1061.9,1418.4,1081.6c339.7,14.8,1228.9-228.1,1448.5-663"/>
		<path class="st162" d="M-72.3,862.1c5.2,255.5,970.9,1042.6,1419.9,1066c341.7,17.8,1222.1-208.1,1436.6-632.7"/>
		<path class="st163" d="M-57.6,829.3c8.5,249,975.9,1023.4,1421.5,1050.4c343.7,20.8,1215.4-188.1,1424.8-602.4"/>
		<path class="st164" d="M-42.8,796.5C-31,1039,938,1800.8,1380.2,1831.2c345.7,23.8,1208.6-168.2,1412.9-572.2"/>
		<path class="st165" d="M-28.1,763.7c15,236,985.8,985.3,1424.6,1019.2c347.8,26.8,1201.9-148.2,1401.1-541.9"/>
		<path class="st166" d="M-13.3,730.9C5,960.4,977.4,1697.3,1412.9,1734.5c349.9,29.9,1195.1-128.2,1389.2-511.6"/>
		<path class="st167" d="M1.4,698.1c21.6,223,995.7,947.5,1427.8,987.9c352,33,1188.4-108.2,1377.3-481.4"/>
		<path class="st168" d="M16.1,665.3C41,881.8,1016.9,1594,1445.5,1637.7c354.1,36.1,1181.6-88.2,1365.5-451.1"/>
		<path class="st169" d="M30.9,632.5c28.2,210,1005.7,909.9,1430.9,956.7c356.3,39.2,1174.9-68.3,1353.6-420.9"/>
		<path class="st170" d="M45.6,599.7c31.4,203.5,1010.7,891.2,1432.5,941.1c358.4,42.4,1168.1-48.3,1341.8-390.6"/>
		<path class="st171" d="M60.4,567c34.7,197,1015.7,872.6,1434,925.5c360.6,45.6,1161.3-28.3,1329.9-360.3"/>
		<path class="st172" d="M75.1,534.2c38,190.5,1020.8,854.1,1435.6,909.9c362.8,48.8,1154.6-8.3,1318.1-330.1"/>
		<path class="st173" d="M89.9,501.4c41.3,184,1025.8,835.6,1437.2,894.3c365,52.1,1147.8,11.6,1306.2-299.8"/>
		<path class="st174" d="M104.6,468.6c44.5,177.5,1030.8,817.2,1438.7,878.7c367.2,55.4,1141.1,31.6,1294.3-269.5"/>
		<path class="st175" d="M119.3,435.8c47.8,171,1035.9,798.8,1440.3,863.1c369.4,58.7,1134.3,51.6,1282.5-239.3"/>
		<path class="st176" d="M134.1,403c51.1,164.5,1040.9,780.5,1441.9,847.5c371.6,62.1,1127.6,71.6,1270.6-209"/>
		<path class="st177" d="M148.8,370.2c54.4,158,1045.9,762.2,1443.4,831.9c373.9,65.5,1120.8,91.6,1258.8-178.8"/>
		<path class="st178" d="M163.6,337.4c57.6,151.5,1051,744.1,1445,816.3c376.1,68.9,1114.1,111.5,1246.9-148.5"/>
		<path class="st179" d="M178.3,304.6c60.9,145,1056,725.9,1446.5,800.7c378.3,72.4,1107.3,131.5,1235.1-118.2"/>
		<path class="st180" d="M193,271.9c64.2,138.5,1061.1,707.9,1448.1,785.1c380.6,75.9,1100.6,151.5,1223.2-88"/>
		<path class="st181" d="M207.8,239.1c67.5,132,1066.1,689.8,1449.7,769.5c382.8,79.5,1093.8,171.5,1211.4-57.7"/>
		<path class="st182" d="M222.5,206.3c70.7,125.5,1071.1,671.9,1451.2,753.9c385.1,83.1,1087.1,191.4,1199.5-27.5"/>
		<path class="st183" d="M237.3,173.5c74,119,1076.1,654,1452.8,738.3c387.3,86.7,1080.3,211.4,1187.6,2.8"/>
		<path class="st184" d="M252,140.7c77.3,112.5,1081.2,636.1,1454.4,722.6c389.6,90.3,1073.6,231.4,1175.8,33.1"/>
		<path class="st185" d="M266.7,107.9c80.6,106,1086.2,618.3,1455.9,707c391.8,94,1066.8,251.4,1163.9,63.3"/>
		<path class="st186" d="M281.5,75.1c83.8,99.5,1091.2,600.5,1457.5,691.4c394.1,97.8,1060,271.4,1152.1,93.6"/>
		<path class="st187" d="M296.2,42.3c87.1,93,1096.2,582.8,1459.1,675.8c396.3,101.6,1053.3,291.3,1140.2,123.9"/>
		<path class="st188" d="M311,9.5c90.4,86.5,1101.2,565.1,1460.6,660.2C2170.1,775.2,2818.1,981.1,2900,823.9"/>
		<path class="st189" d="M325.7-23.2c93.7,80,1106.1,547.5,1462.2,644.6c400.7,109.3,1039.8,331.3,1116.5,184.4"/>
		<path class="st190" d="M340.4-56c97,73.5,1111.1,529.9,1463.8,629c402.9,113.2,1033,351.3,1104.7,214.6"/>
		<path class="st191" d="M355.2-88.8c100.2,67,1116.1,512.4,1465.3,613.4c405.1,117.2,1026.3,371.3,1092.8,244.9"/>
		<path class="st192" d="M369.9-121.6c103.5,60.5,1121,494.9,1466.9,597.8c407.3,121.2,1019.5,391.2,1080.9,275.2"/>
		<path class="st193" d="M384.7-154.4c106.8,54,1126,477.4,1468.5,582.2C2262.6,553.1,2865.9,839,2922.2,733.2"/>
		<path class="st194" d="M399.4-187.2c110.1,47.5,1130.9,460,1470,566.6c411.7,129.4,1006,431.2,1057.2,335.7"/>
		<path class="st195" d="M414.2-220C527.5-179,1550,222.7,1885.8,331c413.8,133.5,999.3,451.2,1045.4,366"/>
		<path class="st196" d="M428.9-252.8c116.6,34.5,1140.7,425.3,1473.2,535.4c415.9,137.7,992.5,471.1,1033.5,396.2"/>
		<path class="st197" d="M443.6-285.5c119.9,28,1145.6,408,1474.7,519.8c418,142,985.8,491.1,1021.7,426.5"/>
		<path class="st198" d="M458.4-318.3c123.2,21.5,1150.5,390.7,1476.3,504.2c420.1,146.3,979,511.1,1009.8,456.7"/>
		<path class="st199" d="M473.1-351.1c126.4,15,1155.3,373.5,1477.9,488.6c422.2,150.6,972.2,531.1,997.9,487"/>
		<path class="st200" d="M487.9-383.9C617.6-375.4,1648-27.6,1967.3,89c424.2,155,965.5,551.1,986.1,517.3"/>
		<path class="st201" d="M502.6-416.7c133,2,1165,339.1,1481,457.4c426.2,159.5,958.7,571,974.2,547.5"/>
		<path class="st202" d="M517.3-449.5C653.6-454,1687.1-127.5,1999.9-7.7c428.2,164,952,591,962.4,577.8"/>
		<path class="st203" d="M532.1-482.3c139.5-11,1174.6,304.8,1484.1,426.1c430.2,168.6,945.2,611,950.5,608.1"/>
		<path class="st204" d="M546.8-515.1c142.8-17.5,1179.4,287.7,1485.7,410.5c432.1,173.2,938.5,631,938.7,638.3"/>
		<path class="st205" d="M561.6-547.9c146.1-24,1184.1,270.7,1487.3,394.9c434,177.9,931.7,650.9,926.8,668.6"/>
		<path class="st206" d="M576.3-580.6C725.7-611.1,1765.1-327,2065.1-201.3c435.8,182.6,925,670.9,915,698.8"/>
		<path class="st207" d="M591-613.4c152.6-37,1193.6,236.6,1490.4,363.7c437.7,187.4,918.2,690.9,903.1,729.1"/>
		<path class="st208" d="M605.8-646.2c155.9-43.5,1198.2,219.6,1492,348.1c439.5,192.2,911.5,710.9,891.2,759.4"/>
		<path class="st209" d="M620.5-679c159.2-50,1202.9,202.7,1493.5,332.5c441.2,197.1,904.7,730.9,879.4,789.6"/>
		<path class="st210" d="M635.3-711.8c162.5-56.5,1207.6,185.7,1495.1,316.9c442.9,202.1,898,750.8,867.5,819.9"/>
		<path class="st211" d="M650-744.6c165.8-63,1212.2,168.8,1496.7,301.3c444.6,207.1,891.2,770.8,855.7,850.1"/>
		<path class="st212" d="M664.7-777.4c169-69.5,1216.8,151.9,1498.2,285.7c446.2,212.2,884.4,790.8,843.8,880.4"/>
		<path class="st213" d="M679.5-810.2c172.3-76,1221.4,135,1499.8,270.1c447.8,217.3,877.7,810.8,832,910.7"/>
		<path class="st214" d="M694.2-843c175.6-82.5,1226,118.1,1501.4,254.5c449.4,222.5,870.9,830.7,820.1,940.9"/>
		<path class="st215" d="M709-875.7c178.9-89,1230.5,101.2,1502.9,238.9c450.8,227.8,864.2,850.7,808.2,971.2"/>
		<path class="st216" d="M723.7-908.5c182.1-95.5,1235,84.4,1504.5,223.3c452.3,233.1,857.4,870.7,796.4,1001.5"/>
		<path class="st217" d="M738.5-941.3c185.4-102,1239.5,67.6,1506.1,207.7C2698.2-495.2,3095.2,157,3029,298.1"/>
		<path class="st218" d="M753.2-974.1c188.7-108.5,1244,50.7,1507.6,192.1c455,243.9,843.9,910.7,772.7,1062"/>
		<path class="st219" d="M767.9-1006.9c192-115,1248.4,33.9,1509.2,176.5c456.3,249.4,837.2,930.6,760.8,1092.2"/>
		<path class="st220" d="M782.7-1039.7c195.2-121.5,1252.8,17.1,1510.8,160.8c457.5,254.9,830.4,950.6,749,1122.5"/>
		<path class="st221" d="M797.4-1072.5c198.5-128,1257.2,0.3,1512.3,145.2c458.7,260.6,823.7,970.6,737.1,1152.8"/>
		<path class="st222" d="M812.2-1105.3c201.8-134.5,1261.6-16.4,1513.9,129.6c459.8,266.2,816.9,990.6,725.3,1183"/>
		<path class="st223" d="M826.9-1138.1c205.1-141,1265.9-33.2,1515.4,114c460.8,272,810.2,1010.5,713.4,1213.3"/>
		<path class="st224" d="M841.6-1170.8c208.3-147.5,1270.3-50,1517,98.4c461.8,277.8,803.4,1030.5,701.5,1243.6"/>
		<path class="st225" d="M856.4-1203.6c211.6-154,1274.5-66.8,1518.6,82.8C2837.7-837.2,3171.6-70.3,3064.6,153"/>
		<path class="st226" d="M871.1-1236.4c214.9-160.5,1278.8-83.5,1520.1,67.2c463.6,289.5,789.9,1070.5,677.8,1304.1"/>
		<path class="st227" d="M885.9-1269.2c218.2-167,1283-100.3,1521.7,51.6c464.3,295.5,783.1,1090.5,666,1334.3"/>
		<path class="st228" d="M900.6-1302c221.4-173.5,1287.2-117,1523.3,36c465,301.5,776.4,1110.4,654.1,1364.6"/>
	</g>
	<g id="earth_1_" class="st229">
		
			<image style="overflow:visible;opacity:0.18;enable-background:new    ;" width="1193" height="1188" xlink:href="CF142E8D465094C4.png"  transform="matrix(0.7977 -0.284 0.2621 0.7333 1240 228.853)">
		</image>
	</g>
</g>
<linearGradient id="SVGID_3_" gradientUnits="userSpaceOnUse" x1="0" y1="250.6614" x2="2300" y2="250.6614">
	<stop  offset="0" style="stop-color:#FFFFFF"/>
	<stop  offset="0.9981" style="stop-color:#2E3192"/>
</linearGradient>
<linearGradient id="SVGID_4_" gradientUnits="userSpaceOnUse" x1="-0.5" y1="250.6614" x2="2300.5" y2="250.6614">
	<stop  offset="0" style="stop-color:#FFFFFF"/>
	<stop  offset="2.724305e-02" style="stop-color:#F4F4F9"/>
	<stop  offset="0.1649" style="stop-color:#C0C1DE"/>
	<stop  offset="0.3048" style="stop-color:#9395C7"/>
	<stop  offset="0.4444" style="stop-color:#6F71B4"/>
	<stop  offset="0.5837" style="stop-color:#5255A5"/>
	<stop  offset="0.7225" style="stop-color:#3E419A"/>
	<stop  offset="0.8607" style="stop-color:#323594"/>
	<stop  offset="0.9981" style="stop-color:#2E3192"/>
</linearGradient>
<rect y="0.7" class="st230" width="2300" height="499.9"/>
<g id="who_we_are">
	<g>
		<path class="st231" d="M1941.8,184.5c-21,0-32.7,12.3-36.2,23.3h-0.4v-64.3h-7.5v153.3h7.5v-67.2c0-19.3,12.1-38,35.8-38
			c20.1,0,31.6,14.5,31.6,33.6v71.6h7.5v-72.4C1980.1,198.7,1963.8,184.5,1941.8,184.5z"/>
		<path class="st231" d="M2045.6,184.5c-25.7,0-44.6,17.4-44.6,49.1V250c0,31.5,19.1,48.7,44.6,48.7c25.4,0,44.9-17.1,44.9-48.7
			v-16.3C2090.5,202.3,2070.8,184.5,2045.6,184.5z M2082.9,249.1c0,28.4-16,42.6-37.2,42.6c-21.5,0-37.3-14.5-37.3-42.6v-14.5
			c0-28.4,15.9-43.2,37.2-43.2c21.2,0,37.3,15,37.3,43.2V249.1z"/>
	</g>
	<g>
		<g class="st232">
			<path class="st231" d="M1830.1,396.7h-5.3l-21.5-67.4h-0.3l-21.6,67.4h-5.3l-20.5-74.7h5.5l17.6,67.2h0.4l21.4-67.2h5.3
				l21.5,67.2h0.4l17.6-67.2h5.4L1830.1,396.7z"/>
		</g>
		<g class="st232">
			<path class="st231" d="M1850.1,363.4v-7.5c0-22,11-33.6,27.6-33.6c16.5,0,27.7,11.6,27.7,33.7v3.5H1855v3.8
				c0,18.4,9.2,28.4,23.6,28.4c13.5,0,20-8.1,20.9-14.7h4.9c-1,8.4-8.9,19.2-25.9,19.2C1860.8,396.2,1850.1,384.3,1850.1,363.4z
				 M1900.4,355.1v-0.3c0-17.7-9.1-28.1-22.7-28.1s-22.7,10.4-22.7,28.1v0.3H1900.4z"/>
			<path class="st231" d="M1960.3,396.2c-13.8,0-23.3-8.1-23.3-21.2c0-11.8,8.2-19.8,24.1-19.8h22.3v-10.5
				c0-12.3-7.9-17.9-19.5-17.9c-11.8,0-17.4,5.5-19,14.4h-4.8c1.2-11,8.9-18.9,24.1-18.9c14.4,0,24.1,7.5,24.1,21.4V395h-4.8v-11.8
				h-0.3C1981.6,387.5,1974.5,396.2,1960.3,396.2z M1983.4,370.9v-11.4h-22.3c-13.1,0-19,6.4-19,15.3c0,10.4,7.7,16.8,18.6,16.8
				C1973,391.7,1983.4,383.5,1983.4,370.9z"/>
			<path class="st231" d="M2004.7,323.5h4.9v13.9h0.3c2.1-7.4,7.3-15,20.3-15c2.9,0,4.6,0.4,5.5,0.6v4.6c-0.8-0.1-3.3-0.6-6-0.6
				c-13.1,0-20,10.4-20,26.6v41.3h-4.9v-71.4H2004.7z"/>
			<path class="st231" d="M2035.5,363.4v-7.5c0-22,11-33.6,27.6-33.6c16.5,0,27.7,11.6,27.7,33.7v3.5h-50.4v3.8
				c0,18.4,9.2,28.4,23.6,28.4c13.5,0,20-8.1,20.9-14.7h4.9c-1,8.4-8.9,19.2-25.9,19.2C2046.2,396.2,2035.5,384.3,2035.5,363.4z
				 M2085.8,355.1v-0.3c0-17.7-9.1-28.1-22.7-28.1s-22.7,10.4-22.7,28.1v0.3H2085.8z"/>
		</g>
	</g>
</g>
<path class="st233" d="M786.7,225.6c-3.6,0-6.9,2.4-8,5.8H0l1.6,5.4h777c1.4,4.5,6.1,7,10.6,5.6c2.7-0.8,4.8-2.9,5.6-5.6h377.1
	c1.5,4.6,6.5,7.1,11.1,5.5c4.6-1.5,7.1-6.5,5.5-11.1c-1.5-4.6-6.5-7.1-11.1-5.5c-2.6,0.9-4.7,2.9-5.5,5.5H794.8
	C794.8,231.2,790.5,225.6,786.7,225.6z M786.7,228.3c3.2,0,5.9,2.6,5.9,5.8s-2.6,5.9-5.8,5.9s-5.9-2.6-5.9-5.8l0,0
	C780.9,230.9,783.5,228.3,786.7,228.3z M1180.1,239.9c-3.2,0-5.9-2.6-5.9-5.8s2.6-5.9,5.8-5.9s5.9,2.6,5.9,5.8l0,0
	C1185.9,237.3,1183.3,239.9,1180.1,239.9L1180.1,239.9z"/>
<g id="lines">
	<g>
		<path class="st231" d="M1049.2,317c0,3.2,2.6,5.8,5.8,5.8c3.2,0,5.8-2.6,5.8-5.8c0-3.2-2.6-5.8-5.8-5.8
			C1051.8,311.2,1049.2,313.8,1049.2,317L1049.2,317z"/>
		<path class="st234" d="M1046.9,314.4H1.6v5.4h1045.3c1.5,4.5,6.3,6.9,10.8,5.4s6.9-6.3,5.4-10.8s-6.3-6.9-10.8-5.4
			C1049.8,309.8,1047.7,311.8,1046.9,314.4z M1049.2,317c0-3.2,2.6-5.8,5.8-5.8c3.2,0,5.8,2.6,5.8,5.8s-2.6,5.8-5.8,5.8
			C1051.8,322.9,1049.2,320.2,1049.2,317L1049.2,317z"/>
	</g>
	<path class="st231" d="M869.6,322.9c3.2,0,5.9-2.6,5.9-5.8c0-3.2-2.6-5.9-5.8-5.9s-5.9,2.6-5.9,5.8l0,0
		C863.8,320.2,866.4,322.9,869.6,322.9L869.6,322.9z"/>
	<path class="st231" d="M1084.2,267c0,3.2,2.6,5.8,5.8,5.8c3.2,0,5.8-2.6,5.8-5.8s-2.6-5.8-5.8-5.8
		C1086.8,261.1,1084.2,263.7,1084.2,267L1084.2,267z"/>
	<path class="st235" d="M1082,264.3H853.3c-0.7,0-1.4,0.3-1.9,0.8l-16.1,16H1.6v5.4h833.7l26.7,26.7c-0.6,1.2-0.9,2.5-0.9,3.8
		c0,4.7,3.8,8.6,8.5,8.6s8.6-3.8,8.6-8.5s-3.8-8.6-8.5-8.6c-1.3,0-2.7,0.3-3.9,0.9l-25.6-25.5l14.2-14.2H1082
		c1.5,4.5,6.3,6.9,10.8,5.4s6.9-6.3,5.4-10.8s-6.3-6.9-10.8-5.4C1084.8,259.7,1082.8,261.7,1082,264.3L1082,264.3z M869.6,322.9
		c-3.2,0-5.9-2.6-5.9-5.8c0-3.2,2.6-5.9,5.8-5.9s5.9,2.6,5.9,5.8l0,0C875.5,320.2,872.9,322.9,869.6,322.9L869.6,322.9z
		 M1090.1,261.1c3.2,0,5.8,2.6,5.8,5.8c0,3.2-2.6,5.8-5.8,5.8c-3.2,0-5.8-2.6-5.8-5.8C1084.2,263.7,1086.8,261.1,1090.1,261.1
		L1090.1,261.1L1090.1,261.1z"/>
	<path class="st231" d="M845.4,298.6c0,3.2,2.6,5.8,5.8,5.8s5.8-2.6,5.8-5.8s-2.6-5.8-5.8-5.8S845.4,295.4,845.4,298.6L845.4,298.6z
		"/>
	<path class="st236" d="M851.2,290.2c-3.6,0-6.9,2.4-8,5.8H740c-0.7,0-1.4,0.3-1.9,0.8l-34.2,34.1H1.6v5.4H705
		c0.7,0,1.4-0.3,1.9-0.7l34.2-34.1h102.1c1.5,4.5,6.3,6.9,10.8,5.4c2.5-0.8,4.5-2.8,5.4-5.4h68c1.5,4.5,6.3,6.9,10.8,5.4
		s6.9-6.3,5.4-10.8s-6.3-6.9-10.8-5.4c-2.6,0.8-4.6,2.9-5.4,5.4h-68C858.1,292.5,854.9,290.1,851.2,290.2z M845.4,298.6
		c0-3.2,2.6-5.8,5.8-5.8s5.8,2.6,5.8,5.8s-2.6,5.8-5.8,5.8S845.4,301.9,845.4,298.6L845.4,298.6z M941.2,298.6
		c0,3.2-2.6,5.9-5.8,5.9s-5.9-2.6-5.9-5.8c0-3.2,2.6-5.9,5.8-5.9l0,0C938.6,292.8,941.2,295.4,941.2,298.6L941.2,298.6z"/>
	<path class="st231" d="M941.2,298.6c0-3.2-2.6-5.9-5.8-5.9s-5.9,2.6-5.9,5.8c0,3.2,2.6,5.9,5.8,5.9l0,0
		C938.6,304.5,941.2,301.9,941.2,298.6C941.2,298.7,941.2,298.6,941.2,298.6z"/>
	<path class="st231" d="M772.6,49.9c0,3.2,2.6,5.8,5.8,5.8s5.8-2.6,5.8-5.8s-2.6-5.8-5.8-5.8S772.6,46.7,772.6,49.9L772.6,49.9z"/>
	<path class="st237" d="M778.4,41.4c-3.6,0-6.9,2.4-8,5.8H0v5.4h770.4c1.5,4.5,6.3,6.9,10.7,5.4c0.4-0.1,0.8-0.3,1.2-0.5L795,70.2
		c0.5,0.5,1.2,0.8,1.9,0.8h335.9c1.5,4.5,6.3,6.9,10.8,5.4s6.9-6.3,5.4-10.8s-6.3-6.9-10.8-5.4c-2.6,0.8-4.6,2.9-5.4,5.4H797.9
		L786,53.7c0.2-0.4,0.3-0.8,0.5-1.2h171.2c1.5,4.5,6.3,6.9,10.8,5.4s6.9-6.3,5.4-10.8s-6.3-6.9-10.8-5.4c-2.6,0.8-4.6,2.9-5.4,5.4
		H786.4C785.3,43.8,782,41.5,778.4,41.4z M1140.8,74.1c-3.2,0-5.8-2.7-5.8-5.9c0-3.2,2.7-5.8,5.9-5.8c3.2,0,5.8,2.7,5.8,5.9
		C1146.7,71.5,1144,74.1,1140.8,74.1L1140.8,74.1z M772.6,49.9c0-3.2,2.6-5.8,5.8-5.8s5.8,2.6,5.8,5.8s-2.6,5.8-5.8,5.8
		C775.2,55.8,772.6,53.2,772.6,49.9L772.6,49.9z M971.7,49.9c0,3.2-2.6,5.9-5.8,5.9S960,53.2,960,50s2.6-5.9,5.8-5.9l0,0
		C969.1,44.1,971.7,46.7,971.7,49.9z"/>
	<path class="st231" d="M1140.8,74.1c3.2,0,5.8-2.6,5.8-5.8c0-3.2-2.6-5.8-5.8-5.8c-3.2,0-5.8,2.6-5.8,5.8
		C1135,71.5,1137.6,74.1,1140.8,74.1L1140.8,74.1z"/>
	<path class="st231" d="M971.7,49.9c0-3.2-2.6-5.9-5.8-5.9s-5.9,2.6-5.9,5.8s2.6,5.9,5.8,5.9l0,0C969.1,55.8,971.7,53.2,971.7,49.9z
		"/>
	<path class="st238" d="M0,98.8v5.4h735.2l14.7,15.7c0.5,0.5,1.2,0.8,1.9,0.8H1256c1.4,4.5,6.2,7,10.7,5.5c4.5-1.4,7-6.2,5.5-10.7
		c-1.1-3.5-4.4-5.9-8.1-5.9c-3.6,0-6.9,2.3-8,5.7H752.9l-14.8-15.7C737.6,99.1,0,98.8,0,98.8z M1264.1,123.9c-3.2,0-5.8-2.6-5.8-5.9
		c0-3.2,2.6-5.8,5.9-5.8c3.2,0,5.8,2.6,5.8,5.8C1269.9,121.3,1267.3,123.9,1264.1,123.9L1264.1,123.9z"/>
	<path class="st231" d="M1264.1,123.9c3.2,0,5.8-2.6,5.8-5.8c0-3.2-2.6-5.8-5.8-5.8c-3.2,0-5.8,2.6-5.8,5.8
		C1258.2,121.3,1260.8,123.9,1264.1,123.9L1264.1,123.9z"/>
	<path class="st231" d="M1095.8,206.8c3.2,0,5.9-2.6,5.9-5.8s-2.6-5.9-5.8-5.9c-3.2,0-5.9,2.6-5.9,5.8l0,0
		C1090,204.2,1092.6,206.8,1095.8,206.8L1095.8,206.8z"/>
	<path class="st231" d="M786.2,167.8c0,3.2,2.6,5.8,5.8,5.8s5.8-2.6,5.8-5.8s-2.6-5.8-5.8-5.8C788.8,161.9,786.2,164.6,786.2,167.8
		L786.2,167.8z"/>
	<path class="st239" d="M792,159.4c-5.3,0.4-7,2.4-8,5.8H0v5.4h783.9c1.2,3.4,4.4,5.8,8,5.8c1.3,0,2.6-0.3,3.8-0.9l27.4,27.5
		c0.5,0.5,1.2,0.8,1.9,0.8h262.6c1.5,4.5,6.3,6.9,10.8,5.4s6.9-6.3,5.4-10.8s-6.3-6.9-10.8-5.4c-2.6,0.8-4.6,2.9-5.4,5.4H826.3
		l-26.7-26.6c0.2-0.4,0.3-0.8,0.5-1.1h387.2c0,0,4.3,5.8,8,5.8c4.7-0.2,8.4-4.2,8.2-8.9c-0.2-4.4-3.7-8-8.2-8.2c-3.7,0-8,5.7-8,5.7
		H800.1C800.1,165,797.3,159,792,159.4z M1095.8,206.8c-3.2,0-5.8-2.6-5.8-5.8s2.6-5.8,5.8-5.8c3.2,0,5.8,2.6,5.8,5.8l0,0
		C1101.7,204.2,1099.1,206.8,1095.8,206.8C1095.9,206.8,1095.9,206.8,1095.8,206.8z M786.2,167.8c0-3.2,2.6-5.8,5.8-5.8
		s5.8,2.6,5.8,5.8s-2.6,5.8-5.8,5.8S786.2,171,786.2,167.8L786.2,167.8z M1201.2,167.8c0,3.2-2.6,5.9-5.8,5.9
		c-3.2,0-5.9-2.6-5.9-5.8s2.6-5.9,5.8-5.9l0,0C1198.6,161.9,1201.2,164.5,1201.2,167.8L1201.2,167.8L1201.2,167.8z"/>
	<path class="st231" d="M1201.2,167.8c0-3.2-2.6-5.8-5.8-5.8s-5.8,2.6-5.8,5.8s2.6,5.8,5.8,5.8S1201.2,171,1201.2,167.8
		L1201.2,167.8z"/>
	<path class="st233" d="M705,430.4H1.6v5.4h702.3l26.6,26.6c0.8-1.6,2.2-2.9,3.8-3.7l-27.5-27.4C706.4,430.7,705.7,430.4,705,430.4z
		"/>
	<path class="st231" d="M732.3,466.3c0,3.2,2.6,5.8,5.8,5.8s5.8-2.6,5.8-5.8c0-3.2-2.6-5.8-5.8-5.8
		C734.9,460.4,732.3,463,732.3,466.3L732.3,466.3z"/>
	<path class="st240" d="M730.5,462.4c-0.2,0.4-0.4,0.8-0.5,1.2H1.6v5.4H730c1.3,4.5,6.1,7,10.5,5.6c2.7-0.8,4.8-2.9,5.6-5.6h66.1
		c1.1,3.5,4.4,6,8.1,6c4.8-0.1,8.6-4.1,8.5-8.9c0-0.4,0-0.7-0.1-1.1c-0.5-3.9-3.5-7-7.4-7.5c-4.1-0.5-8,2-9.2,5.9h-66
		c0,0-4.3-5.7-8.1-5.7c-1.3,0-2.6,0.3-3.7,0.8C732.7,459.4,731.4,460.7,730.5,462.4z M738.1,460.4c3.2,0,5.9,2.6,5.9,5.8
		c0,3.2-2.6,5.9-5.8,5.9s-5.9-2.6-5.9-5.8l0,0C732.3,463,734.9,460.4,738.1,460.4z M826.2,466.3c0,3.2-2.6,5.8-5.8,5.8
		s-5.8-2.6-5.8-5.8c0-3.2,2.6-5.8,5.8-5.8C823.6,460.4,826.2,463,826.2,466.3C826.2,466.2,826.2,466.3,826.2,466.3L826.2,466.3z"/>
	<path class="st231" d="M826.2,466.3c0-3.2-2.6-5.8-5.8-5.8s-5.8,2.6-5.8,5.8c0,3.2,2.6,5.8,5.8,5.8
		C823.6,472.1,826.2,469.5,826.2,466.3z"/>
	<path class="st231" d="M715.8,449.7c0,3.2,2.6,5.8,5.8,5.8s5.8-2.6,5.8-5.8c0-3.2-2.6-5.8-5.8-5.8S715.8,446.5,715.8,449.7
		L715.8,449.7z"/>
	<path class="st241" d="M721.6,441.1c-3.7,0-6.9,2.4-8.1,5.8H1.6v5.4h711.9c1.5,4.5,6.3,6.9,10.8,5.4c2.6-0.8,4.6-2.9,5.4-5.4h160.9
		c1.5,4.5,6.3,6.9,10.8,5.4s6.9-6.3,5.4-10.8s-6.3-6.9-10.8-5.4c-2.6,0.8-4.6,2.9-5.4,5.4H729.7
		C728.5,443.5,725.3,441.2,721.6,441.1z M715.8,449.7c0-3.2,2.6-5.8,5.8-5.8s5.8,2.6,5.8,5.8c0,3.2-2.6,5.8-5.8,5.8
		S715.8,452.9,715.8,449.7L715.8,449.7z M904.6,449.7c0,3.2-2.6,5.9-5.8,5.9s-5.9-2.6-5.9-5.8c0-3.2,2.6-5.9,5.8-5.9l0,0
		C902,443.8,904.6,446.4,904.6,449.7L904.6,449.7z"/>
	<path class="st231" d="M904.6,449.7c0-3.2-2.6-5.9-5.8-5.9s-5.9,2.6-5.9,5.8c0,3.2,2.6,5.9,5.8,5.9l0,0
		C902,455.5,904.6,452.9,904.6,449.7L904.6,449.7z"/>
	<path class="st238" d="M411.2,296H1.6v5.4h408.5l11.9,11.9c-0.6,1.2-0.9,2.5-0.9,3.8c-0.1,4.7,3.7,8.6,8.4,8.7
		c4.7,0.1,8.6-3.7,8.7-8.4c0.1-4.7-3.7-8.6-8.4-8.7c-1.4,0-2.7,0.3-4,0.9l-12.7-12.8C412.6,296.2,411.9,296,411.2,296z M429.7,322.9
		c-3.2,0-5.8-2.6-5.8-5.8c0-3.2,2.6-5.8,5.8-5.8c3.2,0,5.8,2.6,5.8,5.8l0,0C435.5,320.2,432.9,322.9,429.7,322.9L429.7,322.9z"/>
	<path class="st231" d="M428.5,322.7c3.2,0.6,6.2-1.4,6.9-4.6c0.6-3.2-1.4-6.2-4.6-6.9c-3.2-0.6-6.2,1.4-6.9,4.6
		c-0.2,0.8-0.2,1.5,0,2.3C424.4,320.5,426.2,322.3,428.5,322.7z"/>
	<path class="st231" d="M728.8,317c0,4-3.2,7.2-7.2,7.2s-7.2-3.2-7.2-7.2s3.2-7.2,7.2-7.2l0,0C725.6,309.9,728.8,313.1,728.8,317z"
		/>
	<path class="st237" d="M721.6,308.5c4.7,0,8.5,3.8,8.5,8.5s-3.8,8.5-8.5,8.5s-8.5-3.8-8.5-8.5S716.9,308.5,721.6,308.5L721.6,308.5
		z M721.6,311.2c-3.2,0-5.9,2.6-5.9,5.8s2.6,5.9,5.8,5.9s5.9-2.6,5.9-5.8l0,0C727.5,313.8,724.9,311.2,721.6,311.2
		C721.7,311.1,721.7,311.1,721.6,311.2L721.6,311.2z"/>
	<path class="st231" d="M802.8,184.4c0,3.2,2.6,5.9,5.8,5.9s5.9-2.6,5.9-5.8s-2.6-5.9-5.8-5.9l0,0
		C805.4,178.5,802.8,181.1,802.8,184.4z"/>
	<path class="st242" d="M808.5,175.8c-3.6,0-6.9,2.4-8,5.8H0v5.4h800.4c1.5,4.5,6.3,6.9,10.8,5.4c2.6-0.8,4.6-2.9,5.4-5.4h447
		c1.5,4.5,6.3,6.9,10.8,5.4s6.9-6.3,5.4-10.8s-6.3-6.9-10.8-5.4c-2.5,0.8-4.5,2.8-5.4,5.4h-447C815.5,178.2,812.2,175.8,808.5,175.8
		z M802.8,184.4c0-3.2,2.6-5.9,5.8-5.9s5.9,2.6,5.9,5.8s-2.6,5.9-5.8,5.9l0,0C805.4,190.2,802.8,187.6,802.8,184.4z M1277.7,184.4
		c0,3.2-2.6,5.8-5.8,5.8c-3.2,0-5.8-2.6-5.8-5.8s2.6-5.8,5.8-5.8C1275,178.5,1277.7,181.2,1277.7,184.4L1277.7,184.4z"/>
	<path class="st231" d="M1277.7,184.4c0-3.2-2.6-5.8-5.8-5.8c-3.2,0-5.8,2.6-5.8,5.8s2.6,5.8,5.8,5.8
		C1275,190.2,1277.7,187.6,1277.7,184.4L1277.7,184.4z"/>
	<path class="st243" d="M779.1,387.1l-26.8,26.8H1.6v5.4h751.8c0.7,0,1.4-0.3,1.9-0.8l27.6-27.5
		C781.2,390.1,779.9,388.8,779.1,387.1z"/>
	<path class="st231" d="M786.7,377.5c-3.2,0-5.8,2.6-5.8,5.8c0,3.2,2.6,5.8,5.8,5.8s5.8-2.6,5.8-5.8
		C792.6,380.1,790,377.5,786.7,377.5L786.7,377.5z"/>
	<path class="st244" d="M786.7,374.8c-3.6,0-6.9,2.4-8,5.8H1.6v5.2h777c0.1,0.5,0.3,0.9,0.5,1.3c0.8,1.6,2.2,2.9,3.8,3.8
		c1.2,0.6,2.5,0.9,3.8,0.9c3.8,0,8-5.8,8-5.8h155.4c0,0,4.3,5.9,8.1,5.9c4.7-0.2,8.3-4.2,8.1-8.9c-0.2-4.4-3.7-8-8.1-8.1
		c-3.7,0-8,5.6-8,5.6H794.8C794.8,380.4,790.5,374.8,786.7,374.8z M952.4,383.3c0-3.2,2.6-5.8,5.8-5.8s5.8,2.6,5.8,5.8
		s-2.6,5.8-5.8,5.8S952.4,386.6,952.4,383.3L952.4,383.3z M786.7,377.5c3.2,0,5.8,2.6,5.8,5.8c0,3.2-2.6,5.8-5.8,5.8
		s-5.8-2.6-5.8-5.8S783.5,377.5,786.7,377.5z"/>
	<path class="st231" d="M952.4,383.3c0,3.2,2.6,5.8,5.8,5.8s5.8-2.6,5.8-5.8s-2.6-5.8-5.8-5.8S952.4,380.1,952.4,383.3L952.4,383.3z
		"/>
	<path class="st231" d="M898.3,333.5c0,3.2,2.6,5.8,5.8,5.8s5.8-2.6,5.8-5.8s-2.6-5.8-5.8-5.8C900.9,327.7,898.3,330.3,898.3,333.5
		L898.3,333.5z"/>
	<path class="st245" d="M896,330.9H786.7c-0.7,0-1.4,0.3-1.9,0.8l-32.4,32.4H1.6v5.4h751.9c0.7,0,1.4-0.3,1.9-0.8l32.4-32.4H896
		c1.5,4.5,6.3,6.9,10.8,5.4s6.9-6.3,5.4-10.8s-6.3-6.9-10.8-5.4C898.8,326.3,896.8,328.3,896,330.9L896,330.9z M898.3,333.6
		c0-3.2,2.6-5.8,5.8-5.8s5.8,2.6,5.8,5.8c0,3.2-2.6,5.8-5.8,5.8C900.9,339.4,898.3,336.8,898.3,333.6L898.3,333.6L898.3,333.6z"/>
	<path class="st242" d="M718.3,125.9H-3v5.4h721.3c1.5,4.5,6.3,6.9,10.8,5.4s6.9-6.3,5.4-10.8s-6.3-6.9-10.8-5.4
		C721.2,121.4,719.2,123.4,718.3,125.9z"/>
	<path class="st231" d="M764.3,399.9c0,3.2,2.6,5.8,5.8,5.8s5.8-2.6,5.8-5.8c0-3.2-2.6-5.8-5.8-5.8
		C766.9,394,764.3,396.7,764.3,399.9L764.3,399.9z"/>
	<path class="st246" d="M770.2,391.4c-3.6,0-6.9,2.4-8,5.8H1.6v5.4h760.3c1.4,4.5,6.1,7,10.6,5.6c2.7-0.8,4.8-2.9,5.6-5.6H884
		c1.1,3.5,4.4,6,8.1,6c4.8-0.1,8.6-4.1,8.5-8.9c0-0.4,0-0.7-0.1-1.1c-0.5-3.9-3.5-7-7.4-7.5c-4.1-0.5-8,2-9.2,6H778.2
		C778.2,397.1,773.9,391.4,770.2,391.4z M770.2,394c3.2,0,5.8,2.6,5.8,5.8c0,3.2-2.6,5.8-5.8,5.8s-5.8-2.6-5.8-5.8
		C764.3,396.7,766.9,394.1,770.2,394L770.2,394z M892.2,405.7c-3.2,0-5.8-2.6-5.8-5.8c0-3.2,2.6-5.8,5.8-5.8s5.8,2.6,5.8,5.8
		C898.1,403.1,895.5,405.7,892.2,405.7L892.2,405.7L892.2,405.7z"/>
	<path class="st231" d="M892.2,405.7c3.2,0,5.8-2.6,5.8-5.8c0-3.2-2.6-5.8-5.8-5.8s-5.8,2.6-5.8,5.8S889,405.7,892.2,405.7
		L892.2,405.7z"/>
	<path class="st231" d="M1028.1,372.5c3.2,0,5.9-2.6,5.9-5.8s-2.6-5.9-5.8-5.9c-3.2,0-5.9,2.6-5.9,5.8l0,0
		C1022.3,369.9,1024.9,372.5,1028.1,372.5L1028.1,372.5z"/>
	<path class="st235" d="M1019.6,366.7c0,0.9,0.1,1.8,0.4,2.7c1.5,4.5,6.3,6.9,10.8,5.4s6.9-6.3,5.4-10.8s-6.3-6.9-10.8-5.4
		c-2.6,0.8-4.6,2.9-5.4,5.4C1019.8,364.9,1019.6,365.8,1019.6,366.7z M1028.1,372.5c-3.2,0-5.9-2.6-5.9-5.8s2.6-5.9,5.8-5.9
		c3.2,0,5.9,2.6,5.9,5.8l0,0C1034,369.9,1031.4,372.5,1028.1,372.5L1028.1,372.5L1028.1,372.5z"/>
	<path class="st231" d="M764.3,350.2c0,3.2,2.6,5.8,5.8,5.8s5.8-2.6,5.8-5.8c0-3.2-2.6-5.8-5.8-5.8
		C766.9,344.3,764.3,346.9,764.3,350.2L764.3,350.2z"/>
	<path class="st247" d="M762,347.5H1.6v5.4h760.3c1.5,4.5,6.3,6.9,10.8,5.4c2.6-0.8,4.6-2.9,5.4-5.4h18.5l15.7,15.7
		c0.5,0.5,1.2,0.8,1.9,0.8H1020c-0.3-0.9-0.4-1.8-0.4-2.7c0-0.9,0.1-1.8,0.4-2.7H815.4l-15.7-15.7c-0.5-0.5-1.2-0.8-1.9-0.8h-19.6
		c-1.5-4.5-6.3-6.9-10.8-5.4C764.8,343,762.8,345,762,347.5L762,347.5z M770.2,344.3c3.2,0,5.9,2.6,5.9,5.8c0,3.2-2.6,5.9-5.8,5.9
		s-5.9-2.6-5.9-5.8l0,0C764.3,346.9,766.9,344.3,770.2,344.3L770.2,344.3z"/>
	<path class="st246" d="M773.9,243.1c-1.2-0.6-2.5-0.9-3.8-0.9c-4.7,0-8.5,3.8-8.5,8.5c0,1.3,0.3,2.6,0.9,3.8l-10.1,10.1H1.6v5.4
		h751.9c0.7,0,1.4-0.3,1.9-0.8l10.9-11c1.2,0.6,2.5,0.9,3.8,0.9c4.7,0,8.5-3.8,8.5-8.5c0-1.3-0.3-2.7-0.9-3.9l4.9-4.9l-3.6-3.9
		L773.9,243.1z M776,250.7c0,3.2-2.6,5.8-5.8,5.8s-5.8-2.6-5.8-5.8s2.6-5.8,5.8-5.8S776,247.5,776,250.7L776,250.7z"/>
	<path class="st231" d="M770.2,244.9c-3.2,0-5.8,2.6-5.8,5.8s2.6,5.8,5.8,5.8s5.8-2.6,5.8-5.8S773.4,244.9,770.2,244.9L770.2,244.9z
		"/>
	<path class="st231" d="M780.9,234.1c0,3.2,2.6,5.8,5.8,5.8s5.8-2.6,5.8-5.8s-2.6-5.8-5.8-5.8l0,0
		C783.5,228.3,780.9,230.9,780.9,234.1L780.9,234.1z"/>
	<path class="st231" d="M1180.1,239.9c3.2,0,5.9-2.6,5.9-5.8s-2.6-5.9-5.8-5.9s-5.9,2.6-5.9,5.8l0,0
		C1174.2,237.3,1176.8,239.9,1180.1,239.9L1180.1,239.9z"/>
	<path class="st243" d="M730.6,188.2L704,214.9H0v5.4h1027.3c1.5,4.5,6.3,6.9,10.8,5.4s6.9-6.3,5.4-10.8c-1.2-3.5-4.5-5.9-8.2-5.8
		c-3.7,0-8,5.7-8,5.7H711.5l22.9-22.7C732.8,191.2,731.4,189.9,730.6,188.2z M1035.4,223.4c-3.2,0-5.8-2.6-5.8-5.8s2.6-5.8,5.8-5.8
		c3.2,0,5.8,2.6,5.8,5.8C1041.2,220.8,1038.5,223.4,1035.4,223.4L1035.4,223.4z"/>
	<path class="st231" d="M738.2,178.5c-3.2,0-5.8,2.6-5.8,5.8s2.6,5.8,5.8,5.8s5.8-2.6,5.8-5.8S741.5,178.5,738.2,178.5L738.2,178.5z
		"/>
	<path class="st243" d="M738.2,175.8c-4.7,0-8.5,3.8-8.5,8.5c0,3.2,1.8,6.1,4.7,7.6c1.2,0.6,2.5,0.9,3.8,0.9c4.7,0,8.5-3.8,8.5-8.5
		C746.7,179.7,742.9,175.9,738.2,175.8z M738.2,178.5c3.2,0,5.8,2.6,5.8,5.8s-2.6,5.8-5.8,5.8s-5.8-2.6-5.8-5.8
		S735,178.5,738.2,178.5L738.2,178.5z"/>
	<path class="st231" d="M1035.3,223.4c3.2,0,5.8-2.6,5.8-5.8s-2.6-5.8-5.8-5.8c-3.2,0-5.8,2.6-5.8,5.8
		C1029.5,220.8,1032.1,223.4,1035.3,223.4z"/>
	<path class="st231" d="M548.3,44.1c-3.2,0-5.8,2.6-5.8,5.8s2.6,5.8,5.8,5.8s5.8-2.6,5.8-5.8C554.1,46.7,551.5,44.1,548.3,44.1
		L548.3,44.1z"/>
	<path class="st231" d="M734.8,33.3c0,3.2,2.6,5.8,5.8,5.8s5.8-2.6,5.8-5.8s-2.6-5.8-5.8-5.8C737.4,27.5,734.8,30.1,734.8,33.3
		L734.8,33.3z"/>
	<path class="st248" d="M732.6,30.7H564.8c-0.7,0-1.4,0.3-1.9,0.8L552,42.3c-1.2-0.6-2.5-0.9-3.8-0.9c-4.7,0-8.5,3.9-8.5,8.6l0,0
		c0,1.3,0.3,2.6,0.9,3.8l-11.9,11.9H0v5.4h529.9c0.7,0,1.4-0.3,1.9-0.8l12.7-12.7c1.2,0.6,2.5,0.9,3.8,0.9c4.7,0,8.5-3.8,8.5-8.5
		c0-1.3-0.3-2.6-0.9-3.8L566,36.1h166.7c1.5,4.4,6.3,6.8,10.7,5.3s6.8-6.3,5.3-10.7s-6.3-6.8-10.7-5.3
		C735.4,26.3,733.4,28.2,732.6,30.7L732.6,30.7z M554.1,49.9c0,3.2-2.5,5.9-5.8,5.9c-3.2,0-5.9-2.5-5.9-5.8c0-3.2,2.5-5.9,5.8-5.9
		h0.1C551.5,44.1,554.1,46.7,554.1,49.9L554.1,49.9z M734.8,33.3c0-3.2,2.6-5.8,5.8-5.8s5.8,2.6,5.8,5.8s-2.6,5.8-5.8,5.8
		C737.4,39.1,734.8,36.5,734.8,33.3L734.8,33.3z"/>
	<path class="st231" d="M643.4,95.6c-3.2,0-5.8,2.6-5.8,5.8c0,3.2,2.6,5.8,5.8,5.8s5.8-2.6,5.8-5.8S646.6,95.6,643.4,95.6
		L643.4,95.6z"/>
	<path class="st231" d="M1038.7,84.9c0,3.2,2.6,5.8,5.8,5.8s5.8-2.6,5.8-5.8c0-3.2-2.6-5.8-5.8-5.8
		C1041.4,79,1038.7,81.6,1038.7,84.9L1038.7,84.9z"/>
	<path class="st240" d="M1036.5,82.2H659.8c-0.7,0-1.4,0.3-1.9,0.8L647,93.9c-4.2-2.1-9.3-0.4-11.4,3.8c-0.6,1.2-0.9,2.5-0.9,3.8
		s0.3,2.6,0.9,3.8l-10.1,10.1H0v5.4h626.8c0.7,0,1.4-0.3,1.9-0.8l10.9-10.9c1.2,0.6,2.5,0.9,3.8,0.9c4.7,0,8.5-3.8,8.5-8.5
		c0-1.3-0.3-2.6-0.9-3.8l10-10.2h69.7l30.8,30.9l4.2-3.4L738,87.4l298.6,0.1c1.5,4.4,6.3,6.8,10.7,5.4c4.4-1.5,6.8-6.3,5.4-10.7
		s-6.3-6.8-10.7-5.4C1039.3,77.7,1037.4,79.6,1036.5,82.2L1036.5,82.2z M649.2,101.5c0,3.2-2.6,5.9-5.8,5.9s-5.9-2.6-5.9-5.8
		c0-3.2,2.6-5.9,5.8-5.9l0,0C646.6,95.6,649.2,98.2,649.2,101.5z M1044.6,79c3.2,0,5.8,2.6,5.8,5.8c0,3.2-2.6,5.8-5.8,5.8
		c-3.2,0-5.8-2.6-5.8-5.8C1038.8,81.7,1041.4,79.1,1044.6,79L1044.6,79z"/>
	<circle class="st240" cx="764.3" cy="116.5" r="8.3"/>
	<circle class="st231" cx="764.3" cy="116.5" r="5.8"/>
	<path class="st231" d="M720.8,128.6c0,3.2,2.6,5.8,5.8,5.8s5.8-2.6,5.8-5.8c0-3.2-2.6-5.8-5.8-5.8
		C723.5,122.8,720.9,125.4,720.8,128.6z"/>
</g>
<g id="line-W">
	<path class="st249" d="M1723.6,143.6c0-4.1-3.3-7.5-7.4-7.5s-7.3,3.4-7.3,7.5l0,0c0,4.1,3.3,7.4,7.3,7.4h0.1
		C1720.3,151.1,1723.6,147.7,1723.6,143.6z"/>
	<path class="st249" d="M1748.8,293.1l-0.6-2.2C1748.3,291.6,1748.5,292.4,1748.8,293.1z"/>
	<path class="st249" d="M1753.7,283.9l0.3,1.3h0.4l0.4-1.4h-0.1C1754.4,283.8,1754,283.9,1753.7,283.9z"/>
	<path class="st231" d="M1873.7,151.5l-34.3,133.7h-0.4l-38.3-133.7h-8.1l-38.4,134.3l-33.9-132.1c5.1-2.2,7.7-8,6-13.5
		c-1.9-5.7-7.9-8.8-13.5-6.9c-3.2,1.1-5.7,3.6-6.8,6.9H0.3v6.9h1705.6c1,3.1,3.3,5.5,6.1,6.6l38,143c1,0.1,7.7,0,8.1,0l38.3-133h0.5
		l38.2,132.8h8.4l38.3-145H1873.7z M1708.8,143.7c0-4.1,3.3-7.5,7.3-7.5s7.3,3.3,7.4,7.5c0.1,4-3.2,7.4-7.4,7.4
		C1712.1,151.1,1708.8,147.7,1708.8,143.7z"/>
</g>
</svg>
