<svg id="dd0819cb-030e-49ae-877d-8f67e5dca2e6" data-name="Layer 1 copy" xmlns="http://www.w3.org/2000/svg" viewBox="0 0 600 600"><title>who_we_are</title><path d="M154.84,106.4c0,30.8,19.54,55.77,43.65,55.77s43.65-25,43.65-55.77-19.54-50-43.65-50S154.84,75.59,154.84,106.4Zm6.3,0c0-28.13,16.72-45.11,37.35-45.11s37.34,17,37.34,45.11-16.72,50.92-37.34,50.92S161.14,134.52,161.14,106.4Z" style="fill:#c0c0be"/><path d="M152.9,196.12h60.5c9.61,0,7.64,10.89,7.64,20.49l-.73,102.21c-4.62,3.53,18.62,4.35,13,6.15l-1,43.32c0,9.6,5.84,169.26-3.76,169.26H201.88V411.45a3.88,3.88,0,0,0-7.76,0v126.1H169.39c-9.6,0-17.46-159.17-17.46-168.77V331.3a51,51,0,0,1-16.49-8.38V213.58A17.52,17.52,0,0,1,152.9,196.12Z" style="fill:#fff"/><path d="M166.24,167h50.92c-3.39,0-9.58,19.52-7.76,29.1H152.9a17.52,17.52,0,0,0-17.46,17.46V322.92a50.89,50.89,0,0,1-20.13-40.47V217.94A51.08,51.08,0,0,1,166.24,167Z" style="fill:#c0c0be"/><path d="M151.93,368.78c0,9.6,7.86,168.77,17.46,168.77h24.73V411.45a3.88,3.88,0,0,1,7.76,0v126.1h26.68c9.6,0,17.46-159.17,17.46-168.77V331c5.66-1.79,15.52,210.42,15.52,210.42,0,9.6-7.86,8.73-17.46,8.73H152.9c-9.6,0-17.46.87-17.46-8.73V322.92a51,51,0,0,0,16.49,8.38Z" style="fill:#c0c0be"/><path d="M54.45,107.38c0,30.8,19.54,55.77,43.65,55.77s43.65-25,43.65-55.77-19.55-50-43.65-50S54.45,76.57,54.45,107.38Zm6.3,0c0-28.13,16.72-45.11,37.35-45.11s37.34,17,37.34,45.11S118.72,158.3,98.1,158.3,60.75,135.5,60.75,107.38Z" style="fill:#c0c0be"/><path d="M52.51,197.1H97c9.61,0,7.64,10.89,7.64,20.49l-.72,102.21c-4.63,3.53,34.62,4.35,29,6.15l-1,43.32c0,9.6,5.85,169.26-3.75,169.26H101.49V412.44a3.88,3.88,0,0,0-7.76,0V538.53H69c-9.61,0-17.46-159.17-17.46-168.77V332.28a50.7,50.7,0,0,1-16.49-8.38V214.56A17.51,17.51,0,0,1,52.51,197.1Z" style="fill:#fff"/><path d="M65.84,168h65.48c-.52,0-22.55,14.8-22.31,29.1H52.51a17.51,17.51,0,0,0-17.46,17.46V323.9a50.89,50.89,0,0,1-20.13-40.47V218.92A51.08,51.08,0,0,1,65.84,168Z" style="fill:#c0c0be"/><path d="M51.54,369.76c0,9.6,7.85,168.77,17.46,168.77H93.73V412.44a3.88,3.88,0,0,1,7.76,0V538.53h26.68c9.6,0,17.46-159.17,17.46-168.77V332c5.65-1.79,15.51,210.42,15.51,210.42,0,9.61-7.85,8.73-17.45,8.73H52.51c-9.61,0-17.46.88-17.46-8.73V323.9a50.7,50.7,0,0,0,16.49,8.38Z" style="fill:#c0c0be"/><path d="M402.43,56.44c-24.11,0-43.65,19.15-43.65,50s19.54,55.77,43.65,55.77,43.65-25,43.65-55.77S426.53,56.44,402.43,56.44Zm0,100.88c-20.63,0-37.35-22.8-37.35-50.92s16.72-45.11,37.35-45.11,37.34,17,37.34,45.11S423.05,157.32,402.43,157.32Z" style="fill:#c0c0be"/><path d="M448,196.12H387.51c-9.6,0-7.64,10.89-7.64,20.49l.73,102.21c4.63,3.53-18.62,4.35-13,6.15l1,43.32c0,9.6-5.85,169.26,3.76,169.26H399V411.45a3.88,3.88,0,0,1,7.76,0v126.1h24.74c9.6,0,17.46-159.17,17.46-168.77V331.3a51,51,0,0,0,16.49-8.38V213.58A17.52,17.52,0,0,0,448,196.12Z" style="fill:#fff"/><path d="M434.68,167H383.75c3.4,0,9.58,19.52,7.76,29.1H448a17.52,17.52,0,0,1,17.46,17.46V322.92a50.91,50.91,0,0,0,20.12-40.47V217.94A51.07,51.07,0,0,0,434.68,167Z" style="fill:#c0c0be"/><path d="M449,368.78c0,9.6-7.86,168.77-17.46,168.77H406.79V411.45a3.88,3.88,0,0,0-7.76,0v126.1H372.36c-9.61,0-17.46-159.17-17.46-168.77V331c-5.66-1.79-15.52,210.42-15.52,210.42,0,9.6,7.85,8.73,17.46,8.73H448c9.6,0,17.46.87,17.46-8.73V322.92A51,51,0,0,1,449,331.3Z" style="fill:#c0c0be"/><path d="M507.08,97.4c-22,0-39.87,17.5-39.87,45.64s17.85,51,39.87,51S547,171.18,547,143,529.11,97.4,507.08,97.4Zm0,92.16C488.24,189.56,473,168.73,473,143s15.27-41.21,34.11-41.21S541.2,117.34,541.2,143,525.93,189.56,507.08,189.56Z" style="fill:#c0c0be"/><path d="M548.73,225H493.46c-8.77,0-7,9.95-7,18.72l.67,93.37c4.22,3.23-17,4-11.84,5.61l.87,39.58c0,8.77-5.34,154.62,3.44,154.62H504V421.71a3.55,3.55,0,0,1,7.09,0V536.9h22.6c8.77,0,16-145.4,16-154.18V348.49a46.5,46.5,0,0,0,15.06-7.65V241A16,16,0,0,0,548.73,225Z" style="fill:#fff"/><path d="M536.55,198.42H490c3.1,0,8.75,17.83,7.09,26.58h51.61A16,16,0,0,1,564.68,241v99.89a46.53,46.53,0,0,0,18.39-37V244.94A46.66,46.66,0,0,0,536.55,198.42Z" style="fill:#c0c0be"/><path d="M549.62,382.72c0,8.78-7.18,154.18-16,154.18h-22.6V421.71a3.55,3.55,0,0,0-7.09,0V536.9H479.62c-8.78,0-15.95-145.4-15.95-154.18V348.23c-5.17-1.64-14.18,192.22-14.18,192.22,0,8.77,7.18,8,15.95,8h83.29c8.77,0,15.95.8,15.95-8V340.84a46.5,46.5,0,0,1-15.06,7.65Z" style="fill:#c0c0be"/><path d="M300.58,33.16c-24.11,0-43.65,19.15-43.65,50s19.54,55.77,43.65,55.77,43.65-25,43.65-55.77S324.69,33.16,300.58,33.16Zm0,100.88c-20.63,0-37.35-22.8-37.35-50.92S280,38,300.58,38s37.34,17,37.34,45.11S321.2,134,300.58,134Z" style="fill:#c0c0be"/><path d="M346.17,172.84H255a17.52,17.52,0,0,0-17.46,17.46V299.64a50.83,50.83,0,0,0,15.52,8.09V345.5c0,9.6,7.86,192,17.46,192h26.67V388.17a3.88,3.88,0,0,1,7.76,0V537.55h24.74c9.6,0,17.46-182.45,17.46-192V308a51,51,0,0,0,16.49-8.38V190.3A17.52,17.52,0,0,0,346.17,172.84Z" style="fill:#fff"/><path d="M332.83,143.74h-64.5a51.08,51.08,0,0,0-50.93,50.92v64.51a50.89,50.89,0,0,0,20.13,40.47V190.3A17.52,17.52,0,0,1,255,172.84h91.18a17.52,17.52,0,0,1,17.46,17.46V299.64a50.88,50.88,0,0,0,20.12-40.47V194.66A51.07,51.07,0,0,0,332.83,143.74Z" style="fill:#c0c0be"/><path d="M347.14,345.5c0,9.6-7.86,192-17.46,192H304.94V388.17a3.88,3.88,0,0,0-7.76,0V537.55H270.51c-9.6,0-17.46-182.45-17.46-192V307.73a50.83,50.83,0,0,1-15.52-8.09V541.43c0,9.6,7.86,8.73,17.46,8.73h91.18c9.6,0,17.46.87,17.46-8.73V299.64A51,51,0,0,1,347.14,308Z" style="fill:#c0c0be"/></svg>